{
.appVersion = "1060";
classes = (
{
automatic = 1;

glyphs = (
{
color = 3;
glyphname = A;
lastChange = "2017-09-14 22:08:18 +0000";
layers = (
{
anchors = (
{
name = bottom;
position = "{366, 0}";
},
{
name = ogonek;
position = "{733, 0}";
},
{
name = top;
position = "{366, 700}";
},
{
name = topleft;
position = "{112, 700}";
}
);
layerId = "16BDD2A6-1A19-40B6-80C2-67966448469B";
paths = (
{
closed = 1;
nodes = (
"102 0 LINE",
"385 647 LINE",
"345 647 LINE",
"628 0 LINE",
"733 0 LINE",
"415 700 LINE",
"317 700 LINE",
"-1 0 LINE"
);
},
{
closed = 1;
nodes = (
"584 176 LINE",
"555 254 LINE",
"162 254 LINE",
"133 176 LINE"
);
}
);
width = 732;
}
);
leftKerningGroup = A;
rightKerningGroup = A;
rightMetricsKey = "=|";
unicode = 0041;
},
{
color = 3;
glyphname = AE;
lastChange = "2017-09-14 22:08:18 +0000";
layers = (
{
anchors = (
{
name = bottom;
position = "{531, 0}";
},
{
name = top;
position = "{531, 700}";
}
);
layerId = "16BDD2A6-1A19-40B6-80C2-67966448469B";
paths = (
{
closed = 1;
nodes = (
"102 0 LINE",
"489 658 LINE",
"428 619 LINE",
"515 619 LINE",
"515 700 LINE",
"416 700 LINE",
"-1 0 LINE"
);
},
{
closed = 1;
nodes = (
"515 176 LINE",
"515 254 LINE",
"184 254 LINE",
"177 176 LINE"
);
},
{
closed = 1;
nodes = (
"571 316 LINE",
"933 316 LINE",
"933 394 LINE",
"571 394 LINE"
);
},
{
closed = 1;
nodes = (
"580 619 LINE",
"977 619 LINE",
"977 700 LINE",
"482 700 LINE",
"482 0 LINE",
"991 0 LINE",
"991 81 LINE",
"580 81 LINE"
);
}
);
width = 1047;
}
);
leftKerningGroup = A;
leftMetricsKey = A;
rightKerningGroup = E;
rightMetricsKey = E;
unicode = 00C6;
},
{
glyphname = B;
lastChange = "2017-09-14 22:08:18 +0000";
layers = (
{
anchors = (
{
name = bottom;
position = "{379, 0}";
},
{
name = top;
position = "{379, 700}";
}
);
layerId = "16BDD2A6-1A19-40B6-80C2-67966448469B";
paths = (
{
closed = 1;
nodes = (
"438 0 LINE SMOOTH",
"616 0 OFFCURVE",
"707 67 OFFCURVE",
"707 187 CURVE SMOOTH",
"707 306 OFFCURVE",
"618 372 OFFCURVE",
"456 372 CURVE",
"438 343 LINE",
"580 343 OFFCURVE",
"670 408 OFFCURVE",
"670 521 CURVE SMOOTH",
"670 633 OFFCURVE",
"580 700 OFFCURVE",
"418 700 CURVE SMOOTH",
"105 700 LINE",
"105 0 LINE"
);
},
{
closed = 1;
nodes = (
"203 624 LINE",
"408 624 LINE SMOOTH",
"512 624 OFFCURVE",
"570 584 OFFCURVE",
"570 507 CURVE SMOOTH",
"570 431 OFFCURVE",
"512 391 OFFCURVE",
"408 391 CURVE SMOOTH",
"194 391 LINE",
"194 318 LINE",
"433 318 LINE SMOOTH",
"546 318 OFFCURVE",
"606 280 OFFCURVE",
"606 197 CURVE SMOOTH",
"606 114 OFFCURVE",
"546 76 OFFCURVE",
"433 76 CURVE SMOOTH",
"203 76 LINE"
);
}
);
width = 757;
}
);
leftKerningGroup = H;
leftMetricsKey = H;
rightKerningGroup = B;
unicode = 0042;
},
{
glyphname = C;
lastChange = "2017-09-14 22:08:18 +0000";
layers = (
{
anchors = (
{
name = bottom;
position = "{402, 0}";
},
{
name = top;
position = "{412, 700}";
}
);
layerId = "16BDD2A6-1A19-40B6-80C2-67966448469B";
paths = (
{
closed = 1;
nodes = (
"527 -8 OFFCURVE",
"621 30 OFFCURVE",
"684 101 CURVE",
"622 162 LINE",
"566 104 OFFCURVE",
"500 78 OFFCURVE",
"423 78 CURVE SMOOTH",
"265 78 OFFCURVE",
"148 193 OFFCURVE",
"148 350 CURVE SMOOTH",
"148 507 OFFCURVE",
"265 622 OFFCURVE",
"423 622 CURVE SMOOTH",
"500 622 OFFCURVE",
"566 596 OFFCURVE",
"622 539 CURVE",
"684 599 LINE",
"621 671 OFFCURVE",
"527 708 OFFCURVE",
"418 708 CURVE SMOOTH",
"206 708 OFFCURVE",
"48 557 OFFCURVE",
"48 350 CURVE SMOOTH",
"48 143 OFFCURVE",
"206 -8 OFFCURVE",
"418 -8 CURVE SMOOTH"
);
}
);
width = 723;
}
);
leftKerningGroup = O;
leftMetricsKey = O;
rightKerningGroup = C;
unicode = 0043;
},
{
glyphname = D;
lastChange = "2017-09-14 22:08:27 +0000";
layers = (
{
anchors = (
{
name = bottom;
position = "{383, 0}";
},
{
name = center;
position = "{202, 356}";
},
{
name = top;
position = "{379, 699}";
}
);
layerId = "16BDD2A6-1A19-40B6-80C2-67966448469B";
paths = (
{
closed = 1;
nodes = (
"399 0 LINE SMOOTH",
"625 0 OFFCURVE",
"778 142 OFFCURVE",
"778 350 CURVE SMOOTH",
"778 558 OFFCURVE",
"625 700 OFFCURVE",
"399 700 CURVE SMOOTH",
"105 700 LINE",
"105 0 LINE"
);
},
{
closed = 1;
nodes = (
"205 617 LINE",
"395 617 LINE SMOOTH",
"566 617 OFFCURVE",
"678 508 OFFCURVE",
"678 350 CURVE SMOOTH",
"678 192 OFFCURVE",
"566 83 OFFCURVE",
"395 83 CURVE SMOOTH",
"205 83 LINE"
);
}
);
width = 826;
}
);
leftKerningGroup = H;
leftMetricsKey = H;
rightKerningGroup = O;
rightMetricsKey = O;
unicode = 0044;
},
{
glyphname = E;
lastChange = "2017-09-14 22:08:18 +0000";
layers = (
{
anchors = (
{
name = bottom;
position = "{363, 0}";
},
{
name = ogonek;
position = "{614, 0}";
},
{
name = top;
position = "{353, 700}";
},
{
name = topleft;
position = "{23, 700}";
}
);
layerId = "16BDD2A6-1A19-40B6-80C2-67966448469B";
paths = (
{
closed = 1;
nodes = (
"194 316 LINE",
"556 316 LINE",
"556 394 LINE",
"194 394 LINE"
);
},
{
closed = 1;
nodes = (
"203 619 LINE",
"600 619 LINE",
"600 700 LINE",
"105 700 LINE",
"105 0 LINE",
"614 0 LINE",
"614 81 LINE",
"203 81 LINE"
);
}
);
width = 670;
}
);
leftKerningGroup = H;
leftMetricsKey = H;
rightKerningGroup = E;
unicode = 0045;
},
{
glyphname = F;
lastChange = "2017-09-14 22:08:18 +0000";
layers = (
{
layerId = "16BDD2A6-1A19-40B6-80C2-67966448469B";
paths = (
{
closed = 1;
nodes = (
"196 286 LINE",
"556 286 LINE",
"556 367 LINE",
"196 367 LINE"
);
},
{
closed = 1;
nodes = (
"205 619 LINE",
"600 619 LINE",
"600 700 LINE",
"105 700 LINE",
"105 0 LINE",
"205 0 LINE"
);
}
);
width = 635;
}
);
leftKerningGroup = H;
leftMetricsKey = H;
rightKerningGroup = F;
unicode = 0046;
},
{
glyphname = G;
lastChange = "2017-09-14 22:08:18 +0000";
layers = (
{
anchors = (
{
name = bottom;
position = "{405, 0}";
},
{
name = top;
position = "{410, 700}";
}
);
layerId = "16BDD2A6-1A19-40B6-80C2-67966448469B";
paths = (
{
closed = 1;
nodes = (
"519 -8 OFFCURVE",
"616 22 OFFCURVE",
"685 82 CURVE",
"629 154 LINE",
"569 99 OFFCURVE",
"501 78 OFFCURVE",
"426 78 CURVE SMOOTH",
"265 78 OFFCURVE",
"148 194 OFFCURVE",
"148 350 CURVE SMOOTH",
"148 507 OFFCURVE",
"265 622 OFFCURVE",
"427 622 CURVE SMOOTH",
"505 622 OFFCURVE",
"573 598 OFFCURVE",
"629 541 CURVE",
"693 601 LINE",
"629 672 OFFCURVE",
"533 708 OFFCURVE",
"422 708 CURVE SMOOTH",
"206 708 OFFCURVE",
"48 557 OFFCURVE",
"48 350 CURVE SMOOTH",
"48 143 OFFCURVE",
"206 -8 OFFCURVE",
"421 -8 CURVE SMOOTH"
);
},
{
closed = 1;
nodes = (
"685 82 LINE",
"685 353 LINE",
"598 353 LINE",
"598 93 LINE"
);
}
);
width = 772;
}
);
leftKerningGroup = O;
leftMetricsKey = O;
rightKerningGroup = G;
unicode = 0047;
},
{
glyphname = H;
lastChange = "2017-09-14 22:08:18 +0000";
layers = (
{
anchors = (
{
name = bottom;
position = "{406, 0}";
},
{
name = center;
position = "{406, 553}";
},
{
name = top;
position = "{406, 700}";
}
);
layerId = "16BDD2A6-1A19-40B6-80C2-67966448469B";
paths = (
{
closed = 1;
nodes = (
"607 0 LINE",
"707 0 LINE",
"707 700 LINE",
"607 700 LINE"
);
},
{
closed = 1;
nodes = (
"205 700 LINE",
"105 700 LINE",
"105 0 LINE",
"205 0 LINE"
);
},
{
closed = 1;
nodes = (
"616 399 LINE",
"196 399 LINE",
"196 312 LINE",
"616 312 LINE"
);
}
);
width = 812;
}
);
leftKerningGroup = H;
rightKerningGroup = H;
rightMetricsKey = "=|";
unicode = 0048;
},
{
glyphname = I;
lastChange = "2017-09-14 22:08:18 +0000";
layers = (
{
anchors = (
{
name = bottom;
position = "{155, 0}";
},
{
name = ogonek;
position = "{205, 0}";
},
{
name = top;
position = "{155, 700}";
},
{
name = topleft;
position = "{23, 699}";
}
);
layerId = "16BDD2A6-1A19-40B6-80C2-67966448469B";
paths = (
{
closed = 1;
nodes = (
"205 0 LINE",
"205 700 LINE",
"105 700 LINE",
"105 0 LINE"
);
}
);
width = 310;
}
);
leftKerningGroup = H;
leftMetricsKey = H;
rightKerningGroup = H;
rightMetricsKey = H;
unicode = 0049;
},
{
glyphname = IJ;
lastChange = "2017-09-14 22:08:18 +0000";
layers = (
{
anchors = (
{
name = top;
position = "{168, 700}";
}
);
layerId = "16BDD2A6-1A19-40B6-80C2-67966448469B";
paths = (
{
closed = 1;
nodes = (
"504 -8 OFFCURVE",
"621 99 OFFCURVE",
"621 305 CURVE SMOOTH",
"621 700 LINE",
"521 700 LINE",
"521 301 LINE SMOOTH",
"521 149 OFFCURVE",
"449 77 OFFCURVE",
"324 77 CURVE SMOOTH",
"255 77 OFFCURVE",
"184 99 OFFCURVE",
"126 140 CURVE",
"87 65 LINE",
"148 21 OFFCURVE",
"233 -8 OFFCURVE",
"327 -8 CURVE SMOOTH"
);
},
{
closed = 1;
nodes = (
"199 308 LINE",
"199 700 LINE",
"99 700 LINE",
"99 308 LINE"
);
}
);
width = 720;
}
);
leftKerningGroup = H;
rightKerningGroup = U;
rightMetricsKey = U;
unicode = 0132;
},
{
glyphname = J;
lastChange = "2017-09-14 22:08:18 +0000";
layers = (
{
anchors = (
{
name = top;
position = "{238, 700}";
}
);
layerId = "16BDD2A6-1A19-40B6-80C2-67966448469B";
paths = (
{
closed = 1;
nodes = (
"340 -8 OFFCURVE",
"414 69 OFFCURVE",
"414 224 CURVE SMOOTH",
"414 700 LINE",
"62 700 LINE",
"62 619 LINE",
"315 619 LINE",
"315 219 LINE SMOOTH",
"315 123 OFFCURVE",
"274 76 OFFCURVE",
"192 76 CURVE SMOOTH",
"136 76 OFFCURVE",
"87 105 OFFCURVE",
"49 159 CURVE",
"-6 93 LINE",
"38 29 OFFCURVE",
"114 -8 OFFCURVE",
"199 -8 CURVE SMOOTH"
);
}
);
width = 513;
}
);
leftKerningGroup = J;
rightKerningGroup = U;
rightMetricsKey = U;
unicode = 004A;
},
{
glyphname = K;
lastChange = "2017-09-14 22:08:18 +0000";
layers = (
{
anchors = (
{
name = bottom;
position = "{375, 0}";
},
{
name = top;
position = "{375, 700}";
}
);
layerId = "16BDD2A6-1A19-40B6-80C2-67966448469B";
paths = (
{
closed = 1;
nodes = (
"336 317 LINE",
"392 376 LINE",
"699 700 LINE",
"587 700 LINE",
"188 287 LINE",
"193 170 LINE"
);
},
{
closed = 1;
nodes = (
"203 0 LINE",
"203 700 LINE",
"105 700 LINE",
"105 0 LINE"
);
},
{
closed = 1;
nodes = (
"719 0 LINE",
"381 407 LINE",
"315 336 LINE",
"601 0 LINE"
);
}
);
width = 720;
}
);
leftKerningGroup = H;
leftMetricsKey = H;
rightKerningGroup = K;
unicode = 004B;
},
{
glyphname = L;
lastChange = "2017-09-14 22:08:18 +0000";
layers = (
{
anchors = (
{
name = bottom;
position = "{356, 0}";
},
{
name = center;
position = "{155, 376}";
},
{
name = dot;
position = "{452, 392}";
},
{
name = top;
position = "{155, 700}";
},
{
name = topright;
position = "{438, 700}";
}
);
layerId = "16BDD2A6-1A19-40B6-80C2-67966448469B";
paths = (
{
closed = 1;
nodes = (
"584 0 LINE",
"584 83 LINE",
"205 83 LINE",
"205 700 LINE",
"105 700 LINE",
"105 0 LINE"
);
}
);
width = 594;
}
);
leftKerningGroup = H;
leftMetricsKey = H;
rightKerningGroup = L;
unicode = 004C;
},
{
glyphname = M;
lastChange = "2017-09-14 22:08:18 +0000";
layers = (
{
anchors = (
{
name = bottom;
position = "{477, 0}";
},
{
name = top;
position = "{477, 700}";
}
);
layerId = "16BDD2A6-1A19-40B6-80C2-67966448469B";
paths = (
{
closed = 1;
nodes = (
"197 0 LINE",
"197 556 LINE",
"176 556 LINE",
"454 85 LINE",
"500 85 LINE",
"775 556 LINE",
"758 556 LINE",
"758 0 LINE",
"850 0 LINE",
"850 700 LINE",
"767 700 LINE",
"457 167 LINE",
"501 167 LINE",
"187 700 LINE",
"105 700 LINE",
"105 0 LINE"
);
}
);
width = 955;
}
);
leftKerningGroup = H;
leftMetricsKey = H;
rightKerningGroup = H;
rightMetricsKey = H;
unicode = 004D;
},
{
glyphname = N;
lastChange = "2017-09-14 22:08:18 +0000";
layers = (
{
anchors = (
{
name = bottom;
position = "{406, 0}";
},
{
name = top;
position = "{406, 700}";
}
);
layerId = "16BDD2A6-1A19-40B6-80C2-67966448469B";
paths = (
{
closed = 1;
nodes = (
"202 0 LINE",
"202 579 LINE",
"162 579 LINE",
"624 0 LINE",
"707 0 LINE",
"707 700 LINE",
"609 700 LINE",
"609 121 LINE",
"649 121 LINE",
"187 700 LINE",
"105 700 LINE",
"105 0 LINE"
);
}
);
width = 812;
}
);
leftKerningGroup = H;
leftMetricsKey = H;
rightKerningGroup = H;
rightMetricsKey = H;
unicode = 004E;
},
{
glyphname = Eng;
lastChange = "2017-09-14 22:08:18 +0000";
layers = (
{
layerId = "16BDD2A6-1A19-40B6-80C2-67966448469B";
paths = (
{
closed = 1;
nodes = (
"202 0 LINE",
"202 579 LINE",
"162 579 LINE",
"624 0 LINE",
"649 121 LINE",
"187 700 LINE",
"105 700 LINE",
"105 0 LINE"
);
},
{
closed = 1;
nodes = (
"634 -200 OFFCURVE",
"707 -123 OFFCURVE",
"707 40 CURVE SMOOTH",
"707 700 LINE",
"609 700 LINE",
"609 27 LINE SMOOTH",
"609 -69 OFFCURVE",
"568 -116 OFFCURVE",
"486 -116 CURVE SMOOTH",
"435 -116 OFFCURVE",
"391 -93 OFFCURVE",
"359 -51 CURVE",
"310 -119 LINE",
"353 -171 OFFCURVE",
"420 -200 OFFCURVE",
"493 -200 CURVE SMOOTH"
);
}
);
width = 812;
}
);
leftKerningGroup = H;
leftMetricsKey = H;
rightKerningGroup = H;
rightMetricsKey = H;
unicode = 014A;
},
{
glyphname = O;
lastChange = "2017-09-14 22:08:27 +0000";
layers = (
{
anchors = (
{
name = bottom;
position = "{420, 0}";
},
{
name = center;
position = "{420, 350}";
},
{
name = ogonek;
position = "{498, 0}";
},
{
name = top;
position = "{420, 700}";
},
{
name = topleft;
position = "{50, 700}";
},
{
name = topright;
position = "{639, 700}";
}
);
layerId = "16BDD2A6-1A19-40B6-80C2-67966448469B";
paths = (
{
closed = 1;
nodes = (
"634 -8 OFFCURVE",
"793 144 OFFCURVE",
"793 350 CURVE SMOOTH",
"793 556 OFFCURVE",
"634 708 OFFCURVE",
"420 708 CURVE SMOOTH",
"207 708 OFFCURVE",
"48 556 OFFCURVE",
"48 350 CURVE SMOOTH",
"48 144 OFFCURVE",
"207 -8 OFFCURVE",
"420 -8 CURVE SMOOTH"
);
},
{
closed = 1;
nodes = (
"266 78 OFFCURVE",
"148 191 OFFCURVE",
"148 350 CURVE SMOOTH",
"148 509 OFFCURVE",
"266 622 OFFCURVE",
"420 622 CURVE SMOOTH",
"574 622 OFFCURVE",
"692 509 OFFCURVE",
"692 350 CURVE SMOOTH",
"692 191 OFFCURVE",
"574 78 OFFCURVE",
"420 78 CURVE SMOOTH"
);
}
);
width = 841;
}
);
leftKerningGroup = O;
rightKerningGroup = O;
rightMetricsKey = "=|";
unicode = 004F;
},
{
glyphname = OE;
lastChange = "2017-09-14 22:08:18 +0000";
layers = (
{
anchors = (
{
name = bottom;
position = "{610, 0}";
},
{
name = top;
position = "{610, 700}";
}
);
layerId = "16BDD2A6-1A19-40B6-80C2-67966448469B";
paths = (
{
closed = 1;
nodes = (
"587 0 LINE",
"587 83 LINE",
"430 83 LINE SMOOTH",
"261 83 OFFCURVE",
"148 191 OFFCURVE",
"148 349 CURVE SMOOTH",
"148 508 OFFCURVE",
"261 617 OFFCURVE",
"430 617 CURVE SMOOTH",
"587 617 LINE",
"587 700 LINE",
"427 700 LINE SMOOTH",
"201 700 OFFCURVE",
"48 557 OFFCURVE",
"48 349 CURVE SMOOTH",
"48 142 OFFCURVE",
"201 0 OFFCURVE",
"427 0 CURVE SMOOTH"
);
},
{
closed = 1;
nodes = (
"1070 0 LINE",
"1070 81 LINE",
"659 81 LINE",
"659 316 LINE",
"1012 316 LINE",
"1012 394 LINE",
"659 394 LINE",
"659 619 LINE",
"1055 619 LINE",
"1055 700 LINE",
"561 700 LINE",
"561 0 LINE"
);
}
);
width = 1126;
}
);
leftKerningGroup = O;
leftMetricsKey = O;
rightKerningGroup = E;
rightMetricsKey = E;
unicode = 0152;
},
{
glyphname = Ohorn;
lastChange = "2017-09-14 22:08:27 +0000";
layers = (
{
anchors = (
{
name = bottom;
position = "{420, 0}";
},
{
name = top;
position = "{420, 700}";
}
);
layerId = "16BDD2A6-1A19-40B6-80C2-67966448469B";
paths = (
{
closed = 1;
nodes = (
"634 -8 OFFCURVE",
"793 144 OFFCURVE",
"793 350 CURVE SMOOTH",
"793 488 OFFCURVE",
"717 605 OFFCURVE",
"598 659 CURVE",
"494 640 LINE",
"533 634 OFFCURVE",
"579 628 OFFCURVE",
"617 628 CURVE SMOOTH",
"724 628 OFFCURVE",
"784 676 OFFCURVE",
"784 764 CURVE SMOOTH",
"784 797 OFFCURVE",
"773 829 OFFCURVE",
"756 852 CURVE",
"690 830 LINE",
"702 813 OFFCURVE",
"710 791 OFFCURVE",
"710 766 CURVE SMOOTH",
"710 719 OFFCURVE",
"678 694 OFFCURVE",
"616 694 CURVE SMOOTH",
"560 694 OFFCURVE",
"504 708 OFFCURVE",
"424 708 CURVE SMOOTH",
"207 708 OFFCURVE",
"48 556 OFFCURVE",
"48 350 CURVE SMOOTH",
"48 144 OFFCURVE",
"207 -8 OFFCURVE",
"420 -8 CURVE SMOOTH"
);
},
{
closed = 1;
nodes = (
"266 78 OFFCURVE",
"148 192 OFFCURVE",
"148 350 CURVE SMOOTH",
"148 508 OFFCURVE",
"266 622 OFFCURVE",
"420 622 CURVE SMOOTH",
"574 622 OFFCURVE",
"692 508 OFFCURVE",
"692 350 CURVE SMOOTH",
"692 192 OFFCURVE",
"574 78 OFFCURVE",
"420 78 CURVE SMOOTH"
);
}
);
width = 841;
}
);
leftKerningGroup = O;
leftMetricsKey = O;
widthMetricsKey = O;
rightKerningGroup = O;
unicode = 01A0;
},
{
glyphname = P;
lastChange = "2017-09-14 22:08:18 +0000";
layers = (
{
layerId = "16BDD2A6-1A19-40B6-80C2-67966448469B";
paths = (
{
closed = 1;
nodes = (
"205 0 LINE",
"205 258 LINE",
"160 213 LINE",
"379 213 LINE SMOOTH",
"559 213 OFFCURVE",
"670 305 OFFCURVE",
"670 457 CURVE SMOOTH",
"670 608 OFFCURVE",
"559 700 OFFCURVE",
"379 700 CURVE SMOOTH",
"105 700 LINE",
"105 0 LINE"
);
},
{
closed = 1;
nodes = (
"205 664 LINE",
"160 617 LINE",
"375 617 LINE SMOOTH",
"502 617 OFFCURVE",
"570 558 OFFCURVE",
"570 457 CURVE SMOOTH",
"570 355 OFFCURVE",
"502 296 OFFCURVE",
"375 296 CURVE SMOOTH",
"160 296 LINE",
"205 249 LINE"
);
}
);
width = 722;
}
);
leftKerningGroup = H;
leftMetricsKey = H;
rightKerningGroup = P;
unicode = 0050;
},
{
glyphname = Thorn;
lastChange = "2017-09-14 22:08:18 +0000";
layers = (
{
layerId = "16BDD2A6-1A19-40B6-80C2-67966448469B";
paths = (
{
closed = 1;
nodes = (
"379 126 LINE SMOOTH",
"559 126 OFFCURVE",
"670 217 OFFCURVE",
"670 369 CURVE SMOOTH",
"670 521 OFFCURVE",
"559 612 OFFCURVE",
"379 612 CURVE SMOOTH",
"181 612 LINE",
"181 530 LINE",
"375 530 LINE SMOOTH",
"502 530 OFFCURVE",
"570 471 OFFCURVE",
"570 369 CURVE SMOOTH",
"570 267 OFFCURVE",
"502 208 OFFCURVE",
"375 208 CURVE SMOOTH",
"181 208 LINE",
"181 126 LINE"
);
},
{
closed = 1;
nodes = (
"205 0 LINE",
"205 700 LINE",
"105 700 LINE",
"105 0 LINE"
);
}
);
width = 722;
}
);
leftKerningGroup = H;
leftMetricsKey = H;
rightKerningGroup = Thorn;
rightMetricsKey = P;
unicode = 00DE;
},
{
glyphname = Q;
lastChange = "2017-09-14 22:08:27 +0000";
layers = (
{
anchors = (
{
name = top;
position = "{421, 700}";
}
);
layerId = "16BDD2A6-1A19-40B6-80C2-67966448469B";
paths = (
{
closed = 1;
nodes = (
"634 -8 OFFCURVE",
"793 144 OFFCURVE",
"793 350 CURVE SMOOTH",
"793 556 OFFCURVE",
"634 708 OFFCURVE",
"420 708 CURVE SMOOTH",
"207 708 OFFCURVE",
"48 556 OFFCURVE",
"48 350 CURVE SMOOTH",
"48 144 OFFCURVE",
"207 -8 OFFCURVE",
"420 -8 CURVE SMOOTH"
);
},
{
closed = 1;
nodes = (
"721 -145 OFFCURVE",
"782 -117 OFFCURVE",
"825 -64 CURVE",
"779 -8 LINE",
"743 -49 OFFCURVE",
"701 -69 OFFCURVE",
"652 -69 CURVE SMOOTH",
"596 -69 OFFCURVE",
"546 -39 OFFCURVE",
"486 36 CURVE",
"380 10 LINE",
"484 -104 OFFCURVE",
"556 -145 OFFCURVE",
"650 -145 CURVE SMOOTH"
);
},
{
closed = 1;
nodes = (
"266 78 OFFCURVE",
"148 192 OFFCURVE",
"148 350 CURVE SMOOTH",
"148 508 OFFCURVE",
"266 622 OFFCURVE",
"420 622 CURVE SMOOTH",
"574 622 OFFCURVE",
"692 508 OFFCURVE",
"692 350 CURVE SMOOTH",
"692 192 OFFCURVE",
"574 78 OFFCURVE",
"420 78 CURVE SMOOTH"
);
}
);
width = 841;
}
);
leftKerningGroup = O;
leftMetricsKey = O;
widthMetricsKey = O;
rightKerningGroup = O;
unicode = 0051;
},
{
glyphname = R;
lastChange = "2017-09-14 22:08:18 +0000";
layers = (
{
anchors = (
{
name = bottom;
position = "{371, 0}";
},
{
name = top;
position = "{371, 700}";
}
);
layerId = "16BDD2A6-1A19-40B6-80C2-67966448469B";
paths = (
{
closed = 1;
nodes = (
"205 0 LINE",
"205 258 LINE",
"160 215 LINE",
"379 215 LINE SMOOTH",
"559 215 OFFCURVE",
"670 305 OFFCURVE",
"670 457 CURVE SMOOTH",
"670 608 OFFCURVE",
"559 700 OFFCURVE",
"379 700 CURVE SMOOTH",
"105 700 LINE",
"105 0 LINE"
);
},
{
closed = 1;
nodes = (
"682 0 LINE",
"502 254 LINE",
"394 254 LINE",
"573 0 LINE"
);
},
{
closed = 1;
nodes = (
"205 664 LINE",
"160 617 LINE",
"375 617 LINE SMOOTH",
"502 617 OFFCURVE",
"570 558 OFFCURVE",
"570 457 CURVE SMOOTH",
"570 355 OFFCURVE",
"502 296 OFFCURVE",
"375 296 CURVE SMOOTH",
"160 296 LINE",
"205 249 LINE"
);
}
);
width = 727;
}
);
leftKerningGroup = H;
leftMetricsKey = H;
rightKerningGroup = R;
unicode = 0052;
},
{
glyphname = S;
lastChange = "2017-09-14 22:08:18 +0000";
layers = (
{
anchors = (
{
name = bottom;
position = "{322, 0}";
},
{
name = top;
position = "{322, 700}";
}
);
layerId = "16BDD2A6-1A19-40B6-80C2-67966448469B";
paths = (
{
closed = 1;
nodes = (
"494 -8 OFFCURVE",
"580 84 OFFCURVE",
"580 191 CURVE SMOOTH",
"580 446 OFFCURVE",
"157 336 OFFCURVE",
"157 513 CURVE SMOOTH",
"157 575 OFFCURVE",
"208 626 OFFCURVE",
"326 626 CURVE SMOOTH",
"388 626 OFFCURVE",
"458 607 OFFCURVE",
"518 569 CURVE",
"552 645 LINE",
"492 685 OFFCURVE",
"408 708 OFFCURVE",
"326 708 CURVE SMOOTH",
"142 708 OFFCURVE",
"58 615 OFFCURVE",
"58 509 CURVE SMOOTH",
"58 250 OFFCURVE",
"482 361 OFFCURVE",
"482 184 CURVE SMOOTH",
"482 122 OFFCURVE",
"430 74 OFFCURVE",
"309 74 CURVE SMOOTH",
"219 74 OFFCURVE",
"130 108 OFFCURVE",
"78 155 CURVE",
"41 80 LINE",
"97 28 OFFCURVE",
"202 -8 OFFCURVE",
"309 -8 CURVE SMOOTH"
);
}
);
width = 622;
}
);
leftKerningGroup = S;
rightKerningGroup = S;
unicode = 0053;
},
{
color = 8;
glyphname = Schwa;
lastChange = "2017-09-14 22:08:18 +0000";
layers = (
{
anchors = (
{
name = bottom;
position = "{409, 0}";
},
{
name = top;
position = "{409, 700}";
}
);
layerId = "16BDD2A6-1A19-40B6-80C2-67966448469B";
paths = (
{
closed = 1;
nodes = (
"612 -8 OFFCURVE",
"769 148 OFFCURVE",
"769 350 CURVE SMOOTH",
"769 557 OFFCURVE",
"611 708 OFFCURVE",
"395 708 CURVE SMOOTH",
"289 708 OFFCURVE",
"188 668 OFFCURVE",
"124 605 CURVE",
"182 541 LINE",
"240 596 OFFCURVE",
"319 622 OFFCURVE",
"394 622 CURVE SMOOTH",
"551 622 OFFCURVE",
"668 507 OFFCURVE",
"668 355 CURVE SMOOTH",
"668 334 LINE SMOOTH",
"668 183 OFFCURVE",
"556 71 OFFCURVE",
"408 71 CURVE SMOOTH",
"255 71 OFFCURVE",
"149 182 OFFCURVE",
"149 334 CURVE",
"115 302 LINE",
"681 302 LINE",
"681 375 LINE",
"48 375 LINE",
"48 354 LINE SMOOTH",
"48 142 OFFCURVE",
"198 -8 OFFCURVE",
"408 -8 CURVE SMOOTH"
);
}
);
width = 817;
}
);
leftKerningGroup = O;
leftMetricsKey = O;
rightKerningGroup = O;
rightMetricsKey = O;
unicode = 018F;
},
{
glyphname = Germandbls;
lastChange = "2017-09-14 22:08:27 +0000";
layers = (
{
layerId = "16BDD2A6-1A19-40B6-80C2-67966448469B";
paths = (
{
closed = 1;
nodes = (
"610 -8 OFFCURVE",
"712 66 OFFCURVE",
"712 199 CURVE SMOOTH",
"712 333 OFFCURVE",
"609 407 OFFCURVE",
"473 407 CURVE SMOOTH",
"445 407 OFFCURVE",
"419 404 OFFCURVE",
"396 398 CURVE",
"429 344 LINE",
"646 574 LINE",
"646 637 LINE",
"586 682 OFFCURVE",
"498 706 OFFCURVE",
"410 706 CURVE SMOOTH",
"213 706 OFFCURVE",
"99 591 OFFCURVE",
"99 403 CURVE SMOOTH",
"99 0 LINE",
"199 0 LINE",
"199 400 LINE SMOOTH",
"199 544 OFFCURVE",
"275 624 OFFCURVE",
"411 624 CURVE SMOOTH",
"488 624 OFFCURVE",
"551 605 OFFCURVE",
"603 565 CURVE",
"599 630 LINE",
"356 369 LINE",
"375 322 LINE",
"397 330 OFFCURVE",
"426 334 OFFCURVE",
"455 334 CURVE SMOOTH",
"552 334 OFFCURVE",
"612 289 OFFCURVE",
"612 203 CURVE SMOOTH",
"612 118 OFFCURVE",
"553 74 OFFCURVE",
"457 74 CURVE SMOOTH",
"415 74 OFFCURVE",
"375 82 OFFCURVE",
"343 98 CURVE",
"326 18 LINE",
"367 1 OFFCURVE",
"410 -8 OFFCURVE",
"471 -8 CURVE SMOOTH"
);
}
);
width = 762;
}
);
leftKerningGroup = F.ss01;
leftMetricsKey = "=|U";
rightKerningGroup = B;
rightMetricsKey = B;
unicode = 1E9E;
},
{
glyphname = T;
lastChange = "2017-09-14 22:08:18 +0000";
layers = (
{
anchors = (
{
name = bottom;
position = "{294, 0}";
},
{
name = center;
position = "{294, 340}";
},
{
name = top;
position = "{294, 700}";
}
);
layerId = "16BDD2A6-1A19-40B6-80C2-67966448469B";
paths = (
{
closed = 1;
nodes = (
"343 0 LINE",
"343 617 LINE",
"583 617 LINE",
"583 700 LINE",
"4 700 LINE",
"4 617 LINE",
"244 617 LINE",
"244 0 LINE"
);
}
);
width = 587;
}
);
leftKerningGroup = T;
rightKerningGroup = T;
rightMetricsKey = "=|";
unicode = 0054;
},
{
glyphname = U;
lastChange = "2017-09-14 22:08:18 +0000";
layers = (
{
anchors = (
{
name = bottom;
position = "{396, 0}";
},
{
name = ogonek;
position = "{597, 0}";
},
{
name = top;
position = "{396, 700}";
},
{
name = topright;
position = "{660, 700}";
}
);
layerId = "16BDD2A6-1A19-40B6-80C2-67966448469B";
paths = (
{
closed = 1;
nodes = (
"580 -8 OFFCURVE",
"691 99 OFFCURVE",
"691 302 CURVE SMOOTH",
"691 700 LINE",
"593 700 LINE",
"593 305 LINE SMOOTH",
"593 149 OFFCURVE",
"521 78 OFFCURVE",
"396 78 CURVE SMOOTH",
"271 78 OFFCURVE",
"199 149 OFFCURVE",
"199 305 CURVE SMOOTH",
"199 700 LINE",
"99 700 LINE",
"99 302 LINE SMOOTH",
"99 99 OFFCURVE",
"210 -8 OFFCURVE",
"395 -8 CURVE SMOOTH"
);
}
);
width = 790;
}
);
leftKerningGroup = U;
rightKerningGroup = U;
rightMetricsKey = "=|";
unicode = 0055;
},
{
glyphname = V;
lastChange = "2017-09-14 22:08:18 +0000";
layers = (
{
layerId = "16BDD2A6-1A19-40B6-80C2-67966448469B";
paths = (
{
closed = 1;
nodes = (
"406 0 LINE",
"714 700 LINE",
"613 700 LINE",
"328 52 LINE",
"390 52 LINE",
"108 700 LINE",
"-1 700 LINE",
"307 0 LINE"
);
}
);
width = 713;
}
);
leftKerningGroup = V;
rightKerningGroup = V;
rightMetricsKey = "=|";
unicode = 0056;
},
{
color = 3;
glyphname = W;
lastChange = "2017-09-14 22:08:27 +0000";
layers = (
{
anchors = (
{
name = bottom;
position = "{563, 0}";
},
{
name = top;
position = "{563, 700}";
}
);
layerId = "16BDD2A6-1A19-40B6-80C2-67966448469B";
paths = (
{
closed = 1;
nodes = (
"372 0 LINE",
"579 602 LINE",
"551 602 LINE",
"754 0 LINE",
"860 0 LINE",
"1094 700 LINE",
"998 700 LINE",
"781 52 LINE",
"831 52 LINE",
"613 700 LINE",
"520 700 LINE",
"298 52 LINE",
"350 52 LINE",
"136 700 LINE",
"32 700 LINE",
"266 0 LINE"
);
}
);
width = 1126;
}
);
leftKerningGroup = V;
rightKerningGroup = V;
rightMetricsKey = "=|";
unicode = 0057;
},
{
glyphname = X;
lastChange = "2017-09-14 22:08:18 +0000";
layers = (
{
layerId = "16BDD2A6-1A19-40B6-80C2-67966448469B";
paths = (
{
closed = 1;
nodes = (
"127 0 LINE",
"357 321 LINE",
"313 320 LINE",
"545 0 LINE",
"660 0 LINE",
"369 396 LINE",
"369 328 LINE",
"642 700 LINE",
"533 700 LINE",
"316 399 LINE",
"361 399 LINE",
"142 700 LINE",
"29 700 LINE",
"304 322 LINE",
"304 396 LINE",
"13 0 LINE"
);
}
);
width = 673;
}
);
leftKerningGroup = X;
rightKerningGroup = X;
rightMetricsKey = "=|";
unicode = 0058;
},
{
color = 3;
glyphname = Y;
lastChange = "2017-09-14 22:08:18 +0000";
layers = (
{
anchors = (
{
name = bottom;
position = "{323, 0}";
},
{
name = top;
position = "{323, 700}";
}
);
layerId = "16BDD2A6-1A19-40B6-80C2-67966448469B";
paths = (
{
closed = 1;
nodes = (
"373 0 LINE",
"373 269 LINE",
"351 205 LINE",
"651 700 LINE",
"552 700 LINE",
"298 285 LINE",
"356 285 LINE",
"103 700 LINE",
"-4 700 LINE",
"297 205 LINE",
"274 269 LINE",
"274 0 LINE"
);
}
);
width = 647;
}
);
leftKerningGroup = Y;
rightKerningGroup = Y;
rightMetricsKey = "=|";
unicode = 0059;
},
{
glyphname = Z;
lastChange = "2017-09-14 22:08:18 +0000";
layers = (
{
anchors = (
{
name = bottom;
position = "{342, 0}";
},
{
name = top;
position = "{336, 700}";
}
);
layerId = "16BDD2A6-1A19-40B6-80C2-67966448469B";
paths = (
{
closed = 1;
nodes = (
"628 0 LINE",
"628 83 LINE",
"134 83 LINE",
"145 47 LINE",
"615 634 LINE",
"615 700 LINE",
"50 700 LINE",
"50 617 LINE",
"525 617 LINE",
"513 653 LINE",
"43 66 LINE",
"43 0 LINE"
);
}
);
width = 657;
}
);
leftKerningGroup = Z;
rightKerningGroup = Z;
unicode = 005A;
},
{
glyphname = A.ss01;
lastChange = "2017-09-14 22:08:18 +0000";
layers = (
{
anchors = (
{
name = bottom;
position = "{400, 0}";
},
{
name = ogonek;
position = "{701, 0}";
},
{
name = top;
position = "{400, 700}";
},
{
name = topleft;
position = "{76, 700}";
}
);
layerId = "16BDD2A6-1A19-40B6-80C2-67966448469B";
paths = (
{
closed = 1;
nodes = (
"197 0 LINE",
"197 403 LINE SMOOTH",
"197 550 OFFCURVE",
"275 622 OFFCURVE",
"399 622 CURVE SMOOTH",
"523 622 OFFCURVE",
"601 550 OFFCURVE",
"601 403 CURVE SMOOTH",
"601 0 LINE",
"701 0 LINE",
"701 394 LINE SMOOTH",
"701 600 OFFCURVE",
"580 708 OFFCURVE",
"400 708 CURVE SMOOTH",
"219 708 OFFCURVE",
"99 600 OFFCURVE",
"99 394 CURVE SMOOTH",
"99 0 LINE"
);
},
{
closed = 1;
nodes = (
"638 196 LINE",
"638 277 LINE",
"162 277 LINE",
"162 196 LINE"
);
}
);
width = 800;
}
);
leftKerningGroup = A.ss01;
leftMetricsKey = U;
rightKerningGroup = A.ss01;
rightMetricsKey = "=|";
},
{
glyphname = E.ss01;
lastChange = "2017-09-14 22:08:27 +0000";
layers = (
{
anchors = (
{
name = bottom;
position = "{349, 0}";
},
{
name = ogonek;
position = "{592, 0}";
},
{
name = top;
position = "{349, 700}";
},
{
name = topleft;
position = "{41, 700}";
}
);
layerId = "16BDD2A6-1A19-40B6-80C2-67966448469B";
paths = (
{
closed = 1;
nodes = (
"462 -8 OFFCURVE",
"565 23 OFFCURVE",
"626 74 CURVE",
"591 149 LINE",
"536 102 OFFCURVE",
"446 74 OFFCURVE",
"352 74 CURVE SMOOTH",
"213 74 OFFCURVE",
"150 124 OFFCURVE",
"150 198 CURVE SMOOTH",
"150 276 OFFCURVE",
"217 315 OFFCURVE",
"318 315 CURVE SMOOTH",
"503 315 LINE",
"503 394 LINE",
"324 394 LINE SMOOTH",
"231 394 OFFCURVE",
"180 435 OFFCURVE",
"180 506 CURVE SMOOTH",
"180 575 OFFCURVE",
"241 626 OFFCURVE",
"367 626 CURVE SMOOTH",
"438 626 OFFCURVE",
"505 610 OFFCURVE",
"567 577 CURVE",
"597 654 LINE",
"537 688 OFFCURVE",
"451 708 OFFCURVE",
"363 708 CURVE SMOOTH",
"172 708 OFFCURVE",
"79 617 OFFCURVE",
"79 512 CURVE SMOOTH",
"79 413 OFFCURVE",
"152 343 OFFCURVE",
"286 343 CURVE",
"282 371 LINE",
"144 371 OFFCURVE",
"50 303 OFFCURVE",
"50 191 CURVE SMOOTH",
"50 76 OFFCURVE",
"151 -8 OFFCURVE",
"348 -8 CURVE SMOOTH"
);
}
);
width = 643;
}
);
leftKerningGroup = E.ss01;
leftMetricsKey = "=|B";
rightKerningGroup = E.ss01;
},
{
glyphname = Eogonek.ss01;
lastChange = "2017-09-14 22:08:27 +0000";
layers = (
{
anchors = (
{
name = bottom;
position = "{349, 0}";
},
{
name = top;
position = "{349, 700}";
},
{
name = topleft;
position = "{41, 700}";
}
);
layerId = "16BDD2A6-1A19-40B6-80C2-67966448469B";
paths = (
{
closed = 1;
nodes = (
"558 -224 OFFCURVE",
"590 -215 OFFCURVE",
"613 -198 CURVE",
"596 -153 LINE",
"580 -165 OFFCURVE",
"558 -172 OFFCURVE",
"535 -172 CURVE SMOOTH",
"496 -172 OFFCURVE",
"471 -151 OFFCURVE",
"471 -115 CURVE SMOOTH",
"471 -72 OFFCURVE",
"501 -12 OFFCURVE",
"625 73 CURVE",
"591 149 LINE",
"536 105 OFFCURVE",
"446 74 OFFCURVE",
"352 74 CURVE SMOOTH",
"213 74 OFFCURVE",
"150 124 OFFCURVE",
"150 198 CURVE SMOOTH",
"150 276 OFFCURVE",
"217 315 OFFCURVE",
"318 315 CURVE SMOOTH",
"503 315 LINE",
"503 394 LINE",
"324 394 LINE SMOOTH",
"231 394 OFFCURVE",
"180 435 OFFCURVE",
"180 506 CURVE SMOOTH",
"180 575 OFFCURVE",
"241 626 OFFCURVE",
"367 626 CURVE SMOOTH",
"438 626 OFFCURVE",
"505 610 OFFCURVE",
"567 577 CURVE",
"597 654 LINE",
"537 688 OFFCURVE",
"451 708 OFFCURVE",
"363 708 CURVE SMOOTH",
"172 708 OFFCURVE",
"79 617 OFFCURVE",
"79 512 CURVE SMOOTH",
"79 438 OFFCURVE",
"120 383 OFFCURVE",
"194 358 CURVE",
"107 336 OFFCURVE",
"50 277 OFFCURVE",
"50 191 CURVE SMOOTH",
"50 76 OFFCURVE",
"151 -8 OFFCURVE",
"348 -8 CURVE SMOOTH",
"407 -8 OFFCURVE",
"460 1 OFFCURVE",
"509 18 CURVE",
"509 35 LINE",
"435 -21 OFFCURVE",
"409 -74 OFFCURVE",
"409 -124 CURVE SMOOTH",
"409 -185 OFFCURVE",
"455 -224 OFFCURVE",
"524 -224 CURVE SMOOTH"
);
}
);
width = 643;
}
);
leftKerningGroup = E.ss01;
leftMetricsKey = E.ss01;
widthMetricsKey = E.ss01;
rightKerningGroup = E.ss01;
},
{
glyphname = F.ss01;
lastChange = "2017-09-14 22:08:18 +0000";
layers = (
{
layerId = "16BDD2A6-1A19-40B6-80C2-67966448469B";
paths = (
{
closed = 1;
nodes = (
"199 0 LINE",
"199 450 LINE SMOOTH",
"199 561 OFFCURVE",
"262 622 OFFCURVE",
"393 622 CURVE SMOOTH",
"453 622 OFFCURVE",
"511 608 OFFCURVE",
"558 575 CURVE",
"591 654 LINE",
"539 690 OFFCURVE",
"466 708 OFFCURVE",
"385 708 CURVE SMOOTH",
"196 708 OFFCURVE",
"99 609 OFFCURVE",
"99 450 CURVE SMOOTH",
"99 0 LINE"
);
},
{
closed = 1;
nodes = (
"519 286 LINE",
"519 367 LINE",
"163 367 LINE",
"163 286 LINE"
);
}
);
width = 606;
}
);
leftKerningGroup = A.ss01;
leftMetricsKey = U;
rightKerningGroup = F.ss01;
},
{
color = 8;
glyphname = G.ss01;
lastChange = "2017-09-14 22:08:18 +0000";
layers = (
{
anchors = (
{
name = bottom;
position = "{405, 1}";
},
{
name = top;
position = "{410, 701}";
}
);
layerId = "16BDD2A6-1A19-40B6-80C2-67966448469B";
paths = (
{
closed = 1;
nodes = (
"510 -8 OFFCURVE",
"599 33 OFFCURVE",
"659 118 CURVE",
"618 171 LINE",
"566 106 OFFCURVE",
"488 75 OFFCURVE",
"411 75 CURVE SMOOTH",
"274 75 OFFCURVE",
"149 172 OFFCURVE",
"149 347 CURVE SMOOTH",
"149 508 OFFCURVE",
"265 622 OFFCURVE",
"427 622 CURVE SMOOTH",
"505 622 OFFCURVE",
"573 598 OFFCURVE",
"629 541 CURVE",
"693 601 LINE",
"628 671 OFFCURVE",
"533 708 OFFCURVE",
"422 708 CURVE SMOOTH",
"206 708 OFFCURVE",
"48 557 OFFCURVE",
"48 346 CURVE SMOOTH",
"48 118 OFFCURVE",
"216 -8 OFFCURVE",
"403 -8 CURVE SMOOTH"
);
},
{
closed = 1;
nodes = (
"685 0 LINE",
"685 352 LINE",
"597 352 LINE",
"597 106 LINE",
"608 93 LINE",
"608 0 LINE"
);
}
);
width = 772;
}
);
leftKerningGroup = O;
leftMetricsKey = O;
rightKerningGroup = G;
},
{
glyphname = I.ss01;
lastChange = "2017-09-14 22:08:18 +0000";
layers = (
{
anchors = (
{
name = bottom;
position = "{228, 0}";
},
{
name = ogonek;
position = "{278, 0}";
},
{
name = top;
position = "{228, 700}";
},
{
name = topleft;
position = "{-3, 700}";
}
);
layerId = "16BDD2A6-1A19-40B6-80C2-67966448469B";
paths = (
{
closed = 1;
nodes = (
"278 14 LINE",
"278 686 LINE",
"178 686 LINE",
"178 14 LINE"
);
},
{
closed = 1;
nodes = (
"414 0 LINE",
"414 81 LINE",
"43 81 LINE",
"43 0 LINE"
);
},
{
closed = 1;
nodes = (
"414 619 LINE",
"414 700 LINE",
"43 700 LINE",
"43 619 LINE"
);
}
);
width = 457;
}
);
leftKerningGroup = I.ss01;
rightKerningGroup = I.ss01;
rightMetricsKey = "=|";
},
{
glyphname = IJ.ss01;
lastChange = "2017-09-14 22:08:18 +0000";
layers = (
{
anchors = (
{
name = top;
position = "{168, 700}";
}
);
layerId = "16BDD2A6-1A19-40B6-80C2-67966448469B";
paths = (
{
closed = 1;
nodes = (
"504 -106 OFFCURVE",
"621 1 OFFCURVE",
"621 208 CURVE SMOOTH",
"621 700 LINE",
"521 700 LINE",
"521 202 LINE SMOOTH",
"521 50 OFFCURVE",
"449 -22 OFFCURVE",
"324 -22 CURVE SMOOTH",
"255 -22 OFFCURVE",
"184 1 OFFCURVE",
"126 42 CURVE",
"87 -33 LINE",
"148 -76 OFFCURVE",
"233 -106 OFFCURVE",
"327 -106 CURVE SMOOTH"
);
},
{
closed = 1;
nodes = (
"199 208 LINE",
"199 700 LINE",
"99 700 LINE",
"99 208 LINE"
);
}
);
width = 720;
}
);
leftKerningGroup = H;
leftMetricsKey = IJ;
rightKerningGroup = J.ss01;
rightMetricsKey = IJ;
},
{
glyphname = J.ss01;
lastChange = "2017-09-14 22:08:18 +0000";
layers = (
{
anchors = (
{
name = top;
position = "{238, 700}";
}
);
layerId = "16BDD2A6-1A19-40B6-80C2-67966448469B";
paths = (
{
closed = 1;
nodes = (
"340 -108 OFFCURVE",
"414 -31 OFFCURVE",
"414 124 CURVE SMOOTH",
"414 700 LINE",
"62 700 LINE",
"62 619 LINE",
"315 619 LINE",
"315 119 LINE SMOOTH",
"315 23 OFFCURVE",
"274 -24 OFFCURVE",
"192 -24 CURVE SMOOTH",
"136 -24 OFFCURVE",
"87 5 OFFCURVE",
"49 59 CURVE",
"-6 -7 LINE",
"38 -71 OFFCURVE",
"114 -108 OFFCURVE",
"199 -108 CURVE SMOOTH"
);
}
);
width = 513;
}
);
leftKerningGroup = J.ss01;
leftMetricsKey = J;
rightKerningGroup = J.ss01;
rightMetricsKey = J;
},
{
glyphname = M.ss01;
lastChange = "2017-09-14 22:08:18 +0000";
layers = (
{
anchors = (
{
name = bottom;
position = "{570, 0}";
},
{
name = top;
position = "{570, 700}";
}
);
layerId = "16BDD2A6-1A19-40B6-80C2-67966448469B";
paths = (
{
closed = 1;
nodes = (
"1034 0 LINE",
"1034 435 LINE SMOOTH",
"1034 615 OFFCURVE",
"946 708 OFFCURVE",
"804 708 CURVE SMOOTH",
"663 708 OFFCURVE",
"569 614 OFFCURVE",
"569 419 CURVE SMOOTH",
"569 318 LINE",
"620 318 LINE",
"620 417 LINE SMOOTH",
"620 561 OFFCURVE",
"680 622 OFFCURVE",
"778 622 CURVE SMOOTH",
"877 622 OFFCURVE",
"935 562 OFFCURVE",
"935 432 CURVE SMOOTH",
"935 0 LINE"
);
},
{
closed = 1;
nodes = (
"205 0 LINE",
"205 487 LINE",
"202 508 LINE",
"202 700 LINE",
"105 700 LINE",
"105 0 LINE"
);
},
{
closed = 1;
nodes = (
"620 0 LINE",
"620 435 LINE SMOOTH",
"620 615 OFFCURVE",
"533 708 OFFCURVE",
"396 708 CURVE SMOOTH",
"253 708 OFFCURVE",
"170 610 OFFCURVE",
"170 413 CURVE SMOOTH",
"170 300 LINE",
"205 300 LINE",
"205 417 LINE SMOOTH",
"205 561 OFFCURVE",
"265 622 OFFCURVE",
"363 622 CURVE SMOOTH",
"462 622 OFFCURVE",
"520 562 OFFCURVE",
"520 432 CURVE SMOOTH",
"520 0 LINE"
);
}
);
width = 1133;
}
);
leftKerningGroup = H;
leftMetricsKey = H;
rightKerningGroup = N.ss01;
rightMetricsKey = U;
},
{
glyphname = N.ss01;
lastChange = "2017-09-14 22:08:18 +0000";
layers = (
{
anchors = (
{
name = bottom;
position = "{401, 0}";
},
{
name = top;
position = "{402, 700}";
}
);
layerId = "16BDD2A6-1A19-40B6-80C2-67966448469B";
paths = (
{
closed = 1;
nodes = (
"699 0 LINE",
"699 415 LINE SMOOTH",
"699 605 OFFCURVE",
"598 708 OFFCURVE",
"433 708 CURVE SMOOTH",
"267 708 OFFCURVE",
"167 600 OFFCURVE",
"167 399 CURVE SMOOTH",
"167 300 LINE",
"205 300 LINE",
"205 397 LINE SMOOTH",
"205 550 OFFCURVE",
"280 622 OFFCURVE",
"403 622 CURVE SMOOTH",
"527 622 OFFCURVE",
"599 552 OFFCURVE",
"599 412 CURVE SMOOTH",
"599 0 LINE"
);
},
{
closed = 1;
nodes = (
"205 0 LINE",
"205 487 LINE",
"202 508 LINE",
"202 700 LINE",
"105 700 LINE",
"105 0 LINE"
);
}
);
width = 798;
}
);
leftKerningGroup = H;
leftMetricsKey = H;
rightKerningGroup = N.ss01;
rightMetricsKey = U;
},
{
glyphname = Eng.ss01;
lastChange = "2017-09-14 22:08:18 +0000";
layers = (
{
layerId = "16BDD2A6-1A19-40B6-80C2-67966448469B";
paths = (
{
closed = 1;
nodes = (
"624 -200 OFFCURVE",
"699 -123 OFFCURVE",
"699 32 CURVE SMOOTH",
"699 415 LINE SMOOTH",
"699 605 OFFCURVE",
"598 708 OFFCURVE",
"433 708 CURVE SMOOTH",
"267 708 OFFCURVE",
"167 600 OFFCURVE",
"167 399 CURVE SMOOTH",
"167 300 LINE",
"205 300 LINE",
"205 397 LINE SMOOTH",
"205 550 OFFCURVE",
"280 622 OFFCURVE",
"403 622 CURVE SMOOTH",
"527 622 OFFCURVE",
"599 552 OFFCURVE",
"599 412 CURVE SMOOTH",
"599 29 LINE SMOOTH",
"599 -67 OFFCURVE",
"558 -114 OFFCURVE",
"476 -114 CURVE SMOOTH",
"425 -114 OFFCURVE",
"381 -91 OFFCURVE",
"349 -49 CURVE",
"300 -119 LINE",
"343 -171 OFFCURVE",
"410 -200 OFFCURVE",
"483 -200 CURVE SMOOTH"
);
},
{
closed = 1;
nodes = (
"205 0 LINE",
"205 487 LINE",
"202 508 LINE",
"202 700 LINE",
"105 700 LINE",
"105 0 LINE"
);
}
);
width = 798;
}
);
leftKerningGroup = H;
leftMetricsKey = H;
rightKerningGroup = N.ss01;
rightMetricsKey = U;
},
{
color = 8;
glyphname = Q.ss01;
lastChange = "2017-09-14 22:08:27 +0000";
layers = (
{
layerId = "16BDD2A6-1A19-40B6-80C2-67966448469B";
paths = (
{
closed = 1;
nodes = (
"634 -8 OFFCURVE",
"793 144 OFFCURVE",
"793 350 CURVE SMOOTH",
"793 556 OFFCURVE",
"634 708 OFFCURVE",
"420 708 CURVE SMOOTH",
"207 708 OFFCURVE",
"48 556 OFFCURVE",
"48 350 CURVE SMOOTH",
"48 144 OFFCURVE",
"207 -8 OFFCURVE",
"420 -8 CURVE SMOOTH"
);
},
{
closed = 1;
nodes = (
"470 -135 LINE",
"470 10 LINE",
"466 42 LINE",
"466 248 LINE",
"374 248 LINE",
"374 42 LINE",
"370 10 LINE",
"370 -135 LINE"
);
},
{
closed = 1;
nodes = (
"261 78 OFFCURVE",
"148 191 OFFCURVE",
"148 350 CURVE SMOOTH",
"148 508 OFFCURVE",
"266 622 OFFCURVE",
"420 622 CURVE SMOOTH",
"574 622 OFFCURVE",
"692 508 OFFCURVE",
"692 350 CURVE SMOOTH",
"692 191 OFFCURVE",
"579 78 OFFCURVE",
"420 78 CURVE SMOOTH"
);
}
);
width = 841;
}
);
leftKerningGroup = O;
leftMetricsKey = O;
rightKerningGroup = O;
rightMetricsKey = O;
},
{
color = 8;
glyphname = Schwa.ss01;
lastChange = "2017-09-14 22:08:18 +0000";
layers = (
{
anchors = (
{
name = bottom;
position = "{408, 0}";
},
{
name = top;
position = "{408, 700}";
}
);
layerId = "16BDD2A6-1A19-40B6-80C2-67966448469B";
paths = (
{
closed = 1;
nodes = (
"612 -8 OFFCURVE",
"769 148 OFFCURVE",
"769 350 CURVE SMOOTH",
"769 557 OFFCURVE",
"611 708 OFFCURVE",
"395 708 CURVE SMOOTH",
"289 708 OFFCURVE",
"188 668 OFFCURVE",
"124 605 CURVE",
"182 541 LINE",
"240 596 OFFCURVE",
"319 622 OFFCURVE",
"394 622 CURVE SMOOTH",
"551 622 OFFCURVE",
"668 507 OFFCURVE",
"668 355 CURVE SMOOTH",
"668 335 LINE SMOOTH",
"668 183 OFFCURVE",
"556 71 OFFCURVE",
"408 71 CURVE SMOOTH",
"288 71 OFFCURVE",
"208 135 OFFCURVE",
"178 238 CURVE",
"144 174 LINE",
"687 398 LINE",
"665 467 LINE",
"72 224 LINE",
"121 82 OFFCURVE",
"247 -8 OFFCURVE",
"408 -8 CURVE SMOOTH"
);
}
);
width = 817;
}
);
leftKerningGroup = O;
widthMetricsKey = Schwa;
rightKerningGroup = O;
rightMetricsKey = O;
},
{
glyphname = T.ss01;
lastChange = "2017-09-14 22:08:18 +0000";
layers = (
{
anchors = (
{
name = bottom;
position = "{299, 0}";
},
{
name = center;
position = "{299, 331}";
},
{
name = top;
position = "{301, 700}";
}
);
layerId = "16BDD2A6-1A19-40B6-80C2-67966448469B";
paths = (
{
closed = 1;
nodes = (
"114 601 OFFCURVE",
"204 623 OFFCURVE",
"298 623 CURVE SMOOTH",
"393 623 OFFCURVE",
"484 601 OFFCURVE",
"567 553 CURVE",
"602 628 LINE",
"510 683 OFFCURVE",
"404 708 OFFCURVE",
"298 708 CURVE SMOOTH",
"193 708 OFFCURVE",
"88 683 OFFCURVE",
"-4 628 CURVE",
"31 553 LINE"
);
},
{
closed = 1;
nodes = (
"349 0 LINE",
"349 657 LINE",
"249 657 LINE",
"249 0 LINE"
);
}
);
width = 598;
}
);
leftKerningGroup = T.ss01;
rightKerningGroup = T.ss01;
},
{
glyphname = U.ss01;
lastChange = "2017-09-14 22:08:18 +0000";
layers = (
{
anchors = (
{
name = bottom;
position = "{396, 0}";
},
{
name = ogonek;
position = "{693, 0}";
},
{
name = top;
position = "{396, 700}";
},
{
name = topright;
position = "{657, 700}";
}
);
layerId = "16BDD2A6-1A19-40B6-80C2-67966448469B";
paths = (
{
closed = 1;
nodes = (
"531 -8 OFFCURVE",
"631 100 OFFCURVE",
"631 301 CURVE SMOOTH",
"631 400 LINE",
"593 400 LINE",
"593 303 LINE SMOOTH",
"593 150 OFFCURVE",
"518 78 OFFCURVE",
"395 78 CURVE SMOOTH",
"271 78 OFFCURVE",
"199 148 OFFCURVE",
"199 288 CURVE SMOOTH",
"199 700 LINE",
"99 700 LINE",
"99 285 LINE SMOOTH",
"99 95 OFFCURVE",
"199 -8 OFFCURVE",
"369 -8 CURVE SMOOTH"
);
},
{
closed = 1;
nodes = (
"693 0 LINE",
"693 700 LINE",
"593 700 LINE",
"593 213 LINE",
"596 192 LINE",
"596 0 LINE"
);
}
);
width = 798;
}
);
leftKerningGroup = U;
leftMetricsKey = U;
rightKerningGroup = H;
rightMetricsKey = H;
},
{
glyphname = Y.ss01;
lastChange = "2017-09-14 22:08:18 +0000";
layers = (
{
anchors = (
{
name = bottom;
position = "{655, 0}";
},
{
name = top;
position = "{391, 700}";
}
);
layerId = "16BDD2A6-1A19-40B6-80C2-67966448469B";
paths = (
{
closed = 1;
nodes = (
"571 -106 OFFCURVE",
"688 1 OFFCURVE",
"688 208 CURVE SMOOTH",
"688 700 LINE",
"588 700 LINE",
"588 203 LINE SMOOTH",
"588 51 OFFCURVE",
"517 -21 OFFCURVE",
"381 -21 CURVE SMOOTH",
"289 -21 OFFCURVE",
"212 10 OFFCURVE",
"151 72 CURVE",
"110 -2 LINE",
"173 -67 OFFCURVE",
"266 -106 OFFCURVE",
"385 -106 CURVE SMOOTH"
);
},
{
closed = 1;
nodes = (
"526 174 OFFCURVE",
"626 278 OFFCURVE",
"626 478 CURVE SMOOTH",
"626 578 LINE",
"588 578 LINE",
"588 481 LINE SMOOTH",
"588 328 OFFCURVE",
"513 260 OFFCURVE",
"390 260 CURVE SMOOTH",
"263 260 OFFCURVE",
"194 329 OFFCURVE",
"194 466 CURVE SMOOTH",
"194 700 LINE",
"94 700 LINE",
"94 458 LINE SMOOTH",
"94 273 OFFCURVE",
"194 174 OFFCURVE",
"364 174 CURVE SMOOTH"
);
}
);
width = 787;
}
);
leftKerningGroup = Y.ss01;
leftMetricsKey = "=U-5";
rightKerningGroup = U;
rightMetricsKey = U;
},
{
glyphname = Z.ss01;
lastChange = "2017-09-14 22:08:18 +0000";
layers = (
{
anchors = (
{
name = bottom;
position = "{344, 0}";
},
{
name = top;
position = "{338, 700}";
}
);
layerId = "16BDD2A6-1A19-40B6-80C2-67966448469B";
paths = (
{
closed = 1;
nodes = (
"633 0 LINE",
"633 81 LINE",
"139 81 LINE",
"151 54 LINE",
"618 641 LINE",
"618 700 LINE",
"52 700 LINE",
"52 619 LINE",
"527 619 LINE",
"515 646 LINE",
"48 60 LINE",
"48 0 LINE"
);
},
{
closed = 1;
nodes = (
"302 319 LINE",
"329 318 LINE",
"556 318 LINE",
"556 392 LINE",
"378 392 LINE",
"351 393 LINE",
"108 393 LINE",
"108 319 LINE"
);
}
);
width = 667;
}
);
leftKerningGroup = Z;
leftMetricsKey = "=Z+5";
rightKerningGroup = Z;
rightMetricsKey = "=Z+5";
},
{
color = 3;
glyphname = a.sc;
lastChange = "2017-09-14 22:08:18 +0000";
layers = (
{
anchors = (
{
name = bottom;
position = "{307, 0}";
},
{
name = ogonek;
position = "{615, 0}";
},
{
name = top;
position = "{307, 568}";
},
{
name = topleft;
position = "{95, 568}";
}
);
layerId = "16BDD2A6-1A19-40B6-80C2-67966448469B";
paths = (
{
closed = 1;
nodes = (
"94 0 LINE",
"324 518 LINE",
"291 518 LINE",
"518 0 LINE",
"615 0 LINE",
"355 568 LINE",
"259 568 LINE",
"-1 0 LINE"
);
},
{
closed = 1;
nodes = (
"482 137 LINE",
"455 211 LINE",
"145 211 LINE",
"118 137 LINE"
);
}
);
width = 614;
}
);
leftKerningGroup = a.sc;
rightKerningGroup = a.sc;
rightMetricsKey = "=|";
userData = {
RMXScaler = {
source = A;
};
};
},
{
color = 3;
glyphname = ae.sc;
lastChange = "2017-09-14 22:08:27 +0000";
layers = (
{
anchors = (
{
name = bottom;
position = "{450, 0}";
},
{
name = top;
position = "{450, 568}";
}
);
layerId = "16BDD2A6-1A19-40B6-80C2-67966448469B";
paths = (
{
closed = 1;
nodes = (
"99 0 LINE",
"409 529 LINE",
"349 491 LINE",
"435 491 LINE",
"435 568 LINE",
"336 568 LINE",
"-1 0 LINE"
);
},
{
closed = 1;
nodes = (
"435 137 LINE",
"435 211 LINE",
"160 211 LINE",
"156 137 LINE"
);
},
{
closed = 1;
nodes = (
"829 0 LINE",
"829 76 LINE",
"498 76 LINE",
"498 252 LINE",
"781 252 LINE",
"781 324 LINE",
"498 324 LINE",
"498 492 LINE",
"817 492 LINE",
"817 568 LINE",
"402 568 LINE",
"402 0 LINE"
);
}
);
width = 876;
}
);
leftKerningGroup = a.sc;
leftMetricsKey = a.sc;
rightKerningGroup = e.sc;
rightMetricsKey = e.sc;
userData = {
RMXScaler = {
source = AE;
};
};
},
{
glyphname = b.sc;
lastChange = "2017-09-14 22:08:18 +0000";
layers = (
{
anchors = (
{
name = bottom;
position = "{328, 0}";
},
{
name = top;
position = "{328, 568}";
}
);
layerId = "16BDD2A6-1A19-40B6-80C2-67966448469B";
paths = (
{
closed = 1;
nodes = (
"377 0 LINE",
"526 0 OFFCURVE",
"602 55 OFFCURVE",
"602 152 CURVE SMOOTH",
"602 250 OFFCURVE",
"529 304 OFFCURVE",
"397 304 CURVE",
"382 277 LINE",
"499 277 OFFCURVE",
"572 332 OFFCURVE",
"572 422 CURVE SMOOTH",
"572 513 OFFCURVE",
"497 568 OFFCURVE",
"361 568 CURVE SMOOTH",
"97 568 LINE",
"97 0 LINE"
);
},
{
closed = 1;
nodes = (
"193 255 LINE",
"372 255 LINE SMOOTH",
"458 255 OFFCURVE",
"504 226 OFFCURVE",
"504 163 CURVE SMOOTH",
"504 101 OFFCURVE",
"458 71 OFFCURVE",
"372 71 CURVE SMOOTH",
"193 71 LINE"
);
},
{
closed = 1;
nodes = (
"193 497 LINE",
"351 497 LINE SMOOTH",
"430 497 OFFCURVE",
"475 466 OFFCURVE",
"475 408 CURVE SMOOTH",
"475 351 OFFCURVE",
"430 320 OFFCURVE",
"351 320 CURVE SMOOTH",
"193 320 LINE"
);
}
);
width = 644;
}
);
leftKerningGroup = h.sc;
leftMetricsKey = h.sc;
rightKerningGroup = b.sc;
userData = {
RMXScaler = {
source = B;
};
};
},
{
glyphname = c.sc;
lastChange = "2017-09-14 22:08:18 +0000";
layers = (
{
anchors = (
{
name = bottom;
position = "{337, 0}";
},
{
name = top;
position = "{346, 568}";
}
);
layerId = "16BDD2A6-1A19-40B6-80C2-67966448469B";
paths = (
{
closed = 1;
nodes = (
"443 -8 OFFCURVE",
"520 20 OFFCURVE",
"576 85 CURVE",
"514 142 LINE",
"469 95 OFFCURVE",
"416 75 OFFCURVE",
"355 75 CURVE SMOOTH",
"234 75 OFFCURVE",
"142 162 OFFCURVE",
"142 284 CURVE SMOOTH",
"142 406 OFFCURVE",
"234 494 OFFCURVE",
"355 494 CURVE SMOOTH",
"416 494 OFFCURVE",
"469 474 OFFCURVE",
"514 427 CURVE",
"576 484 LINE",
"520 548 OFFCURVE",
"443 576 OFFCURVE",
"352 576 CURVE SMOOTH",
"176 576 OFFCURVE",
"44 452 OFFCURVE",
"44 284 CURVE SMOOTH",
"44 116 OFFCURVE",
"176 -8 OFFCURVE",
"352 -8 CURVE SMOOTH"
);
}
);
width = 609;
}
);
leftKerningGroup = o.sc;
leftMetricsKey = o.sc;
rightKerningGroup = c.sc;
userData = {
RMXScaler = {
source = C;
};
};
},
{
glyphname = d.sc;
lastChange = "2017-09-14 22:08:18 +0000";
layers = (
{
anchors = (
{
name = bottom;
position = "{328, 0}";
},
{
name = center;
position = "{182, 288}";
},
{
name = top;
position = "{325, 568}";
}
);
layerId = "16BDD2A6-1A19-40B6-80C2-67966448469B";
paths = (
{
closed = 1;
nodes = (
"344 0 LINE",
"536 0 OFFCURVE",
"658 114 OFFCURVE",
"658 284 CURVE SMOOTH",
"658 453 OFFCURVE",
"536 568 OFFCURVE",
"344 568 CURVE SMOOTH",
"97 568 LINE",
"97 0 LINE"
);
},
{
closed = 1;
nodes = (
"194 489 LINE",
"340 489 LINE SMOOTH",
"478 489 OFFCURVE",
"560 407 OFFCURVE",
"560 284 CURVE SMOOTH",
"560 161 OFFCURVE",
"478 79 OFFCURVE",
"340 79 CURVE SMOOTH",
"194 79 LINE"
);
}
);
width = 702;
}
);
leftKerningGroup = h.sc;
leftMetricsKey = h.sc;
rightKerningGroup = o.sc;
rightMetricsKey = o.sc;
userData = {
RMXScaler = {
source = D;
};
};
},
{
glyphname = e.sc;
lastChange = "2017-09-14 22:08:18 +0000";
layers = (
{
anchors = (
{
name = bottom;
position = "{313, 0}";
},
{
name = ogonek;
position = "{523, 0}";
},
{
name = top;
position = "{305, 568}";
},
{
name = topleft;
position = "{30, 568}";
}
);
layerId = "16BDD2A6-1A19-40B6-80C2-67966448469B";
paths = (
{
closed = 1;
nodes = (
"523 0 LINE",
"523 76 LINE",
"193 76 LINE",
"193 252 LINE",
"476 252 LINE",
"476 324 LINE",
"193 324 LINE",
"193 492 LINE",
"512 492 LINE",
"512 568 LINE",
"97 568 LINE",
"97 0 LINE"
);
}
);
width = 570;
}
);
leftKerningGroup = h.sc;
leftMetricsKey = h.sc;
rightKerningGroup = e.sc;
userData = {
RMXScaler = {
source = E;
};
};
},
{
glyphname = f.sc;
lastChange = "2017-09-14 22:08:18 +0000";
layers = (
{
layerId = "16BDD2A6-1A19-40B6-80C2-67966448469B";
paths = (
{
closed = 1;
nodes = (
"194 0 LINE",
"194 225 LINE",
"476 225 LINE",
"476 301 LINE",
"194 301 LINE",
"194 492 LINE",
"512 492 LINE",
"512 568 LINE",
"97 568 LINE",
"97 0 LINE"
);
}
);
width = 544;
}
);
leftKerningGroup = h.sc;
leftMetricsKey = h.sc;
rightKerningGroup = f.sc;
userData = {
RMXScaler = {
source = F;
};
};
},
{
glyphname = g.sc;
lastChange = "2017-09-14 22:08:18 +0000";
layers = (
{
anchors = (
{
name = bottom;
position = "{341, 0}";
},
{
name = top;
position = "{346, 568}";
}
);
layerId = "16BDD2A6-1A19-40B6-80C2-67966448469B";
paths = (
{
closed = 1;
nodes = (
"576 65 CURVE",
"521 133 LINE",
"474 91 OFFCURVE",
"419 75 OFFCURVE",
"358 75 CURVE SMOOTH",
"232 75 OFFCURVE",
"142 163 OFFCURVE",
"142 284 CURVE SMOOTH",
"142 406 OFFCURVE",
"234 494 OFFCURVE",
"359 494 CURVE SMOOTH",
"421 494 OFFCURVE",
"474 475 OFFCURVE",
"520 428 CURVE",
"583 486 LINE",
"530 545 OFFCURVE",
"453 576 OFFCURVE",
"359 576 CURVE SMOOTH",
"176 576 OFFCURVE",
"44 452 OFFCURVE",
"44 284 CURVE SMOOTH",
"44 116 OFFCURVE",
"173 -8 OFFCURVE",
"357 -8 CURVE SMOOTH",
"434 -8 OFFCURVE",
"517 17 OFFCURVE"
);
},
{
closed = 1;
nodes = (
"576 65 LINE",
"576 286 LINE",
"490 286 LINE",
"490 64 LINE"
);
}
);
width = 654;
}
);
leftKerningGroup = o.sc;
leftMetricsKey = o.sc;
rightKerningGroup = g.sc;
userData = {
RMXScaler = {
source = G;
};
};
},
{
glyphname = h.sc;
lastChange = "2017-09-14 22:08:18 +0000";
layers = (
{
anchors = (
{
name = bottom;
position = "{349, 0}";
},
{
name = center;
position = "{349, 451}";
},
{
name = top;
position = "{349, 568}";
}
);
layerId = "16BDD2A6-1A19-40B6-80C2-67966448469B";
paths = (
{
closed = 1;
nodes = (
"194 0 LINE",
"194 247 LINE",
"505 247 LINE",
"505 0 LINE",
"602 0 LINE",
"602 568 LINE",
"505 568 LINE",
"505 329 LINE",
"194 329 LINE",
"194 568 LINE",
"97 568 LINE",
"97 0 LINE"
);
}
);
width = 699;
}
);
leftKerningGroup = h.sc;
rightKerningGroup = h.sc;
rightMetricsKey = "=|";
userData = {
RMXScaler = {
source = H;
};
};
},
{
glyphname = i.sc;
lastChange = "2017-09-14 22:08:18 +0000";
layers = (
{
anchors = (
{
name = bottom;
position = "{145, 0}";
},
{
name = ogonek;
position = "{194, 0}";
},
{
name = top;
position = "{145, 568}";
},
{
name = topleft;
position = "{30, 568}";
}
);
layerId = "16BDD2A6-1A19-40B6-80C2-67966448469B";
paths = (
{
closed = 1;
nodes = (
"194 0 LINE",
"194 568 LINE",
"97 568 LINE",
"97 0 LINE"
);
}
);
width = 291;
}
);
leftKerningGroup = h.sc;
leftMetricsKey = h.sc;
rightKerningGroup = h.sc;
rightMetricsKey = h.sc;
userData = {
RMXScaler = {
source = I;
};
};
},
{
glyphname = ij.sc;
lastChange = "2017-09-14 22:08:18 +0000";
layers = (
{
anchors = (
{
name = top;
position = "{153, 568}";
}
);
layerId = "16BDD2A6-1A19-40B6-80C2-67966448469B";
paths = (
{
closed = 1;
nodes = (
"434 -5 OFFCURVE",
"532 83 OFFCURVE",
"532 252 CURVE SMOOTH",
"532 568 LINE",
"435 568 LINE",
"435 247 LINE SMOOTH",
"435 129 OFFCURVE",
"376 75 OFFCURVE",
"277 75 CURVE SMOOTH",
"218 75 OFFCURVE",
"163 94 OFFCURVE",
"118 127 CURVE",
"80 54 LINE",
"131 18 OFFCURVE",
"199 -5 OFFCURVE",
"281 -5 CURVE SMOOTH"
);
},
{
closed = 1;
nodes = (
"188 253 LINE",
"188 568 LINE",
"90 568 LINE",
"90 253 LINE"
);
}
);
width = 623;
}
);
leftKerningGroup = h.sc;
rightKerningGroup = u.sc;
rightMetricsKey = u.sc;
},
{
glyphname = j.sc;
lastChange = "2017-09-14 22:08:18 +0000";
layers = (
{
anchors = (
{
name = top;
position = "{207, 568}";
}
);
layerId = "16BDD2A6-1A19-40B6-80C2-67966448469B";
paths = (
{
closed = 1;
nodes = (
"294 -8 OFFCURVE",
"359 57 OFFCURVE",
"359 191 CURVE SMOOTH",
"359 568 LINE",
"56 568 LINE",
"56 491 LINE",
"262 491 LINE",
"262 183 LINE SMOOTH",
"262 109 OFFCURVE",
"231 73 OFFCURVE",
"166 73 CURVE SMOOTH",
"121 73 OFFCURVE",
"83 96 OFFCURVE",
"54 138 CURVE",
"-2 76 LINE",
"36 22 OFFCURVE",
"99 -8 OFFCURVE",
"172 -8 CURVE SMOOTH"
);
}
);
width = 450;
}
);
leftKerningGroup = j.sc;
rightKerningGroup = u.sc;
rightMetricsKey = u.sc;
userData = {
RMXScaler = {
source = J;
};
};
},
{
glyphname = k.sc;
lastChange = "2017-09-14 22:08:18 +0000";
layers = (
{
anchors = (
{
name = bottom;
position = "{326, 0}";
},
{
name = top;
position = "{326, 568}";
}
);
layerId = "16BDD2A6-1A19-40B6-80C2-67966448469B";
paths = (
{
closed = 1;
nodes = (
"293 248 LINE",
"348 304 LINE",
"599 568 LINE",
"491 568 LINE",
"178 247 LINE",
"183 136 LINE"
);
},
{
closed = 1;
nodes = (
"193 0 LINE",
"193 568 LINE",
"97 568 LINE",
"97 0 LINE"
);
},
{
closed = 1;
nodes = (
"615 0 LINE",
"338 334 LINE",
"274 265 LINE",
"500 0 LINE"
);
}
);
width = 620;
}
);
leftKerningGroup = h.sc;
leftMetricsKey = h.sc;
rightKerningGroup = k.sc;
userData = {
RMXScaler = {
source = K;
};
};
},
{
glyphname = l.sc;
lastChange = "2017-09-14 22:08:18 +0000";
layers = (
{
anchors = (
{
name = bottom;
position = "{307, 0}";
},
{
name = center;
position = "{145, 308}";
},
{
name = dot;
position = "{399, 323}";
},
{
name = top;
position = "{145, 568}";
},
{
name = topright;
position = "{374, 568}";
}
);
layerId = "16BDD2A6-1A19-40B6-80C2-67966448469B";
paths = (
{
closed = 1;
nodes = (
"499 0 LINE",
"499 78 LINE",
"194 78 LINE",
"194 568 LINE",
"97 568 LINE",
"97 0 LINE"
);
}
);
width = 507;
}
);
leftKerningGroup = h.sc;
leftMetricsKey = h.sc;
rightKerningGroup = l.sc;
userData = {
RMXScaler = {
source = L;
};
};
},
{
glyphname = m.sc;
lastChange = "2017-09-14 22:08:27 +0000";
layers = (
{
anchors = (
{
name = bottom;
position = "{409, 0}";
},
{
name = top;
position = "{409, 568}";
}
);
layerId = "16BDD2A6-1A19-40B6-80C2-67966448469B";
paths = (
{
closed = 1;
nodes = (
"186 0 LINE",
"186 430 LINE",
"167 430 LINE",
"386 68 LINE",
"431 68 LINE",
"646 430 LINE",
"630 430 LINE",
"631 0 LINE",
"721 0 LINE",
"720 568 LINE",
"639 568 LINE",
"390 146 LINE",
"431 146 LINE",
"177 568 LINE",
"97 568 LINE",
"97 0 LINE"
);
}
);
width = 818;
}
);
leftKerningGroup = h.sc;
leftMetricsKey = h.sc;
rightKerningGroup = h.sc;
rightMetricsKey = h.sc;
userData = {
RMXScaler = {
source = M;
};
};
},
{
glyphname = n.sc;
lastChange = "2017-09-14 22:08:18 +0000";
layers = (
{
anchors = (
{
name = bottom;
position = "{349, 0}";
},
{
name = top;
position = "{349, 568}";
}
);
layerId = "16BDD2A6-1A19-40B6-80C2-67966448469B";
paths = (
{
closed = 1;
nodes = (
"192 0 LINE",
"192 452 LINE",
"153 452 LINE",
"522 0 LINE",
"602 0 LINE",
"602 568 LINE",
"507 568 LINE",
"507 116 LINE",
"545 116 LINE",
"177 568 LINE",
"97 568 LINE",
"97 0 LINE"
);
}
);
width = 699;
}
);
leftKerningGroup = h.sc;
leftMetricsKey = h.sc;
rightKerningGroup = h.sc;
rightMetricsKey = h.sc;
userData = {
RMXScaler = {
source = N;
};
};
},
{
glyphname = eng.sc;
lastChange = "2017-09-14 22:08:18 +0000";
layers = (
{
layerId = "16BDD2A6-1A19-40B6-80C2-67966448469B";
paths = (
{
closed = 1;
nodes = (
"192 0 LINE",
"192 452 LINE",
"153 452 LINE",
"521 0 LINE",
"545 116 LINE",
"177 568 LINE",
"97 568 LINE",
"97 0 LINE"
);
},
{
closed = 1;
nodes = (
"539 -163 OFFCURVE",
"602 -94 OFFCURVE",
"602 51 CURVE SMOOTH",
"602 568 LINE",
"507 568 LINE",
"507 26 LINE SMOOTH",
"507 -48 OFFCURVE",
"475 -84 OFFCURVE",
"414 -84 CURVE SMOOTH",
"382 -84 OFFCURVE",
"354 -73 OFFCURVE",
"330 -53 CURVE",
"290 -123 LINE",
"326 -150 OFFCURVE",
"370 -163 OFFCURVE",
"420 -163 CURVE SMOOTH"
);
}
);
width = 699;
}
);
leftKerningGroup = h.sc;
leftMetricsKey = h.sc;
rightKerningGroup = h.sc;
rightMetricsKey = h.sc;
userData = {
RMXScaler = {
source = Eng;
};
};
},
{
glyphname = o.sc;
lastChange = "2017-09-14 22:08:18 +0000";
layers = (
{
anchors = (
{
name = bottom;
position = "{353, 0}";
},
{
name = center;
position = "{353, 284}";
},
{
name = ogonek;
position = "{422, 0}";
},
{
name = top;
position = "{353, 568}";
},
{
name = topleft;
position = "{46, 568}";
},
{
name = topright;
position = "{527, 568}";
}
);
layerId = "16BDD2A6-1A19-40B6-80C2-67966448469B";
paths = (
{
closed = 1;
nodes = (
"530 -8 OFFCURVE",
"662 116 OFFCURVE",
"662 284 CURVE SMOOTH",
"662 452 OFFCURVE",
"530 576 OFFCURVE",
"353 576 CURVE SMOOTH",
"176 576 OFFCURVE",
"44 452 OFFCURVE",
"44 284 CURVE SMOOTH",
"44 116 OFFCURVE",
"176 -8 OFFCURVE",
"353 -8 CURVE SMOOTH"
);
},
{
closed = 1;
nodes = (
"233 74 OFFCURVE",
"142 163 OFFCURVE",
"142 284 CURVE SMOOTH",
"142 405 OFFCURVE",
"233 494 OFFCURVE",
"353 494 CURVE SMOOTH",
"474 494 OFFCURVE",
"564 405 OFFCURVE",
"564 284 CURVE SMOOTH",
"564 163 OFFCURVE",
"474 74 OFFCURVE",
"353 74 CURVE SMOOTH"
);
}
);
width = 706;
}
);
leftKerningGroup = o.sc;
rightKerningGroup = o.sc;
rightMetricsKey = "=|";
userData = {
RMXScaler = {
source = O;
};
};
},
{
glyphname = oe.sc;
lastChange = "2017-09-14 22:08:18 +0000";
layers = (
{
anchors = (
{
name = bottom;
position = "{513, 0}";
},
{
name = top;
position = "{513, 568}";
}
);
layerId = "16BDD2A6-1A19-40B6-80C2-67966448469B";
paths = (
{
closed = 1;
nodes = (
"491 0 LINE",
"491 78 LINE",
"366 78 LINE SMOOTH",
"231 78 OFFCURVE",
"142 161 OFFCURVE",
"142 284 CURVE SMOOTH",
"142 406 OFFCURVE",
"231 489 OFFCURVE",
"366 489 CURVE SMOOTH",
"491 489 LINE",
"491 568 LINE",
"366 568 LINE SMOOTH",
"170 568 OFFCURVE",
"44 453 OFFCURVE",
"44 284 CURVE SMOOTH",
"44 114 OFFCURVE",
"170 0 OFFCURVE",
"366 0 CURVE SMOOTH"
);
},
{
closed = 1;
nodes = (
"892 0 LINE",
"892 76 LINE",
"561 76 LINE",
"561 252 LINE",
"845 252 LINE",
"845 324 LINE",
"561 324 LINE",
"561 492 LINE",
"880 492 LINE",
"880 568 LINE",
"465 568 LINE",
"465 0 LINE"
);
}
);
width = 939;
}
);
leftKerningGroup = o.sc;
leftMetricsKey = o.sc;
rightKerningGroup = e.sc;
rightMetricsKey = e.sc;
userData = {
RMXScaler = {
source = OE;
};
};
},
{
glyphname = ohorn.sc;
lastChange = "2017-09-14 22:08:18 +0000";
layers = (
{
anchors = (
{
name = bottom;
position = "{353, 0}";
},
{
name = top;
position = "{353, 568}";
}
);
layerId = "16BDD2A6-1A19-40B6-80C2-67966448469B";
paths = (
{
closed = 1;
nodes = (
"531 -8 OFFCURVE",
"662 116 OFFCURVE",
"662 284 CURVE SMOOTH",
"662 394 OFFCURVE",
"601 488 OFFCURVE",
"509 531 CURVE",
"406 512 LINE",
"439 508 OFFCURVE",
"479 502 OFFCURVE",
"513 502 CURVE SMOOTH",
"605 502 OFFCURVE",
"657 543 OFFCURVE",
"657 619 CURVE SMOOTH",
"657 647 OFFCURVE",
"648 673 OFFCURVE",
"634 693 CURVE",
"570 672 LINE",
"580 658 OFFCURVE",
"586 641 OFFCURVE",
"586 621 CURVE SMOOTH",
"586 584 OFFCURVE",
"560 564 OFFCURVE",
"512 564 CURVE SMOOTH",
"467 564 OFFCURVE",
"422 576 OFFCURVE",
"357 576 CURVE SMOOTH",
"176 576 OFFCURVE",
"44 452 OFFCURVE",
"44 284 CURVE SMOOTH",
"44 116 OFFCURVE",
"176 -8 OFFCURVE",
"353 -8 CURVE SMOOTH"
);
},
{
closed = 1;
nodes = (
"234 74 OFFCURVE",
"142 160 OFFCURVE",
"142 284 CURVE SMOOTH",
"142 407 OFFCURVE",
"234 494 OFFCURVE",
"353 494 CURVE SMOOTH",
"472 494 OFFCURVE",
"564 407 OFFCURVE",
"564 284 CURVE SMOOTH",
"564 160 OFFCURVE",
"472 74 OFFCURVE",
"353 74 CURVE SMOOTH"
);
}
);
width = 706;
}
);
leftKerningGroup = o.sc;
leftMetricsKey = o.sc;
widthMetricsKey = o.sc;
rightKerningGroup = o.sc;
},
{
glyphname = p.sc;
lastChange = "2017-09-14 22:08:18 +0000";
layers = (
{
layerId = "16BDD2A6-1A19-40B6-80C2-67966448469B";
paths = (
{
closed = 1;
nodes = (
"194 0 LINE",
"194 212 LINE",
"150 169 LINE",
"329 169 LINE SMOOTH",
"479 169 OFFCURVE",
"572 244 OFFCURVE",
"572 368 CURVE SMOOTH",
"572 493 OFFCURVE",
"479 568 OFFCURVE",
"329 568 CURVE SMOOTH",
"97 568 LINE",
"97 0 LINE"
);
},
{
closed = 1;
nodes = (
"194 534 LINE",
"158 491 LINE",
"323 491 LINE SMOOTH",
"422 491 OFFCURVE",
"474 445 OFFCURVE",
"474 368 CURVE SMOOTH",
"474 292 OFFCURVE",
"422 246 OFFCURVE",
"323 246 CURVE SMOOTH",
"158 246 LINE",
"194 202 LINE"
);
}
);
width = 623;
}
);
leftKerningGroup = h.sc;
leftMetricsKey = h.sc;
rightKerningGroup = p.sc;
userData = {
RMXScaler = {
source = P;
};
};
},
{
glyphname = thorn.sc;
lastChange = "2017-09-14 22:08:18 +0000";
layers = (
{
layerId = "16BDD2A6-1A19-40B6-80C2-67966448469B";
paths = (
{
closed = 1;
nodes = (
"329 99 LINE SMOOTH",
"479 99 OFFCURVE",
"572 175 OFFCURVE",
"572 299 CURVE SMOOTH",
"572 423 OFFCURVE",
"479 499 OFFCURVE",
"329 499 CURVE SMOOTH",
"172 499 LINE",
"172 421 LINE",
"323 421 LINE SMOOTH",
"422 421 OFFCURVE",
"474 376 OFFCURVE",
"474 299 CURVE SMOOTH",
"474 223 OFFCURVE",
"422 177 OFFCURVE",
"323 177 CURVE SMOOTH",
"172 177 LINE",
"172 99 LINE"
);
},
{
closed = 1;
nodes = (
"194 0 LINE",
"194 568 LINE",
"97 568 LINE",
"97 0 LINE"
);
}
);
width = 623;
}
);
leftKerningGroup = h.sc;
leftMetricsKey = h.sc;
rightKerningGroup = thorn.sc;
rightMetricsKey = p.sc;
userData = {
RMXScaler = {
source = Thorn;
};
};
},
{
glyphname = q.sc;
lastChange = "2017-09-14 22:08:18 +0000";
layers = (
{
anchors = (
{
name = top;
position = "{354, 568}";
}
);
layerId = "16BDD2A6-1A19-40B6-80C2-67966448469B";
paths = (
{
closed = 1;
nodes = (
"530 -8 OFFCURVE",
"662 116 OFFCURVE",
"662 284 CURVE SMOOTH",
"662 452 OFFCURVE",
"530 576 OFFCURVE",
"353 576 CURVE SMOOTH",
"176 576 OFFCURVE",
"44 452 OFFCURVE",
"44 284 CURVE SMOOTH",
"44 116 OFFCURVE",
"176 -8 OFFCURVE",
"353 -8 CURVE SMOOTH"
);
},
{
closed = 1;
nodes = (
"602 -121 OFFCURVE",
"653 -98 OFFCURVE",
"690 -54 CURVE",
"645 -2 LINE",
"617 -33 OFFCURVE",
"583 -49 OFFCURVE",
"544 -49 CURVE SMOOTH",
"500 -49 OFFCURVE",
"462 -26 OFFCURVE",
"414 34 CURVE",
"310 9 LINE",
"401 -87 OFFCURVE",
"461 -121 OFFCURVE",
"542 -121 CURVE SMOOTH"
);
},
{
closed = 1;
nodes = (
"233 74 OFFCURVE",
"142 163 OFFCURVE",
"142 284 CURVE SMOOTH",
"142 405 OFFCURVE",
"233 494 OFFCURVE",
"353 494 CURVE SMOOTH",
"474 494 OFFCURVE",
"564 405 OFFCURVE",
"564 284 CURVE SMOOTH",
"564 163 OFFCURVE",
"474 74 OFFCURVE",
"353 74 CURVE SMOOTH"
);
}
);
width = 706;
}
);
leftKerningGroup = o.sc;
leftMetricsKey = o.sc;
widthMetricsKey = o.sc;
rightKerningGroup = o.sc;
userData = {
RMXScaler = {
source = Q;
};
};
},
{
glyphname = r.sc;
lastChange = "2017-09-14 22:08:18 +0000";
layers = (
{
anchors = (
{
name = bottom;
position = "{321, 0}";
},
{
name = top;
position = "{321, 568}";
}
);
layerId = "16BDD2A6-1A19-40B6-80C2-67966448469B";
paths = (
{
closed = 1;
nodes = (
"194 0 LINE",
"194 212 LINE",
"150 170 LINE",
"329 170 LINE SMOOTH",
"479 170 OFFCURVE",
"572 244 OFFCURVE",
"572 368 CURVE SMOOTH",
"572 493 OFFCURVE",
"479 568 OFFCURVE",
"329 568 CURVE SMOOTH",
"97 568 LINE",
"97 0 LINE"
);
},
{
closed = 1;
nodes = (
"582 0 LINE",
"434 207 LINE",
"330 207 LINE",
"476 0 LINE"
);
},
{
closed = 1;
nodes = (
"194 534 LINE",
"158 491 LINE",
"323 491 LINE SMOOTH",
"422 491 OFFCURVE",
"474 445 OFFCURVE",
"474 368 CURVE SMOOTH",
"474 292 OFFCURVE",
"422 246 OFFCURVE",
"323 246 CURVE SMOOTH",
"158 246 LINE",
"194 202 LINE"
);
}
);
width = 630;
}
);
leftKerningGroup = h.sc;
leftMetricsKey = h.sc;
rightKerningGroup = r.sc;
userData = {
RMXScaler = {
source = R;
};
};
},
{
glyphname = s.sc;
lastChange = "2017-09-14 22:08:18 +0000";
layers = (
{
anchors = (
{
name = bottom;
position = "{275, 0}";
},
{
name = top;
position = "{275, 568}";
}
);
layerId = "16BDD2A6-1A19-40B6-80C2-67966448469B";
paths = (
{
closed = 1;
nodes = (
"494 158 CURVE SMOOTH",
"494 366 OFFCURVE",
"149 281 OFFCURVE",
"149 414 CURVE SMOOTH",
"149 461 OFFCURVE",
"190 499 OFFCURVE",
"279 499 CURVE SMOOTH",
"333 499 OFFCURVE",
"389 485 OFFCURVE",
"438 452 CURVE",
"470 525 LINE",
"420 558 OFFCURVE",
"350 576 OFFCURVE",
"281 576 CURVE SMOOTH",
"129 576 OFFCURVE",
"53 499 OFFCURVE",
"53 410 CURVE SMOOTH",
"53 198 OFFCURVE",
"398 285 OFFCURVE",
"398 151 CURVE SMOOTH",
"398 106 OFFCURVE",
"359 69 OFFCURVE",
"267 69 CURVE SMOOTH",
"192 69 OFFCURVE",
"120 96 OFFCURVE",
"75 134 CURVE",
"40 63 LINE",
"88 21 OFFCURVE",
"175 -8 OFFCURVE",
"263 -8 CURVE SMOOTH",
"420 -8 OFFCURVE",
"494 69 OFFCURVE"
);
}
);
width = 532;
}
);
leftKerningGroup = s.sc;
rightKerningGroup = s.sc;
userData = {
RMXScaler = {
source = S;
};
};
},
{
color = 8;
glyphname = schwa.sc;
lastChange = "2017-09-14 22:08:18 +0000";
layers = (
{
anchors = (
{
name = bottom;
position = "{344, 0}";
},
{
name = top;
position = "{344, 568}";
}
);
layerId = "16BDD2A6-1A19-40B6-80C2-67966448469B";
paths = (
{
closed = 1;
nodes = (
"513 -8 OFFCURVE",
"642 118 OFFCURVE",
"642 284 CURVE SMOOTH",
"642 453 OFFCURVE",
"511 576 OFFCURVE",
"335 576 CURVE SMOOTH",
"249 576 OFFCURVE",
"169 549 OFFCURVE",
"117 502 CURVE",
"169 438 LINE",
"215 476 OFFCURVE",
"271 494 OFFCURVE",
"331 494 CURVE SMOOTH",
"453 494 OFFCURVE",
"543 406 OFFCURVE",
"543 289 CURVE SMOOTH",
"543 269 LINE SMOOTH",
"543 150 OFFCURVE",
"460 68 OFFCURVE",
"343 68 CURVE SMOOTH",
"222 68 OFFCURVE",
"142 149 OFFCURVE",
"142 270 CURVE",
"111 239 LINE",
"555 239 LINE",
"555 308 LINE",
"44 308 LINE",
"44 288 LINE SMOOTH",
"44 114 OFFCURVE",
"167 -8 OFFCURVE",
"343 -8 CURVE SMOOTH"
);
}
);
width = 686;
}
);
leftKerningGroup = o.sc;
leftMetricsKey = o.sc;
rightKerningGroup = o.sc;
rightMetricsKey = o.sc;
userData = {
RMXScaler = {
source = Schwa;
};
};
},
{
glyphname = germandbls.sc;
lastChange = "2017-09-14 22:08:18 +0000";
layers = (
{
layerId = "16BDD2A6-1A19-40B6-80C2-67966448469B";
paths = (
{
closed = 1;
nodes = (
"608 163 CURVE SMOOTH",
"608 272 OFFCURVE",
"521 334 OFFCURVE",
"409 334 CURVE SMOOTH",
"387 333.995 OFFCURVE",
"364 332 OFFCURVE",
"346 325 CURVE",
"379 275 LINE",
"553 459 LINE",
"553 518 LINE",
"503 555 OFFCURVE",
"427 574 OFFCURVE",
"355 574 CURVE SMOOTH",
"188 574 OFFCURVE",
"91 479 OFFCURVE",
"91 324 CURVE SMOOTH",
"91 0 LINE",
"188 0 LINE",
"188 321 LINE SMOOTH",
"188 434 OFFCURVE",
"248 496 OFFCURVE",
"356 496 CURVE SMOOTH",
"418 496 OFFCURVE",
"469 481 OFFCURVE",
"511 449 CURVE",
"507 512 LINE",
"308 299 LINE",
"326 255 LINE",
"344 261 OFFCURVE",
"367 265 OFFCURVE",
"391 265 CURVE SMOOTH",
"465 265 OFFCURVE",
"510 232 OFFCURVE",
"510 167 CURVE SMOOTH",
"510 104 OFFCURVE",
"465 70 OFFCURVE",
"392 70 CURVE SMOOTH",
"357 70 OFFCURVE",
"326 77 OFFCURVE",
"300 90 CURVE",
"284 14 LINE",
"320 -1 OFFCURVE",
"359 -8 OFFCURVE",
"406 -8 CURVE SMOOTH",
"530 -8 OFFCURVE",
"608 57 OFFCURVE"
);
}
);
width = 650;
}
);
leftKerningGroup = f.sc.ss01;
leftMetricsKey = "=|u.sc";
rightKerningGroup = b.sc;
rightMetricsKey = b.sc;
userData = {
RMXScaler = {
source = Germandbls;
};
};
},
{
glyphname = t.sc;
lastChange = "2017-09-14 22:08:27 +0000";
layers = (
{
anchors = (
{
name = bottom;
position = "{246, 0}";
},
{
name = center;
position = "{246, 273}";
},
{
name = top;
position = "{246, 568}";
}
);
layerId = "16BDD2A6-1A19-40B6-80C2-67966448469B";
paths = (
{
closed = 1;
nodes = (
"295 0 LINE",
"295 490 LINE",
"489 490 LINE",
"489 568 LINE",
"4 568 LINE",
"4 490 LINE",
"197 490 LINE",
"197 0 LINE"
);
}
);
width = 493;
}
);
leftKerningGroup = t.sc;
rightKerningGroup = t.sc;
rightMetricsKey = "=|";
userData = {
RMXScaler = {
source = T;
};
};
},
{
glyphname = u.sc;
lastChange = "2017-09-14 22:08:18 +0000";
layers = (
{
anchors = (
{
name = bottom;
position = "{341, 0}";
},
{
name = ogonek;
position = "{509, 0}";
},
{
name = top;
position = "{341, 568}";
},
{
name = topright;
position = "{558, 568}";
}
);
layerId = "16BDD2A6-1A19-40B6-80C2-67966448469B";
paths = (
{
closed = 1;
nodes = (
"589 242 CURVE SMOOTH",
"589 568 LINE",
"493 568 LINE",
"493 246 LINE SMOOTH",
"493 130 OFFCURVE",
"438 74 OFFCURVE",
"341 74 CURVE SMOOTH",
"243 74 OFFCURVE",
"188 130 OFFCURVE",
"188 246 CURVE SMOOTH",
"188 568 LINE",
"91 568 LINE",
"91 242 LINE SMOOTH",
"91 82 OFFCURVE",
"184 -8 OFFCURVE",
"340 -8 CURVE SMOOTH",
"496 -8 OFFCURVE",
"589 82 OFFCURVE"
);
}
);
width = 680;
}
);
leftKerningGroup = u.sc;
rightKerningGroup = u.sc;
rightMetricsKey = "=|";
userData = {
RMXScaler = {
source = U;
};
};
},
{
glyphname = v.sc;
lastChange = "2017-09-14 22:08:18 +0000";
layers = (
{
layerId = "16BDD2A6-1A19-40B6-80C2-67966448469B";
paths = (
{
closed = 1;
nodes = (
"356 0 LINE",
"608 568 LINE",
"511 568 LINE",
"281 46 LINE",
"340 46 LINE",
"112 568 LINE",
"8 568 LINE",
"260 0 LINE"
);
}
);
width = 616;
}
);
leftKerningGroup = v.sc;
rightKerningGroup = v.sc;
rightMetricsKey = "=|";
userData = {
RMXScaler = {
source = V;
};
};
},
{
color = 3;
glyphname = w.sc;
lastChange = "2017-09-14 22:08:18 +0000";
layers = (
{
anchors = (
{
name = bottom;
position = "{479, 0}";
},
{
name = top;
position = "{479, 568}";
}
);
layerId = "16BDD2A6-1A19-40B6-80C2-67966448469B";
paths = (
{
closed = 1;
nodes = (
"330 0 LINE",
"493 477 LINE",
"466 477 LINE",
"628 0 LINE",
"732 0 LINE",
"923 568 LINE",
"829 568 LINE",
"653 47 LINE",
"701 47 LINE",
"527 568 LINE",
"436 568 LINE",
"256 47 LINE",
"307 47 LINE",
"134 568 LINE",
"34 568 LINE",
"226 0 LINE"
);
}
);
width = 957;
}
);
leftKerningGroup = v.sc;
rightKerningGroup = v.sc;
rightMetricsKey = "=|";
userData = {
RMXScaler = {
source = W;
};
};
},
{
glyphname = x.sc;
lastChange = "2017-09-14 22:08:27 +0000";
layers = (
{
layerId = "16BDD2A6-1A19-40B6-80C2-67966448469B";
paths = (
{
closed = 1;
nodes = (
"124 0 LINE",
"306 255 LINE",
"263 254 LINE",
"447 0 LINE",
"559 0 LINE",
"317 327 LINE",
"317 260 LINE",
"545 568 LINE",
"439 568 LINE",
"265 328 LINE",
"310 329 LINE",
"135 568 LINE",
"25 568 LINE",
"254 255 LINE",
"254 325 LINE",
"12 0 LINE"
);
}
);
width = 571;
}
);
leftKerningGroup = x.sc;
rightKerningGroup = x.sc;
rightMetricsKey = "=|";
userData = {
RMXScaler = {
source = X;
};
};
},
{
color = 3;
glyphname = y.sc;
lastChange = "2017-09-14 22:08:18 +0000";
layers = (
{
anchors = (
{
name = bottom;
position = "{284, 0}";
},
{
name = top;
position = "{284, 568}";
}
);
layerId = "16BDD2A6-1A19-40B6-80C2-67966448469B";
paths = (
{
closed = 1;
nodes = (
"333 0 LINE",
"333 219 LINE",
"314 158 LINE",
"566 568 LINE",
"467 568 LINE",
"261 233 LINE",
"314 233 LINE",
"107 568 LINE",
"3 568 LINE",
"254 158 LINE",
"236 219 LINE",
"236 0 LINE"
);
}
);
width = 569;
}
);
leftKerningGroup = y.sc;
rightKerningGroup = y.sc;
rightMetricsKey = "=|";
userData = {
RMXScaler = {
source = Y;
};
};
},
{
glyphname = z.sc;
lastChange = "2017-09-14 22:08:18 +0000";
layers = (
{
anchors = (
{
name = bottom;
position = "{289, 0}";
},
{
name = top;
position = "{285, 568}";
}
);
layerId = "16BDD2A6-1A19-40B6-80C2-67966448469B";
paths = (
{
closed = 1;
nodes = (
"529 0 LINE",
"529 77 LINE",
"129 77 LINE",
"140 44 LINE",
"518 506 LINE",
"518 568 LINE",
"47 568 LINE",
"47 491 LINE",
"430 491 LINE",
"419 524 LINE",
"41 63 LINE",
"41 0 LINE"
);
}
);
width = 555;
}
);
leftKerningGroup = z.sc;
rightKerningGroup = z.sc;
userData = {
RMXScaler = {
source = Z;
};
};
},
{
glyphname = a.sc.ss01;
lastChange = "2017-09-14 22:08:18 +0000";
layers = (
{
anchors = (
{
name = bottom;
position = "{344, 0}";
},
{
name = ogonek;
position = "{596, 0}";
},
{
name = top;
position = "{344, 568}";
},
{
name = topleft;
position = "{75, 568}";
}
);
layerId = "16BDD2A6-1A19-40B6-80C2-67966448469B";
paths = (
{
closed = 1;
nodes = (
"188 0 LINE",
"188 328 LINE SMOOTH",
"188 439 OFFCURVE",
"248 494 OFFCURVE",
"344 494 CURVE SMOOTH",
"440 494 OFFCURVE",
"499 439 OFFCURVE",
"499 328 CURVE SMOOTH",
"499 0 LINE",
"596 0 LINE",
"596 317 LINE SMOOTH",
"596 486 OFFCURVE",
"495 576 OFFCURVE",
"344 576 CURVE SMOOTH",
"192 576 OFFCURVE",
"91 486 OFFCURVE",
"91 317 CURVE SMOOTH",
"91 0 LINE"
);
},
{
closed = 1;
nodes = (
"534 152 LINE",
"534 229 LINE",
"153 229 LINE",
"153 152 LINE"
);
}
);
width = 687;
}
);
leftKerningGroup = a.sc.ss01;
leftMetricsKey = u.sc;
rightKerningGroup = a.sc.ss01;
rightMetricsKey = "=|";
userData = {
RMXScaler = {
source = A.ss01;
};
};
},
{
glyphname = e.sc.ss01;
lastChange = "2017-09-14 22:08:18 +0000";
layers = (
{
anchors = (
{
name = bottom;
position = "{294, 0}";
},
{
name = ogonek;
position = "{497, 0}";
},
{
name = top;
position = "{294, 568}";
},
{
name = topleft;
position = "{32, 568}";
}
);
layerId = "16BDD2A6-1A19-40B6-80C2-67966448469B";
paths = (
{
closed = 1;
nodes = (
"525 57 CURVE",
"493 129 LINE",
"450 91 OFFCURVE",
"373 69 OFFCURVE",
"299 69 CURVE SMOOTH",
"189 69 OFFCURVE",
"140 107 OFFCURVE",
"140 163 CURVE SMOOTH",
"140 222 OFFCURVE",
"190 251 OFFCURVE",
"268 251 CURVE SMOOTH",
"424 251 LINE",
"424 324 LINE",
"273 324 LINE SMOOTH",
"203 324 OFFCURVE",
"164 354 OFFCURVE",
"164 408 CURVE SMOOTH",
"164 460 OFFCURVE",
"211 499 OFFCURVE",
"311 499 CURVE SMOOTH",
"368 499 OFFCURVE",
"426 486 OFFCURVE",
"474 459 CURVE",
"503 532 LINE",
"452 559 OFFCURVE",
"380 576 OFFCURVE",
"307 576 CURVE SMOOTH",
"144 576 OFFCURVE",
"66 500 OFFCURVE",
"66 414 CURVE SMOOTH",
"66 335 OFFCURVE",
"125 277 OFFCURVE",
"236 277 CURVE",
"233 303 LINE",
"119 303 OFFCURVE",
"42 246 OFFCURVE",
"42 156 CURVE SMOOTH",
"42 61 OFFCURVE",
"128 -8 OFFCURVE",
"295 -8 CURVE SMOOTH",
"388 -8 OFFCURVE",
"474 17 OFFCURVE"
);
}
);
width = 551;
}
);
leftKerningGroup = e.sc.ss01;
leftMetricsKey = "=|b.sc";
rightKerningGroup = e.sc.ss01;
userData = {
RMXScaler = {
source = E.ss01;
};
};
},
{
glyphname = f.sc.ss01;
lastChange = "2017-09-14 22:08:18 +0000";
layers = (
{
layerId = "16BDD2A6-1A19-40B6-80C2-67966448469B";
paths = (
{
closed = 1;
nodes = (
"188 0 LINE",
"188 361 LINE SMOOTH",
"188 448 OFFCURVE",
"240 494 OFFCURVE",
"339 494 CURVE SMOOTH",
"389 494 OFFCURVE",
"435 483 OFFCURVE",
"473 457 CURVE",
"505 533 LINE",
"462 561 OFFCURVE",
"401 576 OFFCURVE",
"334 576 CURVE SMOOTH",
"175 576 OFFCURVE",
"91 492 OFFCURVE",
"91 359 CURVE SMOOTH",
"91 0 LINE"
);
},
{
closed = 1;
nodes = (
"444 225 LINE",
"444 301 LINE",
"153 301 LINE",
"153 225 LINE"
);
}
);
width = 520;
}
);
leftKerningGroup = f.ss01.sc;
leftMetricsKey = "=|u.sc";
rightKerningGroup = f.sc;
userData = {
RMXScaler = {
source = F.ss01;
};
};
},
{
color = 8;
glyphname = g.sc.ss01;
lastChange = "2017-09-14 22:08:18 +0000";
layers = (
{
anchors = (
{
name = bottom;
position = "{341, 1}";
},
{
name = top;
position = "{347, 568}";
}
);
layerId = "16BDD2A6-1A19-40B6-80C2-67966448469B";
paths = (
{
closed = 1;
nodes = (
"424 -8 OFFCURVE",
"498 19 OFFCURVE",
"555 105 CURVE",
"509 148 LINE",
"470 97 OFFCURVE",
"409 73 OFFCURVE",
"347 73 CURVE SMOOTH",
"241 73 OFFCURVE",
"142 146 OFFCURVE",
"142 279 CURVE SMOOTH",
"142 406 OFFCURVE",
"232 494 OFFCURVE",
"359 494 CURVE SMOOTH",
"421 494 OFFCURVE",
"474 474 OFFCURVE",
"520 428 CURVE",
"583 486 LINE",
"530 545 OFFCURVE",
"453 576 OFFCURVE",
"359 576 CURVE SMOOTH",
"176 576 OFFCURVE",
"44 452 OFFCURVE",
"44 280 CURVE SMOOTH",
"44 100 OFFCURVE",
"181 -8 OFFCURVE",
"339 -8 CURVE SMOOTH"
);
},
{
closed = 1;
nodes = (
"575 0 LINE",
"575 286 LINE",
"490 286 LINE",
"490 87 LINE",
"503 76 LINE",
"503 0 LINE"
);
}
);
width = 648;
}
);
leftKerningGroup = o.sc;
leftMetricsKey = o.sc;
rightKerningGroup = g.sc;
userData = {
RMXScaler = {
source = G.ss01;
};
};
},
{
glyphname = i.sc.ss01;
lastChange = "2017-09-14 22:08:18 +0000";
layers = (
{
anchors = (
{
name = bottom;
position = "{214, 0}";
},
{
name = ogonek;
position = "{263, 0}";
},
{
name = top;
position = "{214, 568}";
},
{
name = topleft;
position = "{18, 568}";
}
);
layerId = "16BDD2A6-1A19-40B6-80C2-67966448469B";
paths = (
{
closed = 1;
nodes = (
"263 12 LINE",
"263 556 LINE",
"165 556 LINE",
"165 12 LINE"
);
},
{
closed = 1;
nodes = (
"371 0 LINE",
"371 76 LINE",
"57 76 LINE",
"57 0 LINE"
);
},
{
closed = 1;
nodes = (
"371 492 LINE",
"371 568 LINE",
"57 568 LINE",
"57 492 LINE"
);
}
);
width = 428;
}
);
leftKerningGroup = i.sc.ss01;
rightKerningGroup = i.sc.ss01;
rightMetricsKey = "=|";
userData = {
RMXScaler = {
source = I.ss01;
};
};
},
{
glyphname = ij.sc.ss01;
lastChange = "2017-09-14 22:08:18 +0000";
layers = (
{
anchors = (
{
name = top;
position = "{153, 568}";
}
);
layerId = "16BDD2A6-1A19-40B6-80C2-67966448469B";
paths = (
{
closed = 1;
nodes = (
"434 -86 OFFCURVE",
"532 3 OFFCURVE",
"532 172 CURVE SMOOTH",
"532 568 LINE",
"434 568 LINE",
"434 168 LINE SMOOTH",
"434 50 OFFCURVE",
"376 -5 OFFCURVE",
"277 -5 CURVE SMOOTH",
"218 -5 OFFCURVE",
"164 13 OFFCURVE",
"118 45 CURVE",
"80 -27 LINE",
"132 -63 OFFCURVE",
"199 -86 OFFCURVE",
"281 -86 CURVE SMOOTH"
);
},
{
closed = 1;
nodes = (
"188 172 LINE",
"188 568 LINE",
"90 568 LINE",
"90 172 LINE"
);
}
);
width = 623;
}
);
leftKerningGroup = h.sc;
leftMetricsKey = ij.sc;
rightKerningGroup = h.sc;
rightMetricsKey = u.sc;
},
{
glyphname = j.sc.ss01;
lastChange = "2017-09-14 22:08:18 +0000";
layers = (
{
anchors = (
{
name = top;
position = "{207, 568}";
}
);
layerId = "16BDD2A6-1A19-40B6-80C2-67966448469B";
paths = (
{
closed = 1;
nodes = (
"294 -89 OFFCURVE",
"359 -24 OFFCURVE",
"359 110 CURVE SMOOTH",
"359 568 LINE",
"56 568 LINE",
"56 491 LINE",
"262 491 LINE",
"262 101 LINE SMOOTH",
"262 28 OFFCURVE",
"231 -8 OFFCURVE",
"166 -8 CURVE SMOOTH",
"122 -8 OFFCURVE",
"83 14 OFFCURVE",
"54 58 CURVE",
"-2 -5 LINE",
"36 -59 OFFCURVE",
"99 -89 OFFCURVE",
"172 -89 CURVE SMOOTH"
);
}
);
width = 450;
}
);
leftKerningGroup = j.sc.ss01;
leftMetricsKey = j.sc;
rightKerningGroup = h.sc;
rightMetricsKey = j.sc;
userData = {
RMXScaler = {
source = J.ss01;
};
};
},
{
glyphname = m.sc.ss01;
lastChange = "2017-09-14 22:08:27 +0000";
layers = (
{
anchors = (
{
name = bottom;
position = "{486, 0}";
},
{
name = top;
position = "{486, 568}";
}
);
layerId = "16BDD2A6-1A19-40B6-80C2-67966448469B";
paths = (
{
closed = 1;
nodes = (
"875 0 LINE",
"875 356 LINE SMOOTH",
"875 500 OFFCURVE",
"801 576 OFFCURVE",
"684 576 CURVE SMOOTH",
"565 576 OFFCURVE",
"482 498 OFFCURVE",
"482 345 CURVE SMOOTH",
"482 256 LINE",
"534 256 LINE",
"534 339 LINE SMOOTH",
"534 447 OFFCURVE",
"582 494 OFFCURVE",
"658 494 CURVE SMOOTH",
"733 494 OFFCURVE",
"777 448 OFFCURVE",
"777 351 CURVE SMOOTH",
"777 0 LINE"
);
},
{
closed = 1;
nodes = (
"194 0 LINE",
"194 399 LINE",
"191 418 LINE",
"191 568 LINE",
"97 568 LINE",
"97 0 LINE"
);
},
{
closed = 1;
nodes = (
"534 0 LINE",
"534 356 LINE SMOOTH",
"534 500 OFFCURVE",
"463 576 OFFCURVE",
"349 576 CURVE SMOOTH",
"230 576 OFFCURVE",
"159 495 OFFCURVE",
"159 341 CURVE SMOOTH",
"159 244 LINE",
"194 244 LINE",
"194 339 LINE SMOOTH",
"194 447 OFFCURVE",
"242 494 OFFCURVE",
"316 494 CURVE SMOOTH",
"392 494 OFFCURVE",
"437 448 OFFCURVE",
"437 351 CURVE SMOOTH",
"437 0 LINE"
);
}
);
width = 966;
}
);
leftKerningGroup = h.sc;
leftMetricsKey = h.sc;
rightKerningGroup = n.sc.ss01;
rightMetricsKey = u.sc;
userData = {
RMXScaler = {
source = M.ss01;
};
};
},
{
glyphname = n.sc.ss01;
lastChange = "2017-09-14 22:08:27 +0000";
layers = (
{
anchors = (
{
name = bottom;
position = "{345, 0}";
},
{
name = top;
position = "{346, 568}";
}
);
layerId = "16BDD2A6-1A19-40B6-80C2-67966448469B";
paths = (
{
closed = 1;
nodes = (
"596 0 LINE",
"596 341 LINE SMOOTH",
"596 492 OFFCURVE",
"514 576 OFFCURVE",
"377 576 CURVE SMOOTH",
"241 576 OFFCURVE",
"155 490 OFFCURVE",
"155 323 CURVE SMOOTH",
"155 244 LINE",
"194 244 LINE",
"194 322 LINE SMOOTH",
"194 440 OFFCURVE",
"254 494 OFFCURVE",
"348 494 CURVE SMOOTH",
"442 494 OFFCURVE",
"498 442 OFFCURVE",
"498 334 CURVE SMOOTH",
"498 0 LINE"
);
},
{
closed = 1;
nodes = (
"194 0 LINE",
"194 399 LINE",
"191 418 LINE",
"191 568 LINE",
"97 568 LINE",
"97 0 LINE"
);
}
);
width = 687;
}
);
leftKerningGroup = h.sc;
leftMetricsKey = h.sc;
rightKerningGroup = n.sc.ss01;
rightMetricsKey = u.sc;
userData = {
RMXScaler = {
source = N.ss01;
};
};
},
{
color = 8;
glyphname = q.sc.ss01;
lastChange = "2017-09-14 22:08:18 +0000";
layers = (
{
layerId = "16BDD2A6-1A19-40B6-80C2-67966448469B";
paths = (
{
closed = 1;
nodes = (
"531 -8 OFFCURVE",
"662 116 OFFCURVE",
"662 284 CURVE SMOOTH",
"662 452 OFFCURVE",
"531 576 OFFCURVE",
"353 576 CURVE SMOOTH",
"176 576 OFFCURVE",
"44 452 OFFCURVE",
"44 284 CURVE SMOOTH",
"44 116 OFFCURVE",
"176 -8 OFFCURVE",
"353 -8 CURVE SMOOTH"
);
},
{
closed = 1;
nodes = (
"402 -110 LINE",
"402 10 LINE",
"398 40 LINE",
"398 208 LINE",
"307 208 LINE",
"307 40 LINE",
"305 10 LINE",
"305 -110 LINE"
);
},
{
closed = 1;
nodes = (
"229 75 OFFCURVE",
"142 160 OFFCURVE",
"142 284 CURVE SMOOTH",
"142 407 OFFCURVE",
"234 494 OFFCURVE",
"353 494 CURVE SMOOTH",
"472 494 OFFCURVE",
"564 407 OFFCURVE",
"564 284 CURVE SMOOTH",
"564 160 OFFCURVE",
"478 75 OFFCURVE",
"353 75 CURVE SMOOTH"
);
}
);
width = 706;
}
);
leftKerningGroup = o.sc;
leftMetricsKey = o.sc;
rightKerningGroup = o.sc;
rightMetricsKey = o.sc;
userData = {
RMXScaler = {
source = Q.ss01;
};
};
},
{
color = 8;
glyphname = schwa.sc.ss01;
lastChange = "2017-09-14 22:08:18 +0000";
layers = (
{
anchors = (
{
name = bottom;
position = "{343, 0}";
},
{
name = top;
position = "{343, 568}";
}
);
layerId = "16BDD2A6-1A19-40B6-80C2-67966448469B";
paths = (
{
closed = 1;
nodes = (
"512 -8 OFFCURVE",
"642 118 OFFCURVE",
"642 284 CURVE SMOOTH",
"642 453 OFFCURVE",
"511 576 OFFCURVE",
"335 576 CURVE SMOOTH",
"238 576 OFFCURVE",
"156 542 OFFCURVE",
"103 489 CURVE",
"160 427 LINE",
"205 470 OFFCURVE",
"265 494 OFFCURVE",
"331 494 CURVE SMOOTH",
"453 494 OFFCURVE",
"543 406 OFFCURVE",
"543 289 CURVE SMOOTH",
"543 269 LINE SMOOTH",
"543 150 OFFCURVE",
"458 68 OFFCURVE",
"343 68 CURVE SMOOTH",
"246 68 OFFCURVE",
"184 119 OFFCURVE",
"163 202 CURVE",
"132 140 LINE",
"564 316 LINE",
"543 378 LINE",
"63 183 LINE",
"101 67 OFFCURVE",
"207 -8 OFFCURVE",
"343 -8 CURVE SMOOTH"
);
}
);
width = 686;
}
);
leftKerningGroup = o.sc;
widthMetricsKey = schwa.sc;
rightKerningGroup = o.sc;
rightMetricsKey = o.sc;
userData = {
RMXScaler = {
source = Schwa.ss01;
};
};
},
{
glyphname = t.sc.ss01;
lastChange = "2017-09-14 22:08:27 +0000";
layers = (
{
anchors = (
{
name = bottom;
position = "{252, 0}";
},
{
name = center;
position = "{251, 264}";
},
{
name = top;
position = "{254, 568}";
}
);
layerId = "16BDD2A6-1A19-40B6-80C2-67966448469B";
paths = (
{
closed = 1;
nodes = (
"98 476 OFFCURVE",
"171 495 OFFCURVE",
"251 495 CURVE SMOOTH",
"331 495 OFFCURVE",
"405 476 OFFCURVE",
"474 437 CURVE",
"508 509 LINE",
"431 554 OFFCURVE",
"341 576 OFFCURVE",
"251 576 CURVE SMOOTH",
"162 576 OFFCURVE",
"72 554 OFFCURVE",
"-4 509 CURVE",
"29 437 LINE"
);
},
{
closed = 1;
nodes = (
"300 0 LINE",
"300 527 LINE",
"203 527 LINE",
"203 0 LINE"
);
}
);
width = 504;
}
);
leftKerningGroup = t.sc;
rightKerningGroup = t.sc;
rightMetricsKey = "=|";
userData = {
RMXScaler = {
source = T.ss01;
};
};
},
{
glyphname = u.sc.ss01;
lastChange = "2017-09-14 22:08:27 +0000";
layers = (
{
anchors = (
{
name = bottom;
position = "{341, 0}";
},
{
name = ogonek;
position = "{589, 0}";
},
{
name = top;
position = "{341, 568}";
},
{
name = topright;
position = "{548, 568}";
}
);
layerId = "16BDD2A6-1A19-40B6-80C2-67966448469B";
paths = (
{
closed = 1;
nodes = (
"91 568 LINE",
"91 227 LINE SMOOTH",
"91 76 OFFCURVE",
"173 -8 OFFCURVE",
"309 -8 CURVE SMOOTH",
"445 -8 OFFCURVE",
"531 78 OFFCURVE",
"531 245 CURVE SMOOTH",
"531 324 LINE",
"492 324 LINE",
"492 246 LINE SMOOTH",
"492 128 OFFCURVE",
"432 74 OFFCURVE",
"338 74 CURVE SMOOTH",
"244 74 OFFCURVE",
"188 126 OFFCURVE",
"188 234 CURVE SMOOTH",
"188 568 LINE"
);
},
{
closed = 1;
nodes = (
"492 568 LINE",
"492 169 LINE",
"495 150 LINE",
"495 0 LINE",
"590 0 LINE",
"590 568 LINE"
);
}
);
width = 687;
}
);
leftKerningGroup = u.sc;
leftMetricsKey = u.sc;
rightKerningGroup = h.sc;
rightMetricsKey = h.sc;
userData = {
RMXScaler = {
source = U.ss01;
};
};
},
{
glyphname = w.sc.ss01;
lastChange = "2017-09-14 22:08:18 +0000";
layers = (
{
anchors = (
{
name = top;
position = "{480, 568}";
}
);
layerId = "16BDD2A6-1A19-40B6-80C2-67966448469B";
paths = (
{
closed = 1;
nodes = (
"495 121 CURVE",
"465 121 LINE",
"493 35 OFFCURVE",
"557 -8 OFFCURVE",
"651 -8 CURVE SMOOTH",
"786 -8 OFFCURVE",
"869 72 OFFCURVE",
"869 224 CURVE SMOOTH",
"869 568 LINE",
"771 568 LINE",
"771 226 LINE SMOOTH",
"771 120 OFFCURVE",
"726 75 OFFCURVE",
"651 75 CURVE SMOOTH",
"575 75 OFFCURVE",
"529 120 OFFCURVE",
"529 226 CURVE SMOOTH",
"529 568 LINE",
"432 568 LINE",
"432 226 LINE SMOOTH",
"432 120 OFFCURVE",
"386 75 OFFCURVE",
"310 75 CURVE SMOOTH",
"235 75 OFFCURVE",
"188 120 OFFCURVE",
"188 226 CURVE SMOOTH",
"188 568 LINE",
"91 568 LINE",
"91 224 LINE SMOOTH",
"91 72 OFFCURVE",
"175 -8 OFFCURVE",
"310 -8 CURVE SMOOTH",
"404 -8 OFFCURVE",
"468 35 OFFCURVE"
);
}
);
width = 960;
}
);
leftKerningGroup = u.sc;
leftMetricsKey = u.sc;
rightKerningGroup = u.sc;
rightMetricsKey = u.sc;
userData = {
RMXScaler = {
source = W.ss01;
};
};
},
{
glyphname = y.sc.ss01;
lastChange = "2017-09-14 22:08:18 +0000";
layers = (
{
anchors = (
{
name = bottom;
position = "{554, 0}";
},
{
name = top;
position = "{336, 568}";
}
);
layerId = "16BDD2A6-1A19-40B6-80C2-67966448469B";
paths = (
{
closed = 1;
nodes = (
"585 169 CURVE SMOOTH",
"585 568 LINE",
"488 568 LINE",
"488 164 LINE SMOOTH",
"488 47 OFFCURVE",
"433 -9 OFFCURVE",
"323 -9 CURVE SMOOTH",
"249 -9 OFFCURVE",
"186 16 OFFCURVE",
"139 64 CURVE",
"100 -7 LINE",
"152 -58 OFFCURVE",
"230 -89 OFFCURVE",
"328 -89 CURVE SMOOTH",
"486 -89 OFFCURVE",
"585 0 OFFCURVE"
);
},
{
closed = 1;
nodes = (
"526 388 CURVE SMOOTH",
"526 468 LINE",
"488 468 LINE",
"488 388 LINE SMOOTH",
"488 273 OFFCURVE",
"428 221 OFFCURVE",
"335 221 CURVE SMOOTH",
"238 221 OFFCURVE",
"183 274 OFFCURVE",
"183 376 CURVE SMOOTH",
"183 568 LINE",
"86 568 LINE",
"86 371 LINE SMOOTH",
"86 221 OFFCURVE",
"170 139 OFFCURVE",
"310 139 CURVE SMOOTH",
"442 139 OFFCURVE",
"526 225 OFFCURVE"
);
}
);
width = 676;
}
);
leftKerningGroup = y.sc.ss01;
leftMetricsKey = "=u.sc-5";
rightKerningGroup = h.sc;
rightMetricsKey = u.sc;
userData = {
RMXScaler = {
source = Y.ss01;
};
};
},
{
glyphname = z.sc.ss01;
lastChange = "2017-09-14 22:08:27 +0000";
layers = (
{
anchors = (
{
name = bottom;
position = "{287, 0}";
},
{
name = top;
position = "{283, 568}";
}
);
layerId = "16BDD2A6-1A19-40B6-80C2-67966448469B";
paths = (
{
closed = 1;
nodes = (
"528 0 LINE",
"528 76 LINE",
"129 76 LINE",
"141 52 LINE",
"516 512 LINE",
"516 568 LINE",
"45 568 LINE",
"45 492 LINE",
"428 492 LINE",
"416 517 LINE",
"41 57 LINE",
"41 0 LINE"
);
},
{
closed = 1;
nodes = (
"256 253 LINE",
"282 253 LINE",
"497 253 LINE",
"497 322 LINE",
"311 322 LINE",
"285 323 LINE",
"75 323 LINE",
"75 253 LINE"
);
}
);
width = 554;
}
);
leftKerningGroup = z.sc;
leftMetricsKey = z.sc;
rightKerningGroup = z.sc;
rightMetricsKey = z.sc;
userData = {
RMXScaler = {
source = Z.ss01;
};
};
},
{
color = 8;
glyphname = a;
lastChange = "2017-09-14 22:08:27 +0000";
layers = (
{
anchors = (
{
name = bottom;
position = "{287, 0}";
},
{
name = ogonek;
position = "{488, 0}";
},
{
name = top;
position = "{290, 529}";
}
);
layerId = "16BDD2A6-1A19-40B6-80C2-67966448469B";
paths = (
{
closed = 1;
nodes = (
"511 0 LINE",
"511 321 LINE SMOOTH",
"511 465 OFFCURVE",
"430 534 OFFCURVE",
"285 534 CURVE SMOOTH",
"205 534 OFFCURVE",
"122 508 OFFCURVE",
"68 462 CURVE",
"103 393 LINE",
"144 428 OFFCURVE",
"208 453 OFFCURVE",
"275 453 CURVE SMOOTH",
"367 453 OFFCURVE",
"415 408 OFFCURVE",
"415 326 CURVE SMOOTH",
"415 133 LINE",
"418 113 LINE",
"418 0 LINE"
);
},
{
closed = 1;
nodes = (
"343 -6 OFFCURVE",
"407 42 OFFCURVE",
"432 113 CURVE",
"415 160 LINE",
"389 96 OFFCURVE",
"336 65 OFFCURVE",
"262 65 CURVE SMOOTH",
"185 65 OFFCURVE",
"143 101 OFFCURVE",
"143 154 CURVE SMOOTH",
"143 205 OFFCURVE",
"179 240 OFFCURVE",
"266 240 CURVE SMOOTH",
"430 240 LINE",
"430 304 LINE",
"257 304 LINE SMOOTH",
"109 304 OFFCURVE",
"51 233 OFFCURVE",
"51 149 CURVE SMOOTH",
"51 58 OFFCURVE",
"122 -6 OFFCURVE",
"241 -6 CURVE SMOOTH"
);
}
);
width = 598;
}
);
leftKerningGroup = a;
rightKerningGroup = n;
rightMetricsKey = n;
unicode = 0061;
},
{
color = 8;
glyphname = ae;
lastChange = "2017-09-14 22:08:18 +0000";
layers = (
{
anchors = (
{
name = top;
position = "{463, 529}";
}
);
layerId = "16BDD2A6-1A19-40B6-80C2-67966448469B";
paths = (
{
closed = 1;
nodes = (
"365 -6 OFFCURVE",
"459 41 OFFCURVE",
"483 174 CURVE",
"437 176 LINE",
"480 51 OFFCURVE",
"591 -6 OFFCURVE",
"708 -6 CURVE SMOOTH",
"797 -6 OFFCURVE",
"872 23 OFFCURVE",
"921 80 CURVE",
"870 136 LINE",
"829 92 OFFCURVE",
"775 71 OFFCURVE",
"711 71 CURVE SMOOTH",
"594 71 OFFCURVE",
"511 147 OFFCURVE",
"511 262 CURVE SMOOTH",
"511 278 LINE SMOOTH",
"511 385 OFFCURVE",
"586 463 OFFCURVE",
"689 463 CURVE SMOOTH",
"792 463 OFFCURVE",
"868 385 OFFCURVE",
"868 278 CURVE",
"888 302 LINE",
"503 302 LINE",
"503 241 LINE",
"955 241 LINE",
"955 250 OFFCURVE",
"956 259 OFFCURVE",
"956 269 CURVE SMOOTH",
"956 432 OFFCURVE",
"836 534 OFFCURVE",
"690 534 CURVE SMOOTH",
"585 534 OFFCURVE",
"496 480 OFFCURVE",
"455 395 CURVE",
"489 390 LINE",
"468 487 OFFCURVE",
"397 534 OFFCURVE",
"284 534 CURVE SMOOTH",
"205 534 OFFCURVE",
"122 508 OFFCURVE",
"68 462 CURVE",
"104 396 LINE",
"145 430 OFFCURVE",
"208 456 OFFCURVE",
"273 456 CURVE SMOOTH",
"369 456 OFFCURVE",
"415 416 OFFCURVE",
"415 329 CURVE SMOOTH",
"415 201 LINE SMOOTH",
"415 110 OFFCURVE",
"352 62 OFFCURVE",
"265 62 CURVE SMOOTH",
"186 62 OFFCURVE",
"143 98 OFFCURVE",
"143 153 CURVE SMOOTH",
"143 204 OFFCURVE",
"179 241 OFFCURVE",
"270 241 CURVE SMOOTH",
"425 241 LINE",
"425 302 LINE",
"257 302 LINE SMOOTH",
"109 302 OFFCURVE",
"51 233 OFFCURVE",
"51 149 CURVE SMOOTH",
"51 58 OFFCURVE",
"122 -6 OFFCURVE",
"254 -6 CURVE SMOOTH"
);
}
);
width = 998;
}
);
leftKerningGroup = a;
leftMetricsKey = a;
rightKerningGroup = e;
rightMetricsKey = e;
unicode = 00E6;
},
{
glyphname = b;
lastChange = "2017-09-14 22:08:27 +0000";
layers = (
{
layerId = "16BDD2A6-1A19-40B6-80C2-67966448469B";
paths = (
{
closed = 1;
nodes = (
"525 -6 OFFCURVE",
"638 103 OFFCURVE",
"638 265 CURVE SMOOTH",
"638 427 OFFCURVE",
"525 534 OFFCURVE",
"383 534 CURVE SMOOTH",
"241 534 OFFCURVE",
"151 434 OFFCURVE",
"151 265 CURVE SMOOTH",
"151 95 OFFCURVE",
"238 -6 OFFCURVE",
"383 -6 CURVE SMOOTH"
);
},
{
closed = 1;
nodes = (
"183 0 LINE",
"183 145 LINE",
"177 265 LINE",
"187 386 LINE",
"187 742 LINE",
"91 742 LINE",
"91 0 LINE"
);
},
{
closed = 1;
nodes = (
"262 74 OFFCURVE",
"186 150 OFFCURVE",
"186 265 CURVE SMOOTH",
"186 380 OFFCURVE",
"262 454 OFFCURVE",
"364 454 CURVE SMOOTH",
"466 454 OFFCURVE",
"543 380 OFFCURVE",
"543 265 CURVE SMOOTH",
"543 150 OFFCURVE",
"466 74 OFFCURVE",
"364 74 CURVE SMOOTH"
);
}
);
width = 680;
}
);
leftKerningGroup = l;
leftMetricsKey = l;
rightKerningGroup = o;
rightMetricsKey = o;
unicode = 0062;
},
{
glyphname = c;
lastChange = "2017-09-14 22:08:18 +0000";
layers = (
{
anchors = (
{
name = bottom;
position = "{298, 0}";
},
{
name = top;
position = "{301, 529}";
}
);
layerId = "16BDD2A6-1A19-40B6-80C2-67966448469B";
paths = (
{
closed = 1;
nodes = (
"414 -6 OFFCURVE",
"493 35 OFFCURVE",
"534 109 CURVE",
"462 151 LINE",
"429 99 OFFCURVE",
"377 74 OFFCURVE",
"319 74 CURVE SMOOTH",
"215 74 OFFCURVE",
"137 149 OFFCURVE",
"137 265 CURVE SMOOTH",
"137 380 OFFCURVE",
"215 454 OFFCURVE",
"319 454 CURVE SMOOTH",
"377 454 OFFCURVE",
"429 430 OFFCURVE",
"462 377 CURVE",
"534 420 LINE",
"493 494 OFFCURVE",
"414 534 OFFCURVE",
"319 534 CURVE SMOOTH",
"158 534 OFFCURVE",
"42 424 OFFCURVE",
"42 265 CURVE SMOOTH",
"42 106 OFFCURVE",
"158 -6 OFFCURVE",
"319 -6 CURVE SMOOTH"
);
}
);
width = 566;
}
);
leftKerningGroup = o;
leftMetricsKey = o;
rightKerningGroup = c;
unicode = 0063;
},
{
glyphname = d;
lastChange = "2017-09-14 22:08:27 +0000";
layers = (
{
anchors = (
{
name = bottom;
position = "{344, 0}";
},
{
name = center;
position = "{481, 634}";
},
{
name = topright;
position = "{678, 742}";
}
);
layerId = "16BDD2A6-1A19-40B6-80C2-67966448469B";
paths = (
{
closed = 1;
nodes = (
"441 -6 OFFCURVE",
"528 95 OFFCURVE",
"528 265 CURVE SMOOTH",
"528 434 OFFCURVE",
"438 534 OFFCURVE",
"296 534 CURVE SMOOTH",
"154 534 OFFCURVE",
"42 427 OFFCURVE",
"42 265 CURVE SMOOTH",
"42 103 OFFCURVE",
"154 -6 OFFCURVE",
"296 -6 CURVE SMOOTH"
);
},
{
closed = 1;
nodes = (
"213 74 OFFCURVE",
"137 150 OFFCURVE",
"137 265 CURVE SMOOTH",
"137 380 OFFCURVE",
"213 454 OFFCURVE",
"315 454 CURVE SMOOTH",
"417 454 OFFCURVE",
"494 380 OFFCURVE",
"494 265 CURVE SMOOTH",
"494 150 OFFCURVE",
"417 74 OFFCURVE",
"315 74 CURVE SMOOTH"
);
},
{
closed = 1;
nodes = (
"588 0 LINE",
"588 742 LINE",
"492 742 LINE",
"492 386 LINE",
"502 265 LINE",
"496 145 LINE",
"496 0 LINE"
);
}
);
width = 679;
}
);
leftKerningGroup = o;
leftMetricsKey = o;
rightKerningGroup = l;
rightMetricsKey = l;
unicode = 0064;
},
{
color = 8;
glyphname = eth;
lastChange = "2017-09-14 22:08:18 +0000";
layers = (
{
layerId = "16BDD2A6-1A19-40B6-80C2-67966448469B";
paths = (
{
closed = 1;
nodes = (
"484 -8 OFFCURVE",
"593 128 OFFCURVE",
"593 345 CURVE SMOOTH",
"593 594 OFFCURVE",
"457 724 OFFCURVE",
"245 724 CURVE SMOOTH",
"186 724 OFFCURVE",
"133 716 OFFCURVE",
"90 705 CURVE",
"101 630 LINE",
"142 642 OFFCURVE",
"192 650 OFFCURVE",
"240 650 CURVE SMOOTH",
"399 650 OFFCURVE",
"495 552 OFFCURVE",
"495 366 CURVE SMOOTH",
"495 329 OFFCURVE",
"493 287 OFFCURVE",
"483 248 CURVE",
"508 262 LINE",
"490 375 OFFCURVE",
"402 439 OFFCURVE",
"282 439 CURVE SMOOTH",
"141 439 OFFCURVE",
"42 352 OFFCURVE",
"42 220 CURVE SMOOTH",
"42 83 OFFCURVE",
"148 -8 OFFCURVE",
"293 -8 CURVE SMOOTH"
);
},
{
closed = 1;
nodes = (
"203 67 OFFCURVE",
"137 127 OFFCURVE",
"137 216 CURVE SMOOTH",
"137 304 OFFCURVE",
"202 364 OFFCURVE",
"305 364 CURVE SMOOTH",
"401 364 OFFCURVE",
"471 299 OFFCURVE",
"471 216 CURVE SMOOTH",
"471 140 OFFCURVE",
"409 67 OFFCURVE",
"299 67 CURVE SMOOTH"
);
},
{
closed = 1;
nodes = (
"557 654 LINE",
"536 709 LINE",
"127 541 LINE",
"148 485 LINE"
);
}
);
width = 635;
}
);
leftKerningGroup = o;
leftMetricsKey = o;
rightKerningGroup = eth;
rightMetricsKey = o;
unicode = 00F0;
},
{
color = 8;
glyphname = e;
lastChange = "2017-09-14 22:08:18 +0000";
layers = (
{
anchors = (
{
name = bottom;
position = "{305, 0}";
},
{
name = ogonek;
position = "{507, 0}";
},
{
name = top;
position = "{303, 529}";
}
);
layerId = "16BDD2A6-1A19-40B6-80C2-67966448469B";
paths = (
{
closed = 1;
nodes = (
"423 -6 OFFCURVE",
"498 23 OFFCURVE",
"547 80 CURVE",
"496 136 LINE",
"455 92 OFFCURVE",
"402 72 OFFCURVE",
"336 72 CURVE SMOOTH",
"217 72 OFFCURVE",
"136 149 OFFCURVE",
"136 265 CURVE SMOOTH",
"136 280 LINE SMOOTH",
"136 386 OFFCURVE",
"210 459 OFFCURVE",
"315 459 CURVE SMOOTH",
"419 459 OFFCURVE",
"494 386 OFFCURVE",
"494 279 CURVE",
"531 302 LINE",
"119 302 LINE",
"119 237 LINE",
"581 237 LINE",
"582 249 OFFCURVE",
"583 259 OFFCURVE",
"583 267 CURVE SMOOTH",
"583 431 OFFCURVE",
"464 534 OFFCURVE",
"314 534 CURVE SMOOTH",
"158 534 OFFCURVE",
"42 423 OFFCURVE",
"42 265 CURVE SMOOTH",
"42 117 OFFCURVE",
"152 -6 OFFCURVE",
"335 -6 CURVE SMOOTH"
);
}
);
width = 625;
}
);
leftKerningGroup = o;
leftMetricsKey = o;
rightKerningGroup = e;
rightMetricsKey = o;
unicode = 0065;
},
{
color = 8;
glyphname = f;
lastChange = "2017-09-14 22:08:18 +0000";
layers = (
{
layerId = "16BDD2A6-1A19-40B6-80C2-67966448469B";
paths = (
{
closed = 1;
nodes = (
"203 0 LINE",
"203 462 LINE",
"200 505 LINE",
"200 576 LINE SMOOTH",
"200 638 OFFCURVE",
"231 669 OFFCURVE",
"287 669 CURVE SMOOTH",
"315 669 OFFCURVE",
"341 660 OFFCURVE",
"360 645 CURVE",
"389 715 LINE",
"361 737 OFFCURVE",
"317 748 OFFCURVE",
"276 748 CURVE SMOOTH",
"168 748 OFFCURVE",
"107 681 OFFCURVE",
"107 580 CURVE SMOOTH",
"107 0 LINE"
);
},
{
closed = 1;
nodes = (
"354 453 LINE",
"354 529 LINE",
"16 529 LINE",
"16 453 LINE"
);
}
);
width = 353;
}
);
leftKerningGroup = t;
rightKerningGroup = f;
unicode = 0066;
},
{
glyphname = g;
lastChange = "2017-09-14 22:08:18 +0000";
layers = (
{
anchors = (
{
name = top;
position = "{328, 529}";
}
);
layerId = "16BDD2A6-1A19-40B6-80C2-67966448469B";
paths = (
{
closed = 1;
nodes = (
"501 -200 OFFCURVE",
"596 -114 OFFCURVE",
"596 71 CURVE SMOOTH",
"596 529 LINE",
"504 529 LINE",
"504 382 LINE",
"510 279 LINE",
"500 176 LINE",
"500 57 LINE SMOOTH",
"500 -65 OFFCURVE",
"442 -123 OFFCURVE",
"315 -123 CURVE SMOOTH",
"239 -123 OFFCURVE",
"165 -97 OFFCURVE",
"115 -52 CURVE",
"78 -121 LINE",
"135 -171 OFFCURVE",
"225 -200 OFFCURVE",
"323 -200 CURVE SMOOTH"
);
},
{
closed = 1;
nodes = (
"441 22 OFFCURVE",
"531 119 OFFCURVE",
"531 279 CURVE SMOOTH",
"531 439 OFFCURVE",
"441 534 OFFCURVE",
"298 534 CURVE SMOOTH",
"156 534 OFFCURVE",
"42 432 OFFCURVE",
"42 279 CURVE SMOOTH",
"42 126 OFFCURVE",
"156 22 OFFCURVE",
"298 22 CURVE SMOOTH"
);
},
{
closed = 1;
nodes = (
"214 102 OFFCURVE",
"137 174 OFFCURVE",
"137 279 CURVE SMOOTH",
"137 383 OFFCURVE",
"214 454 OFFCURVE",
"317 454 CURVE SMOOTH",
"420 454 OFFCURVE",
"497 383 OFFCURVE",
"497 279 CURVE SMOOTH",
"497 174 OFFCURVE",
"420 102 OFFCURVE",
"317 102 CURVE SMOOTH"
);
}
);
width = 687;
}
);
leftKerningGroup = o;
leftMetricsKey = o;
rightKerningGroup = u;
rightMetricsKey = "=|n";
unicode = 0067;
},
{
glyphname = h;
lastChange = "2017-09-14 22:08:18 +0000";
layers = (
{
anchors = (
{
name = bottom;
position = "{342, 0}";
},
{
name = center;
position = "{198, 634}";
},
{
name = top;
position = "{139, 742}";
},
{
name = topright;
position = "{258, 529}";
}
);
layerId = "16BDD2A6-1A19-40B6-80C2-67966448469B";
paths = (
{
closed = 1;
nodes = (
"594 0 LINE",
"594 308 LINE SMOOTH",
"594 460 OFFCURVE",
"507 534 OFFCURVE",
"381 534 CURVE SMOOTH",
"245 534 OFFCURVE",
"154 447 OFFCURVE",
"147 306 CURVE",
"187 272 LINE",
"187 383 OFFCURVE",
"253 449 OFFCURVE",
"356 449 CURVE SMOOTH",
"445 449 OFFCURVE",
"498 397 OFFCURVE",
"498 293 CURVE SMOOTH",
"498 0 LINE"
);
},
{
closed = 1;
nodes = (
"187 0 LINE",
"187 742 LINE",
"91 742 LINE",
"91 0 LINE"
);
}
);
width = 681;
}
);
leftKerningGroup = l;
leftMetricsKey = l;
rightKerningGroup = n;
rightMetricsKey = n;
unicode = 0068;
},
{
glyphname = idotless;
lastChange = "2017-09-14 22:08:18 +0000";
layers = (
{
anchors = (
{
name = bottom;
position = "{139, 0}";
},
{
name = ogonek;
position = "{187, 0}";
},
{
name = top;
position = "{139, 529}";
}
);
layerId = "16BDD2A6-1A19-40B6-80C2-67966448469B";
paths = (
{
closed = 1;
nodes = (
"187 0 LINE",
"187 529 LINE",
"91 529 LINE",
"91 0 LINE"
);
}
);
width = 278;
}
);
leftKerningGroup = n;
leftMetricsKey = n;
rightKerningGroup = u;
rightMetricsKey = "=|n";
unicode = 0131;
},
{
glyphname = jdotless;
lastChange = "2017-09-14 22:08:27 +0000";
layers = (
{
anchors = (
{
name = top;
position = "{144, 529}";
}
);
layerId = "16BDD2A6-1A19-40B6-80C2-67966448469B";
widthMetricsKey = "=i+5";
paths = (
{
closed = 1;
nodes = (
"132 -200 OFFCURVE",
"192 -133 OFFCURVE",
"192 -32 CURVE SMOOTH",
"192 529 LINE",
"96 529 LINE",
"96 -28 LINE SMOOTH",
"96 -90 OFFCURVE",
"66 -121 OFFCURVE",
"13 -121 CURVE SMOOTH",
"-16 -121 OFFCURVE",
"-42 -113 OFFCURVE",
"-62 -97 CURVE",
"-90 -167 LINE",
"-62 -189 OFFCURVE",
"-18 -200 OFFCURVE",
"27 -200 CURVE SMOOTH"
);
}
);
width = 283;
}
);
leftKerningGroup = j;
widthMetricsKey = i;
rightKerningGroup = u;
rightMetricsKey = "=|n";
unicode = 0237;
},
{
glyphname = k;
lastChange = "2017-09-14 22:08:18 +0000";
layers = (
{
anchors = (
{
name = bottom;
position = "{313, 0}";
},
{
name = top;
position = "{139, 742}";
},
{
name = topright;
position = "{253, 529}";
}
);
layerId = "16BDD2A6-1A19-40B6-80C2-67966448469B";
paths = (
{
closed = 1;
nodes = (
"306 258 LINE",
"358 301 LINE",
"592 529 LINE",
"475 529 LINE",
"171 247 LINE",
"169 129 LINE"
);
},
{
closed = 1;
nodes = (
"187 0 LINE",
"187 742 LINE",
"91 742 LINE",
"91 0 LINE"
);
},
{
closed = 1;
nodes = (
"613 0 LINE",
"349 334 LINE",
"288 260 LINE",
"496 0 LINE"
);
}
);
width = 606;
}
);
leftKerningGroup = l;
leftMetricsKey = l;
rightKerningGroup = k;
unicode = 006B;
},
{
glyphname = l;
lastChange = "2017-09-14 22:08:18 +0000";
layers = (
{
anchors = (
{
name = bottom;
position = "{139, 0}";
},
{
name = center;
position = "{139, 358}";
},
{
name = dot;
position = "{312, 358}";
},
{
name = top;
position = "{139, 742}";
},
{
name = topright;
position = "{276, 742}";
}
);
layerId = "16BDD2A6-1A19-40B6-80C2-67966448469B";
paths = (
{
closed = 1;
nodes = (
"187 0 LINE",
"187 742 LINE",
"91 742 LINE",
"91 0 LINE"
);
}
);
width = 278;
}
);
leftKerningGroup = l;
rightKerningGroup = l;
rightMetricsKey = "=|";
unicode = 006C;
},
{
glyphname = m;
lastChange = "2017-09-14 22:08:18 +0000";
layers = (
{
anchors = (
{
name = bottom;
position = "{530, 0}";
}
);
layerId = "16BDD2A6-1A19-40B6-80C2-67966448469B";
paths = (
{
closed = 1;
nodes = (
"971 0 LINE",
"971 308 LINE SMOOTH",
"971 460 OFFCURVE",
"888 534 OFFCURVE",
"764 534 CURVE SMOOTH",
"634 534 OFFCURVE",
"546 449 OFFCURVE",
"535 325 CURVE",
"579 276 LINE",
"579 384 OFFCURVE",
"641 449 OFFCURVE",
"739 449 CURVE SMOOTH",
"824 449 OFFCURVE",
"875 397 OFFCURVE",
"875 293 CURVE SMOOTH",
"875 0 LINE"
);
},
{
closed = 1;
nodes = (
"187 0 LINE",
"187 341 LINE",
"183 371 LINE",
"183 529 LINE",
"91 529 LINE",
"91 0 LINE"
);
},
{
closed = 1;
nodes = (
"579 0 LINE",
"579 308 LINE SMOOTH",
"579 459 OFFCURVE",
"496 534 OFFCURVE",
"373 534 CURVE SMOOTH",
"242 534 OFFCURVE",
"154 447 OFFCURVE",
"147 306 CURVE",
"187 276 LINE",
"187 384 OFFCURVE",
"249 449 OFFCURVE",
"347 449 CURVE SMOOTH",
"432 449 OFFCURVE",
"483 397 OFFCURVE",
"483 293 CURVE SMOOTH",
"483 0 LINE"
);
}
);
width = 1058;
}
);
leftKerningGroup = n;
leftMetricsKey = n;
rightKerningGroup = n;
rightMetricsKey = n;
unicode = 006D;
},
{
glyphname = n;
lastChange = "2017-09-14 22:08:18 +0000";
layers = (
{
anchors = (
{
name = bottom;
position = "{342, 0}";
},
{
name = top;
position = "{342, 529}";
}
);
layerId = "16BDD2A6-1A19-40B6-80C2-67966448469B";
paths = (
{
closed = 1;
nodes = (
"594 0 LINE",
"594 308 LINE SMOOTH",
"594 460 OFFCURVE",
"507 534 OFFCURVE",
"381 534 CURVE SMOOTH",
"245 534 OFFCURVE",
"154 447 OFFCURVE",
"147 306 CURVE",
"187 272 LINE",
"187 383 OFFCURVE",
"253 449 OFFCURVE",
"356 449 CURVE SMOOTH",
"445 449 OFFCURVE",
"498 397 OFFCURVE",
"498 293 CURVE SMOOTH",
"498 0 LINE"
);
},
{
closed = 1;
nodes = (
"187 0 LINE",
"187 341 LINE",
"183 371 LINE",
"183 529 LINE",
"91 529 LINE",
"91 0 LINE"
);
}
);
width = 681;
}
);
leftKerningGroup = n;
rightKerningGroup = n;
unicode = 006E;
},
{
glyphname = eng;
lastChange = "2017-09-14 22:08:18 +0000";
layers = (
{
layerId = "16BDD2A6-1A19-40B6-80C2-67966448469B";
paths = (
{
closed = 1;
nodes = (
"534 -200 OFFCURVE",
"594 -133 OFFCURVE",
"594 -32 CURVE SMOOTH",
"594 308 LINE SMOOTH",
"594 460 OFFCURVE",
"507 534 OFFCURVE",
"381 534 CURVE SMOOTH",
"245 534 OFFCURVE",
"154 447 OFFCURVE",
"147 306 CURVE",
"187 272 LINE",
"187 383 OFFCURVE",
"253 449 OFFCURVE",
"356 449 CURVE SMOOTH",
"445 449 OFFCURVE",
"498 397 OFFCURVE",
"498 293 CURVE SMOOTH",
"498 -28 LINE SMOOTH",
"498 -90 OFFCURVE",
"468 -121 OFFCURVE",
"416 -121 CURVE SMOOTH",
"386 -121 OFFCURVE",
"360 -113 OFFCURVE",
"341 -97 CURVE",
"312 -167 LINE",
"340 -189 OFFCURVE",
"384 -200 OFFCURVE",
"429 -200 CURVE SMOOTH"
);
},
{
closed = 1;
nodes = (
"187 0 LINE",
"187 341 LINE",
"183 371 LINE",
"183 529 LINE",
"91 529 LINE",
"91 0 LINE"
);
}
);
width = 681;
}
);
leftKerningGroup = n;
leftMetricsKey = n;
rightKerningGroup = n;
rightMetricsKey = n;
unicode = 014B;
},
{
glyphname = o;
lastChange = "2017-09-14 22:08:18 +0000";
layers = (
{
anchors = (
{
name = bottom;
position = "{314, 0}";
},
{
name = center;
position = "{314, 265}";
},
{
name = ogonek;
position = "{413, 0}";
},
{
name = top;
position = "{314, 529}";
},
{
name = topright;
position = "{451, 529}";
}
);
layerId = "16BDD2A6-1A19-40B6-80C2-67966448469B";
paths = (
{
closed = 1;
nodes = (
"473 -6 OFFCURVE",
"589 107 OFFCURVE",
"589 265 CURVE SMOOTH",
"589 423 OFFCURVE",
"473 534 OFFCURVE",
"315 534 CURVE SMOOTH",
"157 534 OFFCURVE",
"42 423 OFFCURVE",
"42 265 CURVE SMOOTH",
"42 107 OFFCURVE",
"157 -6 OFFCURVE",
"315 -6 CURVE SMOOTH"
);
},
{
closed = 1;
nodes = (
"214 74 OFFCURVE",
"137 150 OFFCURVE",
"137 265 CURVE SMOOTH",
"137 380 OFFCURVE",
"214 454 OFFCURVE",
"315 454 CURVE SMOOTH",
"417 454 OFFCURVE",
"494 380 OFFCURVE",
"494 265 CURVE SMOOTH",
"494 150 OFFCURVE",
"417 74 OFFCURVE",
"315 74 CURVE SMOOTH"
);
}
);
width = 631;
}
);
leftKerningGroup = o;
rightKerningGroup = o;
rightMetricsKey = "=|";
unicode = 006F;
},
{
color = 8;
glyphname = oe;
lastChange = "2017-09-14 22:08:18 +0000";
layers = (
{
anchors = (
{
name = bottom;
position = "{542, 0}";
},
{
name = top;
position = "{542, 529}";
}
);
layerId = "16BDD2A6-1A19-40B6-80C2-67966448469B";
paths = (
{
closed = 1;
nodes = (
"471 -6 OFFCURVE",
"579 107 OFFCURVE",
"579 265 CURVE SMOOTH",
"579 423 OFFCURVE",
"471 534 OFFCURVE",
"314 534 CURVE SMOOTH",
"158 534 OFFCURVE",
"42 423 OFFCURVE",
"42 265 CURVE SMOOTH",
"42 107 OFFCURVE",
"158 -6 OFFCURVE",
"314 -6 CURVE SMOOTH"
);
},
{
closed = 1;
nodes = (
"214 74 OFFCURVE",
"137 150 OFFCURVE",
"137 265 CURVE SMOOTH",
"137 380 OFFCURVE",
"214 454 OFFCURVE",
"316 454 CURVE SMOOTH",
"417 454 OFFCURVE",
"494 380 OFFCURVE",
"494 265 CURVE SMOOTH",
"494 150 OFFCURVE",
"417 74 OFFCURVE",
"316 74 CURVE SMOOTH"
);
},
{
closed = 1;
nodes = (
"875 -6 OFFCURVE",
"950 23 OFFCURVE",
"999 80 CURVE",
"948 136 LINE",
"907 92 OFFCURVE",
"853 72 OFFCURVE",
"789 72 CURVE SMOOTH",
"672 72 OFFCURVE",
"589 147 OFFCURVE",
"589 262 CURVE SMOOTH",
"589 280 LINE SMOOTH",
"589 388 OFFCURVE",
"664 462 OFFCURVE",
"767 462 CURVE SMOOTH",
"871 462 OFFCURVE",
"946 388 OFFCURVE",
"946 280 CURVE",
"966 301 LINE",
"581 301 LINE",
"581 240 LINE",
"1033 240 LINE",
"1034 247 OFFCURVE",
"1034 259 OFFCURVE",
"1034 269 CURVE SMOOTH",
"1034 432 OFFCURVE",
"915 534 OFFCURVE",
"768 534 CURVE SMOOTH",
"613 534 OFFCURVE",
"501 423 OFFCURVE",
"501 265 CURVE SMOOTH",
"501 108 OFFCURVE",
"618 -6 OFFCURVE",
"787 -6 CURVE SMOOTH"
);
}
);
width = 1076;
}
);
leftKerningGroup = o;
leftMetricsKey = o;
rightKerningGroup = e;
rightMetricsKey = e;
unicode = 0153;
},
{
glyphname = ohorn;
lastChange = "2017-09-14 22:08:18 +0000";
layers = (
{
anchors = (
{
name = bottom;
position = "{315, 0}";
},
{
name = top;
position = "{315, 529}";
}
);
layerId = "16BDD2A6-1A19-40B6-80C2-67966448469B";
paths = (
{
closed = 1;
nodes = (
"473 -6 OFFCURVE",
"589 107 OFFCURVE",
"589 265 CURVE SMOOTH",
"589 385 OFFCURVE",
"522 478 OFFCURVE",
"421 515 CURVE",
"371 468 LINE",
"394 464 OFFCURVE",
"415 462 OFFCURVE",
"436 462 CURVE SMOOTH",
"532 462 OFFCURVE",
"587 517 OFFCURVE",
"587 593 CURVE SMOOTH",
"587 626 OFFCURVE",
"576 658 OFFCURVE",
"559 681 CURVE",
"493 659 LINE",
"504 642 OFFCURVE",
"514 620 OFFCURVE",
"514 596 CURVE SMOOTH",
"514 559 OFFCURVE",
"490 527 OFFCURVE",
"438 527 CURVE SMOOTH",
"393 527 OFFCURVE",
"370 534 OFFCURVE",
"316 534 CURVE SMOOTH",
"157 534 OFFCURVE",
"42 423 OFFCURVE",
"42 265 CURVE SMOOTH",
"42 107 OFFCURVE",
"157 -6 OFFCURVE",
"315 -6 CURVE SMOOTH"
);
},
{
closed = 1;
nodes = (
"214 74 OFFCURVE",
"137 150 OFFCURVE",
"137 265 CURVE SMOOTH",
"137 380 OFFCURVE",
"214 454 OFFCURVE",
"315 454 CURVE SMOOTH",
"417 454 OFFCURVE",
"494 380 OFFCURVE",
"494 265 CURVE SMOOTH",
"494 150 OFFCURVE",
"417 74 OFFCURVE",
"315 74 CURVE SMOOTH"
);
}
);
width = 631;
}
);
leftKerningGroup = o;
leftMetricsKey = "=o";
widthMetricsKey = o;
rightKerningGroup = ohorn;
unicode = 01A1;
},
{
glyphname = p;
lastChange = "2017-09-14 22:08:27 +0000";
layers = (
{
anchors = (
{
name = bottom;
position = "{384, 0}";
},
{
name = top;
position = "{365, 529}";
}
);
layerId = "16BDD2A6-1A19-40B6-80C2-67966448469B";
paths = (
{
closed = 1;
nodes = (
"525 -6 OFFCURVE",
"638 102 OFFCURVE",
"638 264 CURVE SMOOTH",
"638 426 OFFCURVE",
"525 534 OFFCURVE",
"383 534 CURVE SMOOTH",
"238 534 OFFCURVE",
"151 434 OFFCURVE",
"151 264 CURVE SMOOTH",
"151 95 OFFCURVE",
"241 -6 OFFCURVE",
"383 -6 CURVE SMOOTH"
);
},
{
closed = 1;
nodes = (
"187 -194 LINE",
"187 143 LINE",
"177 263 LINE",
"183 384 LINE",
"183 529 LINE",
"91 529 LINE",
"91 -194 LINE"
);
},
{
closed = 1;
nodes = (
"262 74 OFFCURVE",
"186 149 OFFCURVE",
"186 264 CURVE SMOOTH",
"186 379 OFFCURVE",
"262 454 OFFCURVE",
"364 454 CURVE SMOOTH",
"466 454 OFFCURVE",
"543 379 OFFCURVE",
"543 264 CURVE SMOOTH",
"543 149 OFFCURVE",
"466 74 OFFCURVE",
"364 74 CURVE SMOOTH"
);
}
);
width = 680;
}
);
leftKerningGroup = n;
leftMetricsKey = n;
rightKerningGroup = o;
rightMetricsKey = o;
unicode = 0070;
},
{
glyphname = thorn;
lastChange = "2017-09-14 22:08:27 +0000";
layers = (
{
anchors = (
{
name = bottom;
position = "{383, 0}";
},
{
name = top;
position = "{383, 529}";
}
);
layerId = "16BDD2A6-1A19-40B6-80C2-67966448469B";
paths = (
{
closed = 1;
nodes = (
"525 -6 OFFCURVE",
"638 102 OFFCURVE",
"638 264 CURVE SMOOTH",
"638 426 OFFCURVE",
"525 534 OFFCURVE",
"383 534 CURVE SMOOTH",
"238 534 OFFCURVE",
"151 434 OFFCURVE",
"151 264 CURVE SMOOTH",
"151 95 OFFCURVE",
"241 -6 OFFCURVE",
"383 -6 CURVE SMOOTH"
);
},
{
closed = 1;
nodes = (
"187 -194 LINE",
"187 143 LINE",
"177 263 LINE",
"183 384 LINE",
"183 742 LINE",
"91 742 LINE",
"91 -194 LINE"
);
},
{
closed = 1;
nodes = (
"262 74 OFFCURVE",
"186 149 OFFCURVE",
"186 264 CURVE SMOOTH",
"186 379 OFFCURVE",
"262 454 OFFCURVE",
"364 454 CURVE SMOOTH",
"466 454 OFFCURVE",
"543 379 OFFCURVE",
"543 264 CURVE SMOOTH",
"543 149 OFFCURVE",
"466 74 OFFCURVE",
"364 74 CURVE SMOOTH"
);
}
);
width = 680;
}
);
leftKerningGroup = l;
leftMetricsKey = l;
rightKerningGroup = o;
rightMetricsKey = o;
unicode = 00FE;
},
{
glyphname = q;
lastChange = "2017-09-14 22:08:18 +0000";
layers = (
{
anchors = (
{
name = bottom;
position = "{297, 0}";
},
{
name = top;
position = "{315, 529}";
}
);
layerId = "16BDD2A6-1A19-40B6-80C2-67966448469B";
paths = (
{
closed = 1;
nodes = (
"438 -6 OFFCURVE",
"529 95 OFFCURVE",
"529 264 CURVE SMOOTH",
"529 434 OFFCURVE",
"441 534 OFFCURVE",
"297 534 CURVE SMOOTH",
"155 534 OFFCURVE",
"42 426 OFFCURVE",
"42 264 CURVE SMOOTH",
"42 102 OFFCURVE",
"155 -6 OFFCURVE",
"297 -6 CURVE SMOOTH"
);
},
{
closed = 1;
nodes = (
"214 74 OFFCURVE",
"137 149 OFFCURVE",
"137 264 CURVE SMOOTH",
"137 379 OFFCURVE",
"214 454 OFFCURVE",
"315 454 CURVE SMOOTH",
"417 454 OFFCURVE",
"494 379 OFFCURVE",
"494 264 CURVE SMOOTH",
"494 149 OFFCURVE",
"417 74 OFFCURVE",
"315 74 CURVE SMOOTH"
);
},
{
closed = 1;
nodes = (
"588 -194 LINE",
"588 529 LINE",
"496 529 LINE",
"496 384 LINE",
"502 263 LINE",
"492 143 LINE",
"492 -194 LINE"
);
}
);
width = 679;
}
);
leftKerningGroup = o;
leftMetricsKey = o;
rightKerningGroup = u;
rightMetricsKey = "=|n";
unicode = 0071;
},
{
glyphname = r;
lastChange = "2017-09-14 22:08:18 +0000";
layers = (
{
anchors = (
{
name = bottom;
position = "{139, 0}";
},
{
name = top;
position = "{234, 529}";
}
);
layerId = "16BDD2A6-1A19-40B6-80C2-67966448469B";
paths = (
{
closed = 1;
nodes = (
"187 0 LINE",
"187 341 LINE",
"183 371 LINE",
"183 529 LINE",
"91 529 LINE",
"91 0 LINE"
);
},
{
closed = 1;
nodes = (
"187 382 OFFCURVE",
"251 446 OFFCURVE",
"354 446 CURVE SMOOTH",
"361 446 OFFCURVE",
"368 445 OFFCURVE",
"376 444 CURVE",
"376 534 LINE",
"237 534 OFFCURVE",
"154 450 OFFCURVE",
"154 298 CURVE",
"187 264 LINE"
);
}
);
width = 410;
}
);
leftKerningGroup = n;
leftMetricsKey = n;
rightKerningGroup = r;
unicode = 0072;
},
{
glyphname = s;
lastChange = "2017-09-14 22:08:18 +0000";
layers = (
{
anchors = (
{
name = bottom;
position = "{248, 0}";
},
{
name = top;
position = "{248, 529}";
}
);
layerId = "16BDD2A6-1A19-40B6-80C2-67966448469B";
paths = (
{
closed = 1;
nodes = (
"395 -6 OFFCURVE",
"471 58 OFFCURVE",
"471 148 CURVE SMOOTH",
"471 353 OFFCURVE",
"131 252 OFFCURVE",
"131 383 CURVE SMOOTH",
"131 433 OFFCURVE",
"175 463 OFFCURVE",
"260 463 CURVE SMOOTH",
"314 463 OFFCURVE",
"372 449 OFFCURVE",
"419 417 CURVE",
"449 485 LINE",
"401 516 OFFCURVE",
"329 534 OFFCURVE",
"259 534 CURVE SMOOTH",
"118 534 OFFCURVE",
"40 471 OFFCURVE",
"40 381 CURVE SMOOTH",
"40 172 OFFCURVE",
"381 274 OFFCURVE",
"381 146 CURVE SMOOTH",
"381 94 OFFCURVE",
"338 66 OFFCURVE",
"247 66 CURVE SMOOTH",
"171 66 OFFCURVE",
"99 92 OFFCURVE",
"57 126 CURVE",
"26 59 LINE",
"71 21 OFFCURVE",
"157 -6 OFFCURVE",
"245 -6 CURVE SMOOTH"
);
}
);
width = 501;
}
);
leftKerningGroup = s;
rightKerningGroup = s;
unicode = 0073;
},
{
glyphname = germandbls;
lastChange = "2017-09-14 22:08:18 +0000";
layers = (
{
layerId = "16BDD2A6-1A19-40B6-80C2-67966448469B";
paths = (
{
closed = 1;
nodes = (
"530 -6 OFFCURVE",
"631 72 OFFCURVE",
"631 201 CURVE SMOOTH",
"631 329 OFFCURVE",
"535 401 OFFCURVE",
"384 401 CURVE",
"349 357 LINE",
"461 357 OFFCURVE",
"572 431 OFFCURVE",
"572 554 CURVE SMOOTH",
"572 664 OFFCURVE",
"485 748 OFFCURVE",
"339 748 CURVE SMOOTH",
"198 748 OFFCURVE",
"91 660 OFFCURVE",
"91 494 CURVE SMOOTH",
"91 0 LINE",
"187 0 LINE",
"187 505 LINE SMOOTH",
"187 614 OFFCURVE",
"248 668 OFFCURVE",
"340 668 CURVE SMOOTH",
"428 668 OFFCURVE",
"481 618 OFFCURVE",
"481 546 CURVE SMOOTH",
"481 463 OFFCURVE",
"420 411 OFFCURVE",
"320 410 CURVE",
"320 332 LINE",
"377 332 LINE SMOOTH",
"472 332 OFFCURVE",
"536 286 OFFCURVE",
"536 204 CURVE SMOOTH",
"536 121 OFFCURVE",
"468 74 OFFCURVE",
"380 74 CURVE SMOOTH",
"347 74 OFFCURVE",
"319 79 OFFCURVE",
"292 88 CURVE",
"280 10 LINE",
"309 0 OFFCURVE",
"353 -6 OFFCURVE",
"392 -6 CURVE SMOOTH"
);
}
);
width = 673;
}
);
leftKerningGroup = l;
leftMetricsKey = l;
rightKerningGroup = o;
rightMetricsKey = o;
unicode = 00DF;
},
{
color = 8;
glyphname = t;
lastChange = "2017-09-14 22:08:18 +0000";
layers = (
{
anchors = (
{
name = bottom;
position = "{254, 0}";
},
{
name = center;
position = "{191, 296}";
},
{
name = top;
position = "{155, 646}";
},
{
name = topright;
position = "{288, 742}";
}
);
layerId = "16BDD2A6-1A19-40B6-80C2-67966448469B";
paths = (
{
closed = 1;
nodes = (
"317 -6 OFFCURVE",
"361 5 OFFCURVE",
"389 28 CURVE",
"360 98 LINE",
"340 81 OFFCURVE",
"314 73 OFFCURVE",
"287 73 CURVE SMOOTH",
"233 73 OFFCURVE",
"203 104 OFFCURVE",
"203 162 CURVE SMOOTH",
"203 646 LINE",
"107 646 LINE",
"107 158 LINE SMOOTH",
"107 53 OFFCURVE",
"166 -6 OFFCURVE",
"273 -6 CURVE SMOOTH"
);
},
{
closed = 1;
nodes = (
"354 453 LINE",
"354 529 LINE",
"16 529 LINE",
"16 453 LINE"
);
}
);
width = 414;
}
);
leftKerningGroup = t;
leftMetricsKey = f;
rightKerningGroup = t;
unicode = 0074;
},
{
glyphname = u;
lastChange = "2017-09-14 22:08:27 +0000";
layers = (
{
anchors = (
{
name = bottom;
position = "{337, 0}";
},
{
name = ogonek;
position = "{587, 0}";
},
{
name = top;
position = "{337, 529}";
},
{
name = topright;
position = "{539, 529}";
}
);
layerId = "16BDD2A6-1A19-40B6-80C2-67966448469B";
paths = (
{
closed = 1;
nodes = (
"435 -6 OFFCURVE",
"523 81 OFFCURVE",
"531 223 CURVE",
"490 257 LINE",
"490 146 OFFCURVE",
"427 80 OFFCURVE",
"330 80 CURVE SMOOTH",
"238 80 OFFCURVE",
"184 132 OFFCURVE",
"184 240 CURVE SMOOTH",
"184 529 LINE",
"87 529 LINE",
"87 225 LINE SMOOTH",
"87 70 OFFCURVE",
"175 -6 OFFCURVE",
"306 -6 CURVE SMOOTH"
);
},
{
closed = 1;
nodes = (
"587 0 LINE",
"587 529 LINE",
"490 529 LINE",
"490 188 LINE",
"495 158 LINE",
"495 0 LINE"
);
}
);
width = 678;
}
);
leftKerningGroup = u;
leftMetricsKey = "=|n";
rightKerningGroup = u;
rightMetricsKey = "=|n";
unicode = 0075;
},
{
glyphname = v;
lastChange = "2017-09-14 22:08:18 +0000";
layers = (
{
anchors = (
{
name = bottom;
position = "{279, 0}";
},
{
name = top;
position = "{279, 529}";
}
);
layerId = "16BDD2A6-1A19-40B6-80C2-67966448469B";
paths = (
{
closed = 1;
nodes = (
"329 0 LINE",
"560 529 LINE",
"466 529 LINE",
"256 49 LINE",
"305 49 LINE",
"98 529 LINE",
"-2 529 LINE",
"230 0 LINE"
);
}
);
width = 558;
}
);
leftKerningGroup = v;
rightKerningGroup = v;
rightMetricsKey = "=|";
unicode = 0076;
},
{
color = 3;
glyphname = w;
lastChange = "2017-09-14 22:08:18 +0000";
layers = (
{
anchors = (
{
name = bottom;
position = "{485, 0}";
},
{
name = top;
position = "{485, 529}";
}
);
layerId = "16BDD2A6-1A19-40B6-80C2-67966448469B";
paths = (
{
closed = 1;
nodes = (
"318 0 LINE",
"501 441 LINE",
"470 441 LINE",
"651 0 LINE",
"750 0 LINE",
"963 529 LINE",
"871 529 LINE",
"677 49 LINE",
"724 49 LINE",
"532 529 LINE",
"443 529 LINE",
"247 49 LINE",
"294 49 LINE",
"104 529 LINE",
"6 529 LINE",
"219 0 LINE"
);
}
);
width = 969;
}
);
leftKerningGroup = v;
rightKerningGroup = v;
rightMetricsKey = "=|";
unicode = 0077;
},
{
glyphname = x;
lastChange = "2017-09-14 22:08:18 +0000";
layers = (
{
layerId = "16BDD2A6-1A19-40B6-80C2-67966448469B";
paths = (
{
closed = 1;
nodes = (
"121 0 LINE",
"293 226 LINE",
"255 231 LINE",
"426 0 LINE",
"538 0 LINE",
"310 301 LINE",
"309 245 LINE",
"527 529 LINE",
"424 529 LINE",
"257 309 LINE",
"297 312 LINE",
"134 529 LINE",
"24 529 LINE",
"240 243 LINE",
"243 298 LINE",
"14 0 LINE"
);
}
);
width = 552;
}
);
leftKerningGroup = x;
rightKerningGroup = x;
rightMetricsKey = "=|";
unicode = 0078;
},
{
glyphname = y;
lastChange = "2017-09-14 22:08:18 +0000";
layers = (
{
anchors = (
{
name = bottom;
position = "{410, 0}";
},
{
name = top;
position = "{266, 529}";
}
);
layerId = "16BDD2A6-1A19-40B6-80C2-67966448469B";
paths = (
{
closed = 1;
nodes = (
"195 -200 OFFCURVE",
"257 -165 OFFCURVE",
"303 -55 CURVE SMOOTH",
"560 529 LINE",
"466 529 LINE",
"257 48 LINE",
"248 35 LINE",
"216 -39 LINE SMOOTH",
"188 -99 OFFCURVE",
"157 -120 OFFCURVE",
"110 -120 CURVE SMOOTH",
"75 -120 OFFCURVE",
"45 -107 OFFCURVE",
"19 -82 CURVE",
"-18 -153 LINE",
"13 -183 OFFCURVE",
"63 -200 OFFCURVE",
"114 -200 CURVE SMOOTH"
);
},
{
closed = 1;
nodes = (
"303 56 LINE",
"98 529 LINE",
"-2 529 LINE",
"239 -16 LINE"
);
}
);
width = 558;
}
);
leftKerningGroup = v;
widthMetricsKey = v;
rightKerningGroup = v;
rightMetricsKey = v;
unicode = 0079;
},
{
glyphname = z;
lastChange = "2017-09-14 22:08:18 +0000";
layers = (
{
anchors = (
{
name = bottom;
position = "{268, 0}";
},
{
name = top;
position = "{262, 529}";
}
);
layerId = "16BDD2A6-1A19-40B6-80C2-67966448469B";
paths = (
{
closed = 1;
nodes = (
"483 0 LINE",
"483 76 LINE",
"115 76 LINE",
"136 44 LINE",
"476 469 LINE",
"476 529 LINE",
"46 529 LINE",
"46 453 LINE",
"399 453 LINE",
"380 485 LINE",
"40 60 LINE",
"40 0 LINE"
);
}
);
width = 520;
}
);
leftKerningGroup = z;
rightKerningGroup = z;
unicode = 007A;
},
{
glyphname = a.ss01;
lastChange = "2017-09-14 22:08:18 +0000";
layers = (
{
anchors = (
{
name = bottom;
position = "{333, 0}";
},
{
name = ogonek;
position = "{588, 0}";
},
{
name = top;
position = "{333, 529}";
}
);
layerId = "16BDD2A6-1A19-40B6-80C2-67966448469B";
paths = (
{
closed = 1;
nodes = (
"441 -6 OFFCURVE",
"529 95 OFFCURVE",
"529 265 CURVE SMOOTH",
"529 434 OFFCURVE",
"438 534 OFFCURVE",
"297 534 CURVE SMOOTH",
"155 534 OFFCURVE",
"42 427 OFFCURVE",
"42 265 CURVE SMOOTH",
"42 103 OFFCURVE",
"155 -6 OFFCURVE",
"297 -6 CURVE SMOOTH"
);
},
{
closed = 1;
nodes = (
"214 74 OFFCURVE",
"137 150 OFFCURVE",
"137 265 CURVE SMOOTH",
"137 380 OFFCURVE",
"214 454 OFFCURVE",
"315 454 CURVE SMOOTH",
"417 454 OFFCURVE",
"494 380 OFFCURVE",
"494 265 CURVE SMOOTH",
"494 150 OFFCURVE",
"417 74 OFFCURVE",
"315 74 CURVE SMOOTH"
);
},
{
closed = 1;
nodes = (
"588 0 LINE",
"588 529 LINE",
"492 529 LINE",
"492 386 LINE",
"502 265 LINE",
"496 145 LINE",
"496 0 LINE"
);
}
);
width = 679;
}
);
leftKerningGroup = o;
leftMetricsKey = o;
rightKerningGroup = u;
rightMetricsKey = "=|n";
},
{
color = 8;
glyphname = ae.ss01;
lastChange = "2017-09-14 22:08:18 +0000";
layers = (
{
anchors = (
{
name = top;
position = "{485, 529}";
}
);
layerId = "16BDD2A6-1A19-40B6-80C2-67966448469B";
paths = (
{
closed = 1;
nodes = (
"365 -6 OFFCURVE",
"459 41 OFFCURVE",
"483 174 CURVE",
"437 176 LINE",
"480 51 OFFCURVE",
"591 -6 OFFCURVE",
"709 -6 CURVE SMOOTH",
"799 -6 OFFCURVE",
"874 23 OFFCURVE",
"923 80 CURVE",
"872 136 LINE",
"831 92 OFFCURVE",
"777 71 OFFCURVE",
"712 71 CURVE SMOOTH",
"595 71 OFFCURVE",
"512 147 OFFCURVE",
"512 262 CURVE SMOOTH",
"512 280 LINE SMOOTH",
"512 387 OFFCURVE",
"587 465 OFFCURVE",
"696 465 CURVE SMOOTH",
"798 465 OFFCURVE",
"863 387 OFFCURVE",
"868 302 CURVE",
"903 330 LINE",
"495 253 LINE",
"500 192 LINE",
"958 279 LINE",
"953 433 OFFCURVE",
"842 534 OFFCURVE",
"696 534 CURVE SMOOTH",
"586 534 OFFCURVE",
"496 480 OFFCURVE",
"455 395 CURVE",
"489 390 LINE",
"468 487 OFFCURVE",
"398 534 OFFCURVE",
"284 534 CURVE SMOOTH",
"205 534 OFFCURVE",
"122 508 OFFCURVE",
"68 462 CURVE",
"104 396 LINE",
"145 430 OFFCURVE",
"208 456 OFFCURVE",
"273 456 CURVE SMOOTH",
"369 456 OFFCURVE",
"415 416 OFFCURVE",
"415 329 CURVE SMOOTH",
"415 201 LINE SMOOTH",
"415 110 OFFCURVE",
"352 62 OFFCURVE",
"265 62 CURVE SMOOTH",
"186 62 OFFCURVE",
"143 98 OFFCURVE",
"143 153 CURVE SMOOTH",
"143 204 OFFCURVE",
"179 241 OFFCURVE",
"270 241 CURVE SMOOTH",
"425 241 LINE",
"425 302 LINE",
"257 302 LINE SMOOTH",
"109 302 OFFCURVE",
"51 233 OFFCURVE",
"51 149 CURVE SMOOTH",
"51 58 OFFCURVE",
"122 -6 OFFCURVE",
"254 -6 CURVE SMOOTH"
);
}
);
width = 1000;
}
);
leftKerningGroup = a;
leftMetricsKey = a;
rightKerningGroup = e;
rightMetricsKey = o;
},
{
color = 8;
glyphname = e.ss01;
lastChange = "2017-09-14 22:08:18 +0000";
layers = (
{
anchors = (
{
name = bottom;
position = "{311, 0}";
},
{
name = ogonek;
position = "{456, 0}";
},
{
name = top;
position = "{311, 529}";
}
);
layerId = "16BDD2A6-1A19-40B6-80C2-67966448469B";
paths = (
{
closed = 1;
nodes = (
"423 -6 OFFCURVE",
"498 23 OFFCURVE",
"547 80 CURVE",
"496 136 LINE",
"455 92 OFFCURVE",
"402 71 OFFCURVE",
"336 71 CURVE SMOOTH",
"219 71 OFFCURVE",
"136 147 OFFCURVE",
"136 262 CURVE SMOOTH",
"136 280 LINE SMOOTH",
"136 387 OFFCURVE",
"211 465 OFFCURVE",
"320 465 CURVE SMOOTH",
"422 465 OFFCURVE",
"488 387 OFFCURVE",
"493 302 CURVE",
"527 330 LINE",
"119 253 LINE",
"124 192 LINE",
"582 279 LINE",
"578 433 OFFCURVE",
"466 534 OFFCURVE",
"320 534 CURVE SMOOTH",
"159 534 OFFCURVE",
"42 423 OFFCURVE",
"42 265 CURVE SMOOTH",
"42 109 OFFCURVE",
"162 -6 OFFCURVE",
"334 -6 CURVE SMOOTH"
);
}
);
width = 624;
}
);
leftKerningGroup = o;
leftMetricsKey = o;
rightKerningGroup = e;
rightMetricsKey = o;
},
{
color = 8;
glyphname = f.ss01;
lastChange = "2017-09-14 22:08:27 +0000";
layers = (
{
layerId = "16BDD2A6-1A19-40B6-80C2-67966448469B";
paths = (
{
closed = 1;
nodes = (
"187 0 LINE",
"187 462 LINE",
"184 505 LINE",
"184 576 LINE SMOOTH",
"184 638 OFFCURVE",
"215 669 OFFCURVE",
"271 669 CURVE SMOOTH",
"298 669 OFFCURVE",
"325 660 OFFCURVE",
"344 645 CURVE",
"373 715 LINE",
"346 737 OFFCURVE",
"301 748 OFFCURVE",
"260 748 CURVE SMOOTH",
"152 748 OFFCURVE",
"91 681 OFFCURVE",
"91 580 CURVE SMOOTH",
"91 0 LINE"
);
},
{
closed = 1;
nodes = (
"339 453 LINE",
"339 529 LINE",
"143 529 LINE",
"143 453 LINE"
);
}
);
width = 337;
}
);
leftKerningGroup = l;
leftMetricsKey = l;
rightKerningGroup = f;
rightMetricsKey = "=f";
},
{
glyphname = l.ss01;
lastChange = "2017-09-14 22:08:18 +0000";
layers = (
{
anchors = (
{
name = bottom;
position = "{204, 0}";
},
{
name = center;
position = "{139, 358}";
},
{
name = dot;
position = "{312, 358}";
},
{
name = top;
position = "{139, 742}";
},
{
name = topright;
position = "{275, 742}";
}
);
layerId = "16BDD2A6-1A19-40B6-80C2-67966448469B";
paths = (
{
closed = 1;
nodes = (
"275 -6 OFFCURVE",
"299 -2 OFFCURVE",
"321 6 CURVE",
"316 82 LINE",
"305 77 OFFCURVE",
"287 73 OFFCURVE",
"269 73 CURVE SMOOTH",
"214 73 OFFCURVE",
"187 104 OFFCURVE",
"187 162 CURVE SMOOTH",
"187 742 LINE",
"91 742 LINE",
"91 154 LINE SMOOTH",
"91 53 OFFCURVE",
"149 -6 OFFCURVE",
"252 -6 CURVE SMOOTH"
);
}
);
width = 321;
}
);
leftKerningGroup = l;
leftMetricsKey = l;
rightKerningGroup = l.ss01;
},
{
color = 8;
glyphname = t.ss01;
lastChange = "2017-09-14 22:08:27 +0000";
layers = (
{
anchors = (
{
name = bottom;
position = "{235, 0}";
},
{
name = center;
position = "{171, 296}";
},
{
name = top;
position = "{135, 646}";
},
{
name = topright;
position = "{269, 742}";
}
);
layerId = "16BDD2A6-1A19-40B6-80C2-67966448469B";
paths = (
{
closed = 1;
nodes = (
"297 -6 OFFCURVE",
"341 5 OFFCURVE",
"370 28 CURVE",
"341 98 LINE",
"321 81 OFFCURVE",
"295 73 OFFCURVE",
"268 73 CURVE SMOOTH",
"214 73 OFFCURVE",
"183 104 OFFCURVE",
"183 162 CURVE SMOOTH",
"183 646 LINE",
"87 646 LINE",
"87 158 LINE SMOOTH",
"87 53 OFFCURVE",
"147 -6 OFFCURVE",
"254 -6 CURVE SMOOTH"
);
},
{
closed = 1;
nodes = (
"335 453 LINE",
"335 529 LINE",
"150 529 LINE",
"150 453 LINE"
);
}
);
width = 395;
}
);
leftKerningGroup = l;
leftMetricsKey = u;
rightKerningGroup = t;
rightMetricsKey = t;
},
{
glyphname = w.ss01;
lastChange = "2017-09-14 22:08:27 +0000";
layers = (
{
anchors = (
{
name = bottom;
position = "{522, 0}";
},
{
name = top;
position = "{522, 529}";
}
);
layerId = "16BDD2A6-1A19-40B6-80C2-67966448469B";
paths = (
{
closed = 1;
nodes = (
"434 -6 OFFCURVE",
"508 36 OFFCURVE",
"541 148 CURVE",
"502 148 LINE",
"535 36 OFFCURVE",
"609 -6 OFFCURVE",
"716 -6 CURVE SMOOTH",
"871 -6 OFFCURVE",
"956 76 OFFCURVE",
"956 237 CURVE SMOOTH",
"956 529 LINE",
"860 529 LINE",
"860 243 LINE SMOOTH",
"860 128 OFFCURVE",
"812 76 OFFCURVE",
"715 76 CURVE SMOOTH",
"617 76 OFFCURVE",
"570 128 OFFCURVE",
"570 246 CURVE SMOOTH",
"570 529 LINE",
"474 529 LINE",
"474 246 LINE SMOOTH",
"474 128 OFFCURVE",
"426 76 OFFCURVE",
"329 76 CURVE SMOOTH",
"231 76 OFFCURVE",
"184 128 OFFCURVE",
"184 243 CURVE SMOOTH",
"184 529 LINE",
"87 529 LINE",
"87 237 LINE SMOOTH",
"87 76 OFFCURVE",
"172 -6 OFFCURVE",
"327 -6 CURVE SMOOTH"
);
}
);
width = 1043;
}
);
leftKerningGroup = u;
leftMetricsKey = u;
rightKerningGroup = w.ss01;
rightMetricsKey = "=|u";
},
{
glyphname = y.ss01;
lastChange = "2017-09-14 22:08:27 +0000";
layers = (
{
anchors = (
{
name = bottom;
position = "{661, 0}";
},
{
name = top;
position = "{336, 529}";
}
);
layerId = "16BDD2A6-1A19-40B6-80C2-67966448469B";
paths = (
{
closed = 1;
nodes = (
"495 -200 OFFCURVE",
"586 -114 OFFCURVE",
"586 71 CURVE SMOOTH",
"586 529 LINE",
"490 529 LINE",
"490 57 LINE SMOOTH",
"490 -65 OFFCURVE",
"437 -123 OFFCURVE",
"319 -123 CURVE SMOOTH",
"247 -123 OFFCURVE",
"177 -97 OFFCURVE",
"132 -52 CURVE",
"96 -121 LINE",
"148 -171 OFFCURVE",
"234 -200 OFFCURVE",
"328 -200 CURVE SMOOTH"
);
},
{
closed = 1;
nodes = (
"434 22 OFFCURVE",
"522 109 OFFCURVE",
"530 251 CURVE",
"490 285 LINE",
"490 173 OFFCURVE",
"426 108 OFFCURVE",
"329 108 CURVE SMOOTH",
"237 108 OFFCURVE",
"183 159 OFFCURVE",
"183 268 CURVE SMOOTH",
"183 529 LINE",
"87 529 LINE",
"87 253 LINE SMOOTH",
"87 98 OFFCURVE",
"174 22 OFFCURVE",
"305 22 CURVE SMOOTH"
);
}
);
width = 677;
}
);
leftKerningGroup = u;
leftMetricsKey = u;
rightKerningGroup = u;
rightMetricsKey = g;
},
{
glyphname = z.ss01;
lastChange = "2017-09-14 22:08:18 +0000";
layers = (
{
anchors = (
{
name = bottom;
position = "{265, 0}";
},
{
name = top;
position = "{265, 529}";
}
);
layerId = "16BDD2A6-1A19-40B6-80C2-67966448469B";
paths = (
{
closed = 1;
nodes = (
"488 0 LINE",
"488 76 LINE",
"120 76 LINE",
"141 44 LINE",
"481 469 LINE",
"481 529 LINE",
"51 529 LINE",
"51 453 LINE",
"404 453 LINE",
"385 485 LINE",
"45 60 LINE",
"45 0 LINE"
);
},
{
closed = 1;
nodes = (
"245 236 LINE",
"271 235 LINE",
"449 235 LINE",
"449 299 LINE",
"299 299 LINE",
"273 299 LINE",
"84 299 LINE",
"84 236 LINE"
);
}
);
width = 530;
}
);
leftKerningGroup = z;
leftMetricsKey = "=z+5";
rightKerningGroup = z;
rightMetricsKey = "=z+5";
},
{
glyphname = Oogonek;
lastChange = "2017-09-14 22:08:18 +0000";
layers = (
{
anchors = (
{
name = top;
position = "{420, 700}";
}
);
layerId = "16BDD2A6-1A19-40B6-80C2-67966448469B";
paths = (
{
closed = 1;
nodes = (
"464 -224 OFFCURVE",
"496 -215 OFFCURVE",
"518 -198 CURVE",
"501 -153 LINE",
"486 -165 OFFCURVE",
"463 -172 OFFCURVE",
"441 -172 CURVE SMOOTH",
"401 -172 OFFCURVE",
"376 -152 OFFCURVE",
"376 -117 CURVE SMOOTH",
"376 -65 OFFCURVE",
"435 -17 OFFCURVE",
"524 6 CURVE SMOOTH",
"673 43 OFFCURVE",
"793 170 OFFCURVE",
"793 350 CURVE SMOOTH",
"793 556 OFFCURVE",
"634 708 OFFCURVE",
"420 708 CURVE SMOOTH",
"207 708 OFFCURVE",
"48 556 OFFCURVE",
"48 350 CURVE SMOOTH",
"48 144 OFFCURVE",
"207 -8 OFFCURVE",
"420 -8 CURVE SMOOTH",
"431 -8 OFFCURVE",
"441 -7 OFFCURVE",
"455 -6 CURVE",
"462 29 LINE",
"353 -13 OFFCURVE",
"314 -71 OFFCURVE",
"314 -125 CURVE SMOOTH",
"314 -186 OFFCURVE",
"360 -224 OFFCURVE",
"430 -224 CURVE SMOOTH"
);
},
{
closed = 1;
nodes = (
"266 78 OFFCURVE",
"148 191 OFFCURVE",
"148 350 CURVE SMOOTH",
"148 509 OFFCURVE",
"266 622 OFFCURVE",
"420 622 CURVE SMOOTH",
"574 622 OFFCURVE",
"692 509 OFFCURVE",
"692 350 CURVE SMOOTH",
"692 191 OFFCURVE",
"574 78 OFFCURVE",
"420 78 CURVE SMOOTH"
);
}
);
width = 840;
}
);
leftKerningGroup = O;
rightKerningGroup = O;
unicode = 01EA;
},
{
glyphname = Saltillo;
lastChange = "2017-09-14 22:08:18 +0000";
layers = (
{
layerId = "16BDD2A6-1A19-40B6-80C2-67966448469B";
paths = (
{
closed = 1;
nodes = (
"167 297 LINE",
"178 700 LINE",
"80 700 LINE",
"80 297 LINE"
);
}
);
width = 257;
}
);
leftKerningGroup = superior;
rightKerningGroup = superior;
unicode = A78B;
},
{
glyphname = Uogonek;
lastChange = "2017-09-14 22:08:18 +0000";
layers = (
{
layerId = "16BDD2A6-1A19-40B6-80C2-67966448469B";
paths = (
{
closed = 1;
nodes = (
"593 305 LINE SMOOTH",
"593 149 OFFCURVE",
"521 78 OFFCURVE",
"396 78 CURVE SMOOTH",
"271 78 OFFCURVE",
"199 149 OFFCURVE",
"199 305 CURVE SMOOTH",
"199 700 LINE",
"99 700 LINE",
"99 302 LINE SMOOTH",
"99 99 OFFCURVE",
"210 -8 OFFCURVE",
"395 -8 CURVE SMOOTH",
"409 -8 OFFCURVE",
"424 -7 OFFCURVE",
"438 -6 CURVE",
"446 28 LINE",
"334 -13 OFFCURVE",
"298 -71 OFFCURVE",
"298 -125 CURVE SMOOTH",
"298 -186 OFFCURVE",
"344 -224 OFFCURVE",
"413 -224 CURVE SMOOTH",
"447 -224 OFFCURVE",
"479 -215 OFFCURVE",
"502 -198 CURVE",
"485 -153 LINE",
"469 -165 OFFCURVE",
"447 -172 OFFCURVE",
"424 -172 CURVE SMOOTH",
"385 -172 OFFCURVE",
"359 -152 OFFCURVE",
"359 -117 CURVE SMOOTH",
"359 -82 OFFCURVE",
"384 -36 OFFCURVE",
"508 8 CURVE SMOOTH",
"622 47 OFFCURVE",
"691 139 OFFCURVE",
"691 302 CURVE SMOOTH",
"691 700 LINE",
"593 700 LINE"
);
}
);
width = 790;
}
);
leftKerningGroup = U;
leftMetricsKey = U;
rightKerningGroup = U;
rightMetricsKey = U;
unicode = 0172;
},
{
glyphname = Iacute_J.loclNLD;
lastChange = "2017-09-14 22:08:18 +0000";
layers = (
{
layerId = "16BDD2A6-1A19-40B6-80C2-67966448469B";
paths = (
{
closed = 1;
nodes = (
"504 -6 OFFCURVE",
"621 101 OFFCURVE",
"621 308 CURVE SMOOTH",
"621 700 LINE",
"521 700 LINE",
"521 303 LINE SMOOTH",
"521 151 OFFCURVE",
"449 79 OFFCURVE",
"324 79 CURVE SMOOTH",
"255 79 OFFCURVE",
"184 102 OFFCURVE",
"126 142 CURVE",
"87 67 LINE",
"148 24 OFFCURVE",
"233 -6 OFFCURVE",
"327 -6 CURVE SMOOTH"
);
},
{
closed = 1;
nodes = (
"199 308 LINE",
"199 700 LINE",
"99 700 LINE",
"99 308 LINE"
);
},
{
closed = 1;
nodes = (
"175 757 LINE",
"342 886 LINE",
"238 886 LINE",
"101 757 LINE"
);
},
{
closed = 1;
nodes = (
"598 757 LINE",
"765 886 LINE",
"660 886 LINE",
"523 757 LINE"
);
}
);
width = 720;
}
);
leftKerningGroup = H;
leftMetricsKey = IJ;
widthMetricsKey = IJ;
rightKerningGroup = U;
},
{
glyphname = Adieresis.alt;
lastChange = "2017-09-14 22:08:18 +0000";
layers = (
{
layerId = "16BDD2A6-1A19-40B6-80C2-67966448469B";
paths = (
{
closed = 1;
nodes = (
"102 0 LINE",
"385 647 LINE",
"345 647 LINE",
"628 0 LINE",
"733 0 LINE",
"415 700 LINE",
"317 700 LINE",
"-1 0 LINE"
);
},
{
closed = 1;
nodes = (
"590 154 LINE",
"561 232 LINE",
"156 232 LINE",
"127 154 LINE"
);
},
{
closed = 1;
nodes = (
"203 601 OFFCURVE",
"225 622 OFFCURVE",
"225 651 CURVE SMOOTH",
"225 680 OFFCURVE",
"203 702 OFFCURVE",
"175 702 CURVE SMOOTH",
"147 702 OFFCURVE",
"125 680 OFFCURVE",
"125 651 CURVE SMOOTH",
"125 622 OFFCURVE",
"147 601 OFFCURVE",
"175 601 CURVE SMOOTH"
);
},
{
closed = 1;
nodes = (
"584 601 OFFCURVE",
"606 622 OFFCURVE",
"606 651 CURVE SMOOTH",
"606 680 OFFCURVE",
"584 702 OFFCURVE",
"556 702 CURVE SMOOTH",
"529 702 OFFCURVE",
"507 680 OFFCURVE",
"507 651 CURVE SMOOTH",
"507 622 OFFCURVE",
"529 601 OFFCURVE",
"556 601 CURVE SMOOTH"
);
}
);
width = 732;
}
);
leftKerningGroup = A;
leftMetricsKey = A;
rightKerningGroup = A;
rightMetricsKey = A;
},
{
color = 8;
glyphname = Udieresis.alt;
lastChange = "2017-09-14 22:08:18 +0000";
layers = (
{
layerId = "16BDD2A6-1A19-40B6-80C2-67966448469B";
paths = (
{
closed = 1;
nodes = (
"580 -8 OFFCURVE",
"691 99 OFFCURVE",
"691 302 CURVE SMOOTH",
"691 700 LINE",
"593 700 LINE",
"593 305 LINE SMOOTH",
"593 149 OFFCURVE",
"521 78 OFFCURVE",
"396 78 CURVE SMOOTH",
"271 78 OFFCURVE",
"199 149 OFFCURVE",
"199 305 CURVE SMOOTH",
"199 700 LINE",
"99 700 LINE",
"99 302 LINE SMOOTH",
"99 99 OFFCURVE",
"210 -8 OFFCURVE",
"395 -8 CURVE SMOOTH"
);
},
{
closed = 1;
nodes = (
"346 605 OFFCURVE",
"368 626 OFFCURVE",
"368 655 CURVE SMOOTH",
"368 684 OFFCURVE",
"346 706 OFFCURVE",
"318 706 CURVE SMOOTH",
"290 706 OFFCURVE",
"268 684 OFFCURVE",
"268 655 CURVE SMOOTH",
"268 626 OFFCURVE",
"290 605 OFFCURVE",
"318 605 CURVE SMOOTH"
);
},
{
closed = 1;
nodes = (
"501 605 OFFCURVE",
"523 626 OFFCURVE",
"523 655 CURVE SMOOTH",
"523 684 OFFCURVE",
"501 706 OFFCURVE",
"474 706 CURVE SMOOTH",
"446 706 OFFCURVE",
"424 684 OFFCURVE",
"424 655 CURVE SMOOTH",
"424 626 OFFCURVE",
"446 605 OFFCURVE",
"474 605 CURVE SMOOTH"
);
}
);
width = 790;
}
);
leftKerningGroup = U;
leftMetricsKey = U;
rightKerningGroup = U;
rightMetricsKey = U;
},
{
color = 8;
glyphname = Udieresis.ss01.alt;
lastChange = "2017-09-14 22:08:18 +0000";
layers = (
{
layerId = "16BDD2A6-1A19-40B6-80C2-67966448469B";
paths = (
{
closed = 1;
nodes = (
"531 -8 OFFCURVE",
"631 100 OFFCURVE",
"631 301 CURVE SMOOTH",
"631 400 LINE",
"593 400 LINE",
"593 303 LINE SMOOTH",
"593 150 OFFCURVE",
"518 78 OFFCURVE",
"395 78 CURVE SMOOTH",
"271 78 OFFCURVE",
"199 148 OFFCURVE",
"199 288 CURVE SMOOTH",
"199 700 LINE",
"99 700 LINE",
"99 285 LINE SMOOTH",
"99 95 OFFCURVE",
"199 -8 OFFCURVE",
"369 -8 CURVE SMOOTH"
);
},
{
closed = 1;
nodes = (
"346 605 OFFCURVE",
"368 626 OFFCURVE",
"368 655 CURVE SMOOTH",
"368 684 OFFCURVE",
"346 706 OFFCURVE",
"318 706 CURVE SMOOTH",
"290 706 OFFCURVE",
"268 684 OFFCURVE",
"268 655 CURVE SMOOTH",
"268 626 OFFCURVE",
"290 605 OFFCURVE",
"318 605 CURVE SMOOTH"
);
},
{
closed = 1;
nodes = (
"693 0 LINE",
"693 700 LINE",
"593 700 LINE",
"593 213 LINE",
"596 192 LINE",
"596 0 LINE"
);
},
{
closed = 1;
nodes = (
"501 605 OFFCURVE",
"523 626 OFFCURVE",
"523 655 CURVE SMOOTH",
"523 684 OFFCURVE",
"501 706 OFFCURVE",
"474 706 CURVE SMOOTH",
"446 706 OFFCURVE",
"424 684 OFFCURVE",
"424 655 CURVE SMOOTH",
"424 626 OFFCURVE",
"446 605 OFFCURVE",
"474 605 CURVE SMOOTH"
);
}
);
width = 798;
}
);
leftKerningGroup = U;
leftMetricsKey = U;
rightKerningGroup = H;
rightMetricsKey = H;
},
{
glyphname = Iacute_J.loclNLD.ss01;
lastChange = "2017-09-14 22:08:18 +0000";
layers = (
{
layerId = "16BDD2A6-1A19-40B6-80C2-67966448469B";
paths = (
{
closed = 1;
nodes = (
"504 -106 OFFCURVE",
"621 1 OFFCURVE",
"621 208 CURVE SMOOTH",
"621 700 LINE",
"521 700 LINE",
"521 203 LINE SMOOTH",
"521 51 OFFCURVE",
"449 -21 OFFCURVE",
"324 -21 CURVE SMOOTH",
"255 -21 OFFCURVE",
"184 2 OFFCURVE",
"126 42 CURVE",
"87 -33 LINE",
"148 -76 OFFCURVE",
"233 -106 OFFCURVE",
"327 -106 CURVE SMOOTH"
);
},
{
closed = 1;
nodes = (
"199 208 LINE",
"199 700 LINE",
"99 700 LINE",
"99 208 LINE"
);
},
{
closed = 1;
nodes = (
"175 757 LINE",
"342 886 LINE",
"238 886 LINE",
"101 757 LINE"
);
},
{
closed = 1;
nodes = (
"598 757 LINE",
"765 886 LINE",
"660 886 LINE",
"523 757 LINE"
);
}
);
width = 720;
}
);
leftKerningGroup = I.ss01;
leftMetricsKey = IJ;
widthMetricsKey = IJ;
rightKerningGroup = Jacute.ss01;
},
{
glyphname = W.ss01;
lastChange = "2017-09-14 22:08:18 +0000";
layers = (
{
anchors = (
{
name = top;
position = "{564, 700}";
}
);
layerId = "16BDD2A6-1A19-40B6-80C2-67966448469B";
paths = (
{
closed = 1;
nodes = (
"469 -8 OFFCURVE",
"548 46 OFFCURVE",
"579 153 CURVE",
"548 153 LINE",
"580 46 OFFCURVE",
"658 -8 OFFCURVE",
"771 -8 CURVE SMOOTH",
"930 -8 OFFCURVE",
"1028 88 OFFCURVE",
"1028 278 CURVE SMOOTH",
"1028 700 LINE",
"929 700 LINE",
"929 281 LINE SMOOTH",
"929 137 OFFCURVE",
"870 78 OFFCURVE",
"771 78 CURVE SMOOTH",
"672 78 OFFCURVE",
"614 137 OFFCURVE",
"614 281 CURVE SMOOTH",
"614 700 LINE",
"514 700 LINE",
"514 281 LINE SMOOTH",
"514 137 OFFCURVE",
"455 78 OFFCURVE",
"356 78 CURVE SMOOTH",
"258 78 OFFCURVE",
"199 137 OFFCURVE",
"199 281 CURVE SMOOTH",
"199 700 LINE",
"99 700 LINE",
"99 278 LINE SMOOTH",
"99 88 OFFCURVE",
"197 -8 OFFCURVE",
"356 -8 CURVE SMOOTH"
);
}
);
width = 1127;
}
);
leftKerningGroup = U;
leftMetricsKey = U;
rightKerningGroup = U;
rightMetricsKey = U;
},
{
color = 8;
glyphname = eogonek;
lastChange = "2017-09-14 22:08:18 +0000";
layers = (
{
anchors = (
{
name = bottom;
position = "{312, 0}";
},
{
name = top;
position = "{312, 529}";
}
);
layerId = "16BDD2A6-1A19-40B6-80C2-67966448469B";
paths = (
{
closed = 1;
nodes = (
"483 -224 OFFCURVE",
"515 -215 OFFCURVE",
"538 -198 CURVE",
"521 -153 LINE",
"506 -165 OFFCURVE",
"483 -172 OFFCURVE",
"461 -172 CURVE SMOOTH",
"422 -172 OFFCURVE",
"395 -151 OFFCURVE",
"395 -115 CURVE SMOOTH",
"395 -74 OFFCURVE",
"410 -38 OFFCURVE",
"509 44 CURVE SMOOTH",
"523 57 OFFCURVE",
"536 67 OFFCURVE",
"547 80 CURVE",
"495 136 LINE",
"455 92 OFFCURVE",
"402 72 OFFCURVE",
"336 72 CURVE SMOOTH",
"217 72 OFFCURVE",
"136 149 OFFCURVE",
"136 265 CURVE SMOOTH",
"136 278 LINE SMOOTH",
"136 386 OFFCURVE",
"210 459 OFFCURVE",
"315 459 CURVE SMOOTH",
"419 459 OFFCURVE",
"494 386 OFFCURVE",
"494 279 CURVE",
"531 302 LINE",
"119 302 LINE",
"119 237 LINE",
"581 237 LINE",
"582 249 OFFCURVE",
"583 258 OFFCURVE",
"583 267 CURVE SMOOTH",
"583 431 OFFCURVE",
"464 534 OFFCURVE",
"314 534 CURVE SMOOTH",
"158 534 OFFCURVE",
"42 423 OFFCURVE",
"42 265 CURVE SMOOTH",
"42 108 OFFCURVE",
"162 -6 OFFCURVE",
"334 -6 CURVE SMOOTH",
"369 -6 OFFCURVE",
"410 0 OFFCURVE",
"443 13 CURVE",
"433 24 LINE",
"361 -25 OFFCURVE",
"334 -76 OFFCURVE",
"334 -123 CURVE SMOOTH",
"334 -186 OFFCURVE",
"380 -224 OFFCURVE",
"449 -224 CURVE SMOOTH"
);
}
);
width = 625;
}
);
leftKerningGroup = o;
leftMetricsKey = e;
widthMetricsKey = e;
rightKerningGroup = e;
unicode = 0119;
},
{
glyphname = kgreenlandic;
lastChange = "2017-09-14 22:08:18 +0000";
layers = (
{
anchors = (
{
name = bottom;
position = "{288, 0}";
},
{
name = top;
position = "{288, 529}";
}
);
layerId = "16BDD2A6-1A19-40B6-80C2-67966448469B";
paths = (
{
closed = 1;
nodes = (
"306 258 LINE",
"358 301 LINE",
"592 529 LINE",
"475 529 LINE",
"171 247 LINE",
"169 129 LINE"
);
},
{
closed = 1;
nodes = (
"187 0 LINE",
"187 529 LINE",
"91 529 LINE",
"91 0 LINE"
);
},
{
closed = 1;
nodes = (
"613 0 LINE",
"349 334 LINE",
"288 260 LINE",
"496 0 LINE"
);
}
);
width = 606;
}
);
leftKerningGroup = n;
leftMetricsKey = n;
rightKerningGroup = k;
rightMetricsKey = k;
unicode = 0138;
},
{
glyphname = oogonek;
lastChange = "2017-09-14 22:08:18 +0000";
layers = (
{
anchors = (
{
name = bottom;
position = "{314, 0}";
},
{
name = center;
position = "{314, 265}";
},
{
name = top;
position = "{314, 529}";
},
{
name = topright;
position = "{451, 529}";
}
);
layerId = "16BDD2A6-1A19-40B6-80C2-67966448469B";
paths = (
{
closed = 1;
nodes = (
"379 -224 OFFCURVE",
"411 -215 OFFCURVE",
"434 -198 CURVE",
"417 -153 LINE",
"401 -165 OFFCURVE",
"379 -172 OFFCURVE",
"356 -172 CURVE SMOOTH",
"317 -172 OFFCURVE",
"291 -152 OFFCURVE",
"291 -117 CURVE SMOOTH",
"291 -80 OFFCURVE",
"310 -38 OFFCURVE",
"430 16 CURVE SMOOTH",
"527 59 OFFCURVE",
"589 149 OFFCURVE",
"589 265 CURVE SMOOTH",
"589 423 OFFCURVE",
"473 534 OFFCURVE",
"315 534 CURVE SMOOTH",
"157 534 OFFCURVE",
"42 423 OFFCURVE",
"42 265 CURVE SMOOTH",
"42 107 OFFCURVE",
"157 -6 OFFCURVE",
"315 -6 CURVE SMOOTH",
"332 -6 OFFCURVE",
"348 -4 OFFCURVE",
"369 -1 CURVE",
"374 25 LINE",
"265 -15 OFFCURVE",
"230 -71 OFFCURVE",
"230 -125 CURVE SMOOTH",
"230 -186 OFFCURVE",
"276 -224 OFFCURVE",
"345 -224 CURVE SMOOTH"
);
},
{
closed = 1;
nodes = (
"214 74 OFFCURVE",
"137 150 OFFCURVE",
"137 265 CURVE SMOOTH",
"137 380 OFFCURVE",
"214 454 OFFCURVE",
"315 454 CURVE SMOOTH",
"417 454 OFFCURVE",
"494 380 OFFCURVE",
"494 265 CURVE SMOOTH",
"494 150 OFFCURVE",
"417 74 OFFCURVE",
"315 74 CURVE SMOOTH"
);
}
);
width = 631;
}
);
leftKerningGroup = o;
rightKerningGroup = o;
unicode = 01EB;
},
{
glyphname = saltillo;
lastChange = "2017-09-14 22:08:18 +0000";
layers = (
{
layerId = "16BDD2A6-1A19-40B6-80C2-67966448469B";
paths = (
{
closed = 1;
nodes = (
"164 297 LINE",
"176 660 LINE",
"80 660 LINE",
"80 297 LINE"
);
}
);
width = 255;
}
);
leftKerningGroup = superior;
rightKerningGroup = superior;
unicode = A78C;
},
{
glyphname = iacute_j.loclNLD;
lastChange = "2017-09-14 22:08:18 +0000";
layers = (
{
layerId = "16BDD2A6-1A19-40B6-80C2-67966448469B";
paths = (
{
closed = 1;
nodes = (
"187 0 LINE",
"187 529 LINE",
"91 529 LINE",
"91 0 LINE"
);
},
{
closed = 1;
nodes = (
"146 607 LINE",
"314 736 LINE",
"209 736 LINE",
"72 607 LINE"
);
},
{
closed = 1;
nodes = (
"411 -200 OFFCURVE",
"470 -133 OFFCURVE",
"470 -32 CURVE SMOOTH",
"470 529 LINE",
"374 529 LINE",
"374 -28 LINE SMOOTH",
"374 -90 OFFCURVE",
"344 -121 OFFCURVE",
"292 -121 CURVE SMOOTH",
"263 -121 OFFCURVE",
"237 -113 OFFCURVE",
"217 -97 CURVE",
"188 -167 LINE",
"216 -189 OFFCURVE",
"260 -200 OFFCURVE",
"305 -200 CURVE SMOOTH"
);
},
{
closed = 1;
nodes = (
"430 607 LINE",
"597 736 LINE",
"492 736 LINE",
"355 607 LINE"
);
}
);
width = 561;
}
);
leftKerningGroup = i;
rightKerningGroup = u;
},
{
color = 0;
glyphname = o.001;
lastChange = "2017-09-14 22:08:18 +0000";
layers = (
{
anchors = (
{
name = bottom;
position = "{316, 0}";
},
{
name = center;
position = "{316, 265}";
},
{
name = ogonek;
position = "{415, 0}";
},
{
name = top;
position = "{316, 529}";
},
{
name = topright;
position = "{453, 529}";
}
);
layerId = "16BDD2A6-1A19-40B6-80C2-67966448469B";
paths = (
{
closed = 1;
nodes = (
"477 -6 OFFCURVE",
"593 107 OFFCURVE",
"593 265 CURVE SMOOTH",
"593 423 OFFCURVE",
"477 534 OFFCURVE",
"318 534 CURVE SMOOTH",
"158 534 OFFCURVE",
"42 423 OFFCURVE",
"42 265 CURVE SMOOTH",
"42 107 OFFCURVE",
"158 -6 OFFCURVE",
"318 -6 CURVE SMOOTH"
);
},
{
closed = 1;
nodes = (
"216 74 OFFCURVE",
"139 150 OFFCURVE",
"139 265 CURVE SMOOTH",
"139 380 OFFCURVE",
"216 454 OFFCURVE",
"318 454 CURVE SMOOTH",
"419 454 OFFCURVE",
"496 380 OFFCURVE",
"496 265 CURVE SMOOTH",
"496 150 OFFCURVE",
"419 74 OFFCURVE",
"318 74 CURVE SMOOTH"
);
}
);
width = 635;
}
);
leftKerningGroup = o;
rightKerningGroup = o;
rightMetricsKey = "=|";
},
{
color = 8;
glyphname = eogonek.ss01;
lastChange = "2017-09-14 22:08:18 +0000";
layers = (
{
anchors = (
{
name = bottom;
position = "{310, 0}";
},
{
name = top;
position = "{310, 529}";
}
);
layerId = "16BDD2A6-1A19-40B6-80C2-67966448469B";
paths = (
{
closed = 1;
nodes = (
"483 -224 OFFCURVE",
"515 -215 OFFCURVE",
"538 -198 CURVE",
"521 -153 LINE",
"506 -165 OFFCURVE",
"483 -172 OFFCURVE",
"461 -172 CURVE SMOOTH",
"422 -172 OFFCURVE",
"395 -151 OFFCURVE",
"395 -115 CURVE SMOOTH",
"395 -74 OFFCURVE",
"410 -38 OFFCURVE",
"509 44 CURVE SMOOTH",
"523 57 OFFCURVE",
"536 67 OFFCURVE",
"547 80 CURVE",
"495 136 LINE",
"455 92 OFFCURVE",
"402 71 OFFCURVE",
"336 71 CURVE SMOOTH",
"219 71 OFFCURVE",
"136 147 OFFCURVE",
"136 262 CURVE SMOOTH",
"136 280 LINE SMOOTH",
"136 387 OFFCURVE",
"211 465 OFFCURVE",
"320 465 CURVE SMOOTH",
"423 465 OFFCURVE",
"487 387 OFFCURVE",
"493 302 CURVE",
"527 330 LINE",
"119 253 LINE",
"124 192 LINE",
"582 279 LINE",
"578 433 OFFCURVE",
"466 534 OFFCURVE",
"320 534 CURVE SMOOTH",
"159 534 OFFCURVE",
"42 423 OFFCURVE",
"42 265 CURVE SMOOTH",
"42 109 OFFCURVE",
"162 -6 OFFCURVE",
"334 -6 CURVE SMOOTH",
"369 -6 OFFCURVE",
"409 0 OFFCURVE",
"443 13 CURVE",
"433 24 LINE",
"361 -25 OFFCURVE",
"334 -76 OFFCURVE",
"334 -123 CURVE SMOOTH",
"334 -186 OFFCURVE",
"380 -224 OFFCURVE",
"449 -224 CURVE SMOOTH"
);
}
);
width = 624;
}
);
leftKerningGroup = o;
leftMetricsKey = e.ss01;
widthMetricsKey = e.ss01;
rightKerningGroup = e;
},
{
color = 8;
glyphname = oe.ss01;
lastChange = "2017-09-14 22:08:18 +0000";
layers = (
{
anchors = (
{
name = bottom;
position = "{539, 0}";
},
{
name = top;
position = "{539, 529}";
}
);
layerId = "16BDD2A6-1A19-40B6-80C2-67966448469B";
paths = (
{
closed = 1;
nodes = (
"471 -6 OFFCURVE",
"579 107 OFFCURVE",
"579 265 CURVE SMOOTH",
"579 423 OFFCURVE",
"471 534 OFFCURVE",
"314 534 CURVE SMOOTH",
"158 534 OFFCURVE",
"42 423 OFFCURVE",
"42 265 CURVE SMOOTH",
"42 107 OFFCURVE",
"158 -6 OFFCURVE",
"314 -6 CURVE SMOOTH"
);
},
{
closed = 1;
nodes = (
"214 74 OFFCURVE",
"137 150 OFFCURVE",
"137 265 CURVE SMOOTH",
"137 380 OFFCURVE",
"214 454 OFFCURVE",
"316 454 CURVE SMOOTH",
"417 454 OFFCURVE",
"494 380 OFFCURVE",
"494 265 CURVE SMOOTH",
"494 150 OFFCURVE",
"417 74 OFFCURVE",
"316 74 CURVE SMOOTH"
);
},
{
closed = 1;
nodes = (
"876 -6 OFFCURVE",
"951 23 OFFCURVE",
"1001 80 CURVE",
"949 136 LINE",
"909 92 OFFCURVE",
"855 71 OFFCURVE",
"790 71 CURVE SMOOTH",
"672 71 OFFCURVE",
"589 147 OFFCURVE",
"589 262 CURVE SMOOTH",
"589 280 LINE SMOOTH",
"589 387 OFFCURVE",
"665 465 OFFCURVE",
"773 465 CURVE SMOOTH",
"875 465 OFFCURVE",
"941 387 OFFCURVE",
"946 302 CURVE",
"980 330 LINE",
"572 253 LINE",
"577 192 LINE",
"1035 279 LINE",
"1031 433 OFFCURVE",
"919 534 OFFCURVE",
"774 534 CURVE SMOOTH",
"613 534 OFFCURVE",
"502 423 OFFCURVE",
"502 265 CURVE SMOOTH",
"502 108 OFFCURVE",
"618 -6 OFFCURVE",
"787 -6 CURVE SMOOTH"
);
}
);
width = 1077;
}
);
leftKerningGroup = o;
leftMetricsKey = o;
rightKerningGroup = e;
rightMetricsKey = o;
},
{
glyphname = T_h;
lastChange = "2017-09-14 22:08:27 +0000";
layers = (
{
layerId = "16BDD2A6-1A19-40B6-80C2-67966448469B";
paths = (
{
closed = 1;
nodes = (
"343 0 LINE",
"343 617 LINE",
"621 617 LINE",
"621 700 LINE",
"4 700 LINE",
"4 617 LINE",
"244 617 LINE",
"244 0 LINE"
);
},
{
closed = 1;
nodes = (
"1115 0 LINE",
"1115 308 LINE SMOOTH",
"1115 460 OFFCURVE",
"1028 534 OFFCURVE",
"901 534 CURVE SMOOTH",
"766 534 OFFCURVE",
"675 447 OFFCURVE",
"668 306 CURVE",
"708 272 LINE",
"708 383 OFFCURVE",
"774 449 OFFCURVE",
"877 449 CURVE SMOOTH",
"966 449 OFFCURVE",
"1019 397 OFFCURVE",
"1019 293 CURVE SMOOTH",
"1019 0 LINE"
);
},
{
closed = 1;
nodes = (
"708 0 LINE",
"708 700 LINE",
"612 700 LINE",
"612 0 LINE"
);
}
);
width = 1202;
}
);
leftKerningGroup = T;
leftMetricsKey = T;
rightKerningGroup = n;
rightMetricsKey = h;
},
{
color = 8;
glyphname = fl.ss01;
lastChange = "2017-09-14 22:08:18 +0000";
layers = (
{
layerId = "16BDD2A6-1A19-40B6-80C2-67966448469B";
paths = (
{
closed = 1;
nodes = (
"606 -106 OFFCURVE",
"630 -102 OFFCURVE",
"652 -95 CURVE",
"647 -18 LINE",
"636 -23 OFFCURVE",
"618 -28 OFFCURVE",
"600 -28 CURVE SMOOTH",
"545 -28 OFFCURVE",
"518 4 OFFCURVE",
"518 62 CURVE SMOOTH",
"518 538 LINE SMOOTH",
"518 672 OFFCURVE",
"445 748 OFFCURVE",
"312 748 CURVE SMOOTH",
"179 748 OFFCURVE",
"107 672 OFFCURVE",
"107 538 CURVE SMOOTH",
"107 0 LINE",
"203 0 LINE",
"203 540 LINE SMOOTH",
"203 629 OFFCURVE",
"243 669 OFFCURVE",
"312 669 CURVE SMOOTH",
"381 669 OFFCURVE",
"422 629 OFFCURVE",
"422 540 CURVE SMOOTH",
"422 54 LINE SMOOTH",
"422 -47 OFFCURVE",
"480 -106 OFFCURVE",
"583 -106 CURVE SMOOTH"
);
},
{
closed = 1;
nodes = (
"354 453 LINE",
"354 529 LINE",
"16 529 LINE",
"16 453 LINE"
);
}
);
width = 652;
}
);
leftKerningGroup = t;
leftMetricsKey = f;
rightKerningGroup = l;
rightMetricsKey = l.ss01;
},
{
glyphname = adieresis.sc.alt;
lastChange = "2017-09-14 22:08:18 +0000";
layers = (
{
layerId = "16BDD2A6-1A19-40B6-80C2-67966448469B";
paths = (
{
closed = 1;
nodes = (
"94 0 LINE",
"324 518 LINE",
"291 518 LINE",
"518 0 LINE",
"615 0 LINE",
"355 568 LINE",
"259 568 LINE",
"-1 0 LINE"
);
},
{
closed = 1;
nodes = (
"489 119 LINE",
"462 193 LINE",
"138 193 LINE",
"111 119 LINE"
);
},
{
closed = 1;
nodes = (
"149 475 OFFCURVE",
"171 496 OFFCURVE",
"171 525 CURVE SMOOTH",
"171 554 OFFCURVE",
"149 576 OFFCURVE",
"121 576 CURVE SMOOTH",
"94 576 OFFCURVE",
"72 554 OFFCURVE",
"72 525 CURVE SMOOTH",
"72 496 OFFCURVE",
"94 475 OFFCURVE",
"121 475 CURVE SMOOTH"
);
},
{
closed = 1;
nodes = (
"521 475 OFFCURVE",
"543 496 OFFCURVE",
"543 525 CURVE SMOOTH",
"543 554 OFFCURVE",
"521 576 OFFCURVE",
"493 576 CURVE SMOOTH",
"465 576 OFFCURVE",
"443 554 OFFCURVE",
"443 525 CURVE SMOOTH",
"443 496 OFFCURVE",
"465 475 OFFCURVE",
"493 475 CURVE SMOOTH"
);
}
);
width = 614;
}
);
leftKerningGroup = Adieresis.alt;
leftMetricsKey = a.sc;
widthMetricsKey = a.sc;
rightKerningGroup = Adieresis.alt;
},
{
color = 8;
glyphname = udieresis.sc.alt;
lastChange = "2017-09-14 22:08:18 +0000";
layers = (
{
layerId = "16BDD2A6-1A19-40B6-80C2-67966448469B";
paths = (
{
closed = 1;
nodes = (
"480 -8 OFFCURVE",
"573 82 OFFCURVE",
"573 242 CURVE SMOOTH",
"573 568 LINE",
"477 568 LINE",
"477 246 LINE SMOOTH",
"477 130 OFFCURVE",
"423 74 OFFCURVE",
"325 74 CURVE SMOOTH",
"228 74 OFFCURVE",
"173 130 OFFCURVE",
"173 246 CURVE SMOOTH",
"173 568 LINE",
"76 568 LINE",
"76 242 LINE SMOOTH",
"76 82 OFFCURVE",
"169 -8 OFFCURVE",
"325 -8 CURVE SMOOTH"
);
},
{
closed = 1;
nodes = (
"417 489 OFFCURVE",
"436 507 OFFCURVE",
"436 532 CURVE SMOOTH",
"436 557 OFFCURVE",
"417 576 OFFCURVE",
"393 576 CURVE SMOOTH",
"369 576 OFFCURVE",
"350 557 OFFCURVE",
"350 532 CURVE SMOOTH",
"350 507 OFFCURVE",
"369 489 OFFCURVE",
"393 489 CURVE SMOOTH"
);
},
{
closed = 1;
nodes = (
"281 489 OFFCURVE",
"300 507 OFFCURVE",
"300 532 CURVE SMOOTH",
"300 557 OFFCURVE",
"281 576 OFFCURVE",
"257 576 CURVE SMOOTH",
"233 576 OFFCURVE",
"214 557 OFFCURVE",
"214 532 CURVE SMOOTH",
"214 507 OFFCURVE",
"233 489 OFFCURVE",
"257 489 CURVE SMOOTH"
);
}
);
width = 649;
}
);
leftKerningGroup = udieresis.alt.sc;
rightKerningGroup = U.001;
},
{
color = 8;
glyphname = udieresis.sc.ss01.alt;
lastChange = "2017-09-14 22:08:18 +0000";
layers = (
{
layerId = "16BDD2A6-1A19-40B6-80C2-67966448469B";
paths = (
{
closed = 1;
nodes = (
"76 568 LINE",
"76 227 LINE SMOOTH",
"76 76 OFFCURVE",
"157 -8 OFFCURVE",
"294 -8 CURVE SMOOTH",
"430 -8 OFFCURVE",
"516 78 OFFCURVE",
"516 245 CURVE SMOOTH",
"516 324 LINE",
"477 324 LINE",
"477 246 LINE SMOOTH",
"477 128 OFFCURVE",
"417 74 OFFCURVE",
"323 74 CURVE SMOOTH",
"229 74 OFFCURVE",
"173 126 OFFCURVE",
"173 234 CURVE SMOOTH",
"173 568 LINE"
);
},
{
closed = 1;
nodes = (
"477 568 LINE",
"477 169 LINE",
"480 150 LINE",
"480 0 LINE",
"575 0 LINE",
"575 568 LINE"
);
},
{
closed = 1;
nodes = (
"417 489 OFFCURVE",
"436 507 OFFCURVE",
"436 532 CURVE SMOOTH",
"436 557 OFFCURVE",
"417 576 OFFCURVE",
"393 576 CURVE SMOOTH",
"369 576 OFFCURVE",
"350 557 OFFCURVE",
"350 532 CURVE SMOOTH",
"350 507 OFFCURVE",
"369 489 OFFCURVE",
"393 489 CURVE SMOOTH"
);
},
{
closed = 1;
nodes = (
"281 489 OFFCURVE",
"300 507 OFFCURVE",
"300 532 CURVE SMOOTH",
"300 557 OFFCURVE",
"281 576 OFFCURVE",
"257 576 CURVE SMOOTH",
"233 576 OFFCURVE",
"214 557 OFFCURVE",
"214 532 CURVE SMOOTH",
"214 507 OFFCURVE",
"233 489 OFFCURVE",
"257 489 CURVE SMOOTH"
);
}
);
width = 655;
}
);
leftKerningGroup = udieresis.ss01.alt.sc;
rightKerningGroup = U.001;
},
{
glyphname = iacute_j.loclNLD.sc;
lastChange = "2017-09-14 22:08:18 +0000";
layers = (
{
layerId = "16BDD2A6-1A19-40B6-80C2-67966448469B";
paths = (
{
closed = 1;
nodes = (
"419 -5 OFFCURVE",
"517 83 OFFCURVE",
"517 252 CURVE SMOOTH",
"517 568 LINE",
"420 568 LINE",
"420 247 LINE SMOOTH",
"420 129 OFFCURVE",
"361 75 OFFCURVE",
"262 75 CURVE SMOOTH",
"204 75 OFFCURVE",
"148 94 OFFCURVE",
"103 127 CURVE",
"65 54 LINE",
"116 18 OFFCURVE",
"184 -5 OFFCURVE",
"266 -5 CURVE SMOOTH"
);
},
{
closed = 1;
nodes = (
"173 253 LINE",
"173 568 LINE",
"76 568 LINE",
"76 253 LINE"
);
},
{
closed = 1;
nodes = (
"145 646 LINE",
"312 776 LINE",
"208 776 LINE",
"71 646 LINE"
);
},
{
closed = 1;
nodes = (
"490 646 LINE",
"657 776 LINE",
"552 776 LINE",
"415 646 LINE"
);
}
);
width = 593;
}
);
leftKerningGroup = h.sc;
rightKerningGroup = u.sc;
},
{
glyphname = oogonek.sc;
lastChange = "2017-09-14 22:08:18 +0000";
layers = (
{
anchors = (
{
name = top;
position = "{353, 568}";
}
);
layerId = "16BDD2A6-1A19-40B6-80C2-67966448469B";
paths = (
{
closed = 1;
nodes = (
"393 -183 OFFCURVE",
"421 -176 OFFCURVE",
"439 -163 CURVE",
"425 -121 LINE",
"412 -129 OFFCURVE",
"394 -136 OFFCURVE",
"375 -136 CURVE SMOOTH",
"343 -136 OFFCURVE",
"322 -120 OFFCURVE",
"322 -93 CURVE SMOOTH",
"322 -52 OFFCURVE",
"368 -15 OFFCURVE",
"443 5 CURVE SMOOTH",
"565 36 OFFCURVE",
"662 139 OFFCURVE",
"662 284 CURVE SMOOTH",
"662 452 OFFCURVE",
"531 576 OFFCURVE",
"353 576 CURVE SMOOTH",
"176 576 OFFCURVE",
"44 452 OFFCURVE",
"44 284 CURVE SMOOTH",
"44 116 OFFCURVE",
"176 -8 OFFCURVE",
"353 -8 CURVE SMOOTH",
"362 -8 OFFCURVE",
"372 -7 OFFCURVE",
"384 -5 CURVE",
"388 26 LINE",
"297 -6 OFFCURVE",
"264 -54 OFFCURVE",
"264 -101 CURVE SMOOTH",
"264 -152 OFFCURVE",
"303 -183 OFFCURVE",
"364 -183 CURVE SMOOTH"
);
},
{
closed = 1;
nodes = (
"233 74 OFFCURVE",
"142 163 OFFCURVE",
"142 284 CURVE SMOOTH",
"142 405 OFFCURVE",
"233 494 OFFCURVE",
"353 494 CURVE SMOOTH",
"474 494 OFFCURVE",
"564 405 OFFCURVE",
"564 284 CURVE SMOOTH",
"564 163 OFFCURVE",
"474 74 OFFCURVE",
"353 74 CURVE SMOOTH"
);
}
);
width = 706;
}
);
leftKerningGroup = o.sc;
leftMetricsKey = o.sc;
rightKerningGroup = o.sc;
rightMetricsKey = o.sc;
},
{
glyphname = uogonek.sc;
lastChange = "2017-09-14 22:08:18 +0000";
layers = (
{
layerId = "16BDD2A6-1A19-40B6-80C2-67966448469B";
paths = (
{
closed = 1;
nodes = (
"493 246 LINE SMOOTH",
"493 130 OFFCURVE",
"438 74 OFFCURVE",
"341 74 CURVE SMOOTH",
"243 74 OFFCURVE",
"188 130 OFFCURVE",
"188 246 CURVE SMOOTH",
"188 568 LINE",
"91 568 LINE",
"91 242 LINE SMOOTH",
"91 82 OFFCURVE",
"184 -8 OFFCURVE",
"340 -8 CURVE SMOOTH",
"356 -8 OFFCURVE",
"373 -7 OFFCURVE",
"395 -3 CURVE",
"397 29 LINE",
"285 -15 OFFCURVE",
"249 -71 OFFCURVE",
"249 -125 CURVE SMOOTH",
"249 -186 OFFCURVE",
"295 -224 OFFCURVE",
"365 -224 CURVE SMOOTH",
"398 -224 OFFCURVE",
"430 -215 OFFCURVE",
"453 -198 CURVE",
"436 -153 LINE",
"421 -165 OFFCURVE",
"398 -172 OFFCURVE",
"375 -172 CURVE SMOOTH",
"336 -172 OFFCURVE",
"310 -152 OFFCURVE",
"310 -117 CURVE SMOOTH",
"310 -84 OFFCURVE",
"329 -42 OFFCURVE",
"453 12 CURVE SMOOTH",
"543 49 OFFCURVE",
"589 131 OFFCURVE",
"589 242 CURVE SMOOTH",
"589 568 LINE",
"493 568 LINE"
);
}
);
width = 680;
}
);
leftKerningGroup = u.sc;
leftMetricsKey = u.sc;
rightKerningGroup = u.sc;
rightMetricsKey = u.sc;
},
{
glyphname = eogonek.sc.ss01;
lastChange = "2017-09-14 22:08:18 +0000";
layers = (
{
anchors = (
{
name = top;
position = "{294, 568}";
}
);
layerId = "16BDD2A6-1A19-40B6-80C2-67966448469B";
paths = (
{
closed = 1;
nodes = (
"514 -163 CURVE",
"499 -121 LINE",
"487 -129 OFFCURVE",
"468 -136 OFFCURVE",
"449 -136 CURVE SMOOTH",
"417 -136 OFFCURVE",
"397 -119 OFFCURVE",
"397 -90 CURVE SMOOTH",
"397 -55 OFFCURVE",
"423 -16 OFFCURVE",
"525 57 CURVE",
"493 129 LINE",
"450 91 OFFCURVE",
"373 69 OFFCURVE",
"299 69 CURVE SMOOTH",
"189 69 OFFCURVE",
"140 107 OFFCURVE",
"140 163 CURVE SMOOTH",
"140 222 OFFCURVE",
"190 251 OFFCURVE",
"268 251 CURVE SMOOTH",
"424 251 LINE",
"424 324 LINE",
"273 324 LINE SMOOTH",
"203 324 OFFCURVE",
"164 354 OFFCURVE",
"164 408 CURVE SMOOTH",
"164 460 OFFCURVE",
"211 499 OFFCURVE",
"311 499 CURVE SMOOTH",
"368 499 OFFCURVE",
"426 486 OFFCURVE",
"474 459 CURVE",
"503 532 LINE",
"452 559 OFFCURVE",
"380 576 OFFCURVE",
"307 576 CURVE SMOOTH",
"144 576 OFFCURVE",
"66 500 OFFCURVE",
"66 414 CURVE SMOOTH",
"66 335 OFFCURVE",
"125 277 OFFCURVE",
"236 277 CURVE",
"233 303 LINE",
"119 303 OFFCURVE",
"42 246 OFFCURVE",
"42 156 CURVE SMOOTH",
"42 61 OFFCURVE",
"128 -8 OFFCURVE",
"295 -8 CURVE SMOOTH",
"341 -8 OFFCURVE",
"384 0 OFFCURVE",
"429 14 CURVE",
"428 31 LINE",
"362 -16 OFFCURVE",
"339 -58 OFFCURVE",
"339 -100 CURVE SMOOTH",
"339 -151 OFFCURVE",
"378 -183 OFFCURVE",
"439 -183 CURVE SMOOTH",
"468 -183 OFFCURVE",
"496 -176 OFFCURVE"
);
}
);
width = 551;
}
);
leftKerningGroup = e.sc.ss01;
leftMetricsKey = e.sc.ss01;
rightKerningGroup = e.sc.ss01;
rightMetricsKey = e.sc.ss01;
},
{
glyphname = iacute_j.loclNLD.sc.ss01;
lastChange = "2017-09-14 22:08:18 +0000";
layers = (
{
layerId = "16BDD2A6-1A19-40B6-80C2-67966448469B";
paths = (
{
closed = 1;
nodes = (
"419 -5 OFFCURVE",
"517 83 OFFCURVE",
"517 252 CURVE SMOOTH",
"517 568 LINE",
"420 568 LINE",
"420 247 LINE SMOOTH",
"420 129 OFFCURVE",
"361 75 OFFCURVE",
"262 75 CURVE SMOOTH",
"204 75 OFFCURVE",
"148 94 OFFCURVE",
"103 127 CURVE",
"65 54 LINE",
"116 18 OFFCURVE",
"184 -5 OFFCURVE",
"266 -5 CURVE SMOOTH"
);
},
{
closed = 1;
nodes = (
"173 253 LINE",
"173 568 LINE",
"76 568 LINE",
"76 253 LINE"
);
},
{
closed = 1;
nodes = (
"145 646 LINE",
"312 776 LINE",
"208 776 LINE",
"71 646 LINE"
);
},
{
closed = 1;
nodes = (
"490 646 LINE",
"657 776 LINE",
"552 776 LINE",
"415 646 LINE"
);
}
);
width = 623;
}
);
leftKerningGroup = h.sc;
widthMetricsKey = ij.sc;
rightKerningGroup = u.sc;
},
{
glyphname = eng.sc.ss01;
lastChange = "2017-09-14 22:08:27 +0000";
layers = (
{
layerId = "16BDD2A6-1A19-40B6-80C2-67966448469B";
paths = (
{
closed = 1;
nodes = (
"532 -163 OFFCURVE",
"596 -94 OFFCURVE",
"596 36 CURVE SMOOTH",
"596 341 LINE SMOOTH",
"596 492 OFFCURVE",
"514 576 OFFCURVE",
"377 576 CURVE SMOOTH",
"241 576 OFFCURVE",
"155 490 OFFCURVE",
"155 323 CURVE SMOOTH",
"155 244 LINE",
"194 244 LINE",
"194 322 LINE SMOOTH",
"194 440 OFFCURVE",
"254 494 OFFCURVE",
"348 494 CURVE SMOOTH",
"442 494 OFFCURVE",
"498 442 OFFCURVE",
"498 334 CURVE SMOOTH",
"498 27 LINE SMOOTH",
"498 -47 OFFCURVE",
"467 -81 OFFCURVE",
"403 -81 CURVE SMOOTH",
"363 -81 OFFCURVE",
"330 -64 OFFCURVE",
"304 -32 CURVE",
"264 -102 LINE",
"300 -141 OFFCURVE",
"351 -163 OFFCURVE",
"409 -163 CURVE SMOOTH"
);
},
{
closed = 1;
nodes = (
"194 0 LINE",
"194 399 LINE",
"191 418 LINE",
"191 568 LINE",
"97 568 LINE",
"97 0 LINE"
);
}
);
width = 687;
}
);
leftKerningGroup = h.sc;
leftMetricsKey = h.sc;
rightKerningGroup = n.sc.ss01;
rightMetricsKey = u.sc;
userData = {
RMXScaler = {
source = Eng.ss01;
};
};
},
{
glyphname = ordfeminine;
lastChange = "2017-09-14 22:08:27 +0000";
layers = (
{
layerId = "16BDD2A6-1A19-40B6-80C2-67966448469B";
paths = (
{
closed = 1;
nodes = (
"340 429 LINE",
"340 617 LINE SMOOTH",
"340 705 OFFCURVE",
"286 747 OFFCURVE",
"191 747 CURVE SMOOTH",
"140 747 OFFCURVE",
"86 731 OFFCURVE",
"50 705 CURVE",
"74 660 LINE",
"101 682 OFFCURVE",
"141 695 OFFCURVE",
"182 695 CURVE SMOOTH",
"242 695 OFFCURVE",
"271 670 OFFCURVE",
"271 621 CURVE SMOOTH",
"271 507 LINE",
"276 495 LINE",
"276 429 LINE"
);
},
{
closed = 1;
nodes = (
"226 425 OFFCURVE",
"268 453 OFFCURVE",
"283 502 CURVE",
"271 525 LINE",
"255 487 OFFCURVE",
"225 468 OFFCURVE",
"179 468 CURVE SMOOTH",
"131 468 OFFCURVE",
"103 489 OFFCURVE",
"103 521 CURVE SMOOTH",
"103 551 OFFCURVE",
"126 571 OFFCURVE",
"183 571 CURVE SMOOTH",
"281 571 LINE",
"281 607 LINE",
"174 607 LINE SMOOTH",
"77 607 OFFCURVE",
"38 570 OFFCURVE",
"38 518 CURVE SMOOTH",
"38 464 OFFCURVE",
"81 425 OFFCURVE",
"160 425 CURVE SMOOTH"
);
}
);
width = 405;
}
);
leftKerningGroup = asterisk;
leftMetricsKey = "=a*0.75";
rightKerningGroup = asterisk;
rightMetricsKey = "=a*0.75";
unicode = 00AA;
},
{
glyphname = ordmasculine;
lastChange = "2017-09-14 22:08:18 +0000";
layers = (
{
layerId = "16BDD2A6-1A19-40B6-80C2-67966448469B";
paths = (
{
closed = 1;
nodes = (
"312 425 OFFCURVE",
"387 492 OFFCURVE",
"387 586 CURVE SMOOTH",
"387 680 OFFCURVE",
"312 747 OFFCURVE",
"209 747 CURVE SMOOTH",
"106 747 OFFCURVE",
"31 680 OFFCURVE",
"31 586 CURVE SMOOTH",
"31 492 OFFCURVE",
"106 425 OFFCURVE",
"209 425 CURVE SMOOTH"
);
},
{
closed = 1;
nodes = (
"146 479 OFFCURVE",
"99 521 OFFCURVE",
"99 586 CURVE SMOOTH",
"99 652 OFFCURVE",
"146 693 OFFCURVE",
"209 693 CURVE SMOOTH",
"271 693 OFFCURVE",
"319 652 OFFCURVE",
"319 586 CURVE SMOOTH",
"319 521 OFFCURVE",
"271 479 OFFCURVE",
"209 479 CURVE SMOOTH"
);
}
);
width = 418;
}
);
leftKerningGroup = asterisk;
leftMetricsKey = "=o*0.75";
rightKerningGroup = asterisk;
rightMetricsKey = "=o*0.75";
unicode = 00BA;
},
{
glyphname = Delta;
lastChange = "2017-09-14 22:08:18 +0000";
layers = (
{
layerId = "16BDD2A6-1A19-40B6-80C2-67966448469B";
paths = (
{
closed = 1;
nodes = (
"317 700 LINE",
"-1 0 LINE",
"733 0 LINE",
"415 700 LINE"
);
},
{
closed = 1;
nodes = (
"385 650 LINE",
"345 650 LINE",
"620 36 LINE",
"642 83 LINE",
"88 83 LINE",
"109 36 LINE"
);
}
);
width = 732;
}
);
leftKerningGroup = A;
leftMetricsKey = A;
rightKerningGroup = A;
rightMetricsKey = A;
unicode = 0394;
},
{
glyphname = Omega;
lastChange = "2017-09-14 22:08:27 +0000";
layers = (
{
layerId = "16BDD2A6-1A19-40B6-80C2-67966448469B";
paths = (
{
closed = 1;
nodes = (
"356 0 LINE",
"356 78 LINE",
"241 136 OFFCURVE",
"178 239 OFFCURVE",
"178 354 CURVE SMOOTH",
"178 512 OFFCURVE",
"296 622 OFFCURVE",
"450 622 CURVE SMOOTH",
"604 622 OFFCURVE",
"722 512 OFFCURVE",
"722 354 CURVE SMOOTH",
"722 240 OFFCURVE",
"660 137 OFFCURVE",
"544 78 CURVE",
"544 0 LINE",
"890 0 LINE",
"890 84 LINE",
"670 84 LINE",
"768 149 OFFCURVE",
"821 254 OFFCURVE",
"821 367 CURVE SMOOTH",
"821 564 OFFCURVE",
"661 708 OFFCURVE",
"450 708 CURVE SMOOTH",
"239 708 OFFCURVE",
"79 564 OFFCURVE",
"79 367 CURVE SMOOTH",
"79 254 OFFCURVE",
"132 149 OFFCURVE",
"231 84 CURVE",
"10 84 LINE",
"10 0 LINE"
);
}
);
width = 900;
}
);
leftKerningGroup = Omega;
leftMetricsKey = "=|L";
rightKerningGroup = Omega;
rightMetricsKey = L;
unicode = 03A9;
},
{
glyphname = mu;
lastChange = "2017-09-14 22:08:18 +0000";
layers = (
{
layerId = "16BDD2A6-1A19-40B6-80C2-67966448469B";
paths = (
{
closed = 1;
nodes = (
"187 -194 LINE",
"187 123 LINE",
"168 86 LINE",
"197 26 OFFCURVE",
"255 -6 OFFCURVE",
"332 -6 CURVE SMOOTH",
"423 -6 OFFCURVE",
"495 43 OFFCURVE",
"520 147 CURVE",
"505 152 LINE",
"505 0 LINE",
"590 0 LINE",
"590 529 LINE",
"494 529 LINE",
"494 257 LINE SMOOTH",
"494 146 OFFCURVE",
"430 80 OFFCURVE",
"334 80 CURVE SMOOTH",
"241 80 OFFCURVE",
"187 132 OFFCURVE",
"187 240 CURVE SMOOTH",
"187 529 LINE",
"91 529 LINE",
"91 -194 LINE"
);
}
);
width = 681;
}
);
leftKerningGroup = p;
leftMetricsKey = p;
rightKerningGroup = idotless;
rightMetricsKey = u;
unicode = 03BC;
},
{
glyphname = pi;
lastChange = "2017-09-14 22:08:18 +0000";
layers = (
{
layerId = "16BDD2A6-1A19-40B6-80C2-67966448469B";
paths = (
{
closed = 1;
nodes = (
"96 283 LINE",
"80 308 OFFCURVE",
"69 337 OFFCURVE",
"69 363 CURVE",
"68 415 OFFCURVE",
"113 456 OFFCURVE",
"174 456 CURVE",
"714 456 LINE",
"715 529 LINE",
"163 529 LINE",
"64 529 OFFCURVE",
"-9 463 OFFCURVE",
"-8 378 CURVE",
"-7 338 OFFCURVE",
"7 291 OFFCURVE",
"29 256 CURVE"
);
},
{
closed = 1;
nodes = (
"262 0 LINE",
"315 474 LINE",
"234 474 LINE",
"181 0 LINE"
);
},
{
closed = 1;
nodes = (
"560 0 LINE",
"560 474 LINE",
"479 474 LINE",
"479 0 LINE"
);
}
);
width = 724;
}
);
leftKerningGroup = pi;
rightKerningGroup = pi;
unicode = 03C0;
},
{
glyphname = zero;
lastChange = "2017-09-14 22:08:18 +0000";
layers = (
{
layerId = "16BDD2A6-1A19-40B6-80C2-67966448469B";
paths = (
{
closed = 1;
nodes = (
"500 -8 OFFCURVE",
"616 129 OFFCURVE",
"616 350 CURVE SMOOTH",
"616 571 OFFCURVE",
"500 708 OFFCURVE",
"332 708 CURVE SMOOTH",
"164 708 OFFCURVE",
"48 571 OFFCURVE",
"48 350 CURVE SMOOTH",
"48 129 OFFCURVE",
"164 -8 OFFCURVE",
"332 -8 CURVE SMOOTH"
);
},
{
closed = 1;
nodes = (
"222 77 OFFCURVE",
"147 172 OFFCURVE",
"147 350 CURVE SMOOTH",
"147 528 OFFCURVE",
"222 623 OFFCURVE",
"332 623 CURVE SMOOTH",
"442 623 OFFCURVE",
"517 528 OFFCURVE",
"517 350 CURVE SMOOTH",
"517 172 OFFCURVE",
"442 77 OFFCURVE",
"332 77 CURVE SMOOTH"
);
}
);
width = 664;
}
);
leftKerningGroup = zero;
leftMetricsKey = O;
rightKerningGroup = zero;
rightMetricsKey = O;
unicode = 0030;
},
{
glyphname = one;
lastChange = "2017-09-14 22:08:18 +0000";
layers = (
{
layerId = "16BDD2A6-1A19-40B6-80C2-67966448469B";
paths = (
{
closed = 1;
nodes = (
"265 0 LINE",
"265 700 LINE",
"8 700 LINE",
"8 619 LINE",
"209 619 LINE",
"166 661 LINE",
"166 0 LINE"
);
}
);
width = 370;
}
);
leftKerningGroup = one;
rightKerningGroup = one;
rightMetricsKey = H;
unicode = 0031;
},
{
glyphname = two;
lastChange = "2017-09-14 22:08:18 +0000";
layers = (
{
layerId = "16BDD2A6-1A19-40B6-80C2-67966448469B";
paths = (
{
closed = 1;
nodes = (
"540 0 LINE",
"540 83 LINE",
"118 83 LINE",
"139 46 LINE",
"394 295 LINE SMOOTH",
"488 387 OFFCURVE",
"508 446 OFFCURVE",
"508 513 CURVE SMOOTH",
"508 633 OFFCURVE",
"414 708 OFFCURVE",
"270 708 CURVE SMOOTH",
"150 708 OFFCURVE",
"66 663 OFFCURVE",
"14 590 CURVE",
"87 547 LINE",
"127 598 OFFCURVE",
"186 624 OFFCURVE",
"262 624 CURVE SMOOTH",
"358 624 OFFCURVE",
"410 577 OFFCURVE",
"410 504 CURVE SMOOTH",
"410 459 OFFCURVE",
"396 417 OFFCURVE",
"322 344 CURVE SMOOTH",
"37 66 LINE",
"37 0 LINE"
);
}
);
width = 575;
}
);
leftKerningGroup = two;
rightKerningGroup = two;
unicode = 0032;
},
{
glyphname = three;
lastChange = "2017-09-14 22:08:18 +0000";
layers = (
{
layerId = "16BDD2A6-1A19-40B6-80C2-67966448469B";
paths = (
{
closed = 1;
nodes = (
"439 -8 OFFCURVE",
"525 87 OFFCURVE",
"525 204 CURVE SMOOTH",
"525 324 OFFCURVE",
"441 406 OFFCURVE",
"272 406 CURVE SMOOTH",
"240 406 LINE",
"283 376 LINE",
"495 634 LINE",
"495 700 LINE",
"37 700 LINE",
"37 619 LINE",
"419 619 LINE",
"410 654 LINE",
"198 396 LINE",
"198 331 LINE",
"255 331 LINE SMOOTH",
"374 331 OFFCURVE",
"427 281 OFFCURVE",
"427 204 CURVE SMOOTH",
"427 125 OFFCURVE",
"367 76 OFFCURVE",
"260 76 CURVE SMOOTH",
"173 76 OFFCURVE",
"94 107 OFFCURVE",
"48 153 CURVE",
"11 77 LINE",
"65 25 OFFCURVE",
"162 -8 OFFCURVE",
"263 -8 CURVE SMOOTH"
);
}
);
width = 571;
}
);
leftKerningGroup = three;
rightKerningGroup = three;
unicode = 0033;
},
{
glyphname = four;
lastChange = "2017-09-14 22:08:18 +0000";
layers = (
{
layerId = "16BDD2A6-1A19-40B6-80C2-67966448469B";
paths = (
{
closed = 1;
nodes = (
"657 174 LINE",
"657 257 LINE",
"97 257 LINE",
"146 241 LINE",
"500 700 LINE",
"396 700 LINE",
"38 241 LINE",
"38 174 LINE"
);
},
{
closed = 1;
nodes = (
"524 0 LINE",
"524 410 LINE",
"430 410 LINE",
"430 257 LINE",
"427 174 LINE",
"427 0 LINE"
);
}
);
width = 669;
}
);
leftKerningGroup = four;
rightKerningGroup = four;
unicode = 0034;
},
{
color = 3;
glyphname = five;
lastChange = "2017-09-14 22:08:18 +0000";
layers = (
{
layerId = "16BDD2A6-1A19-40B6-80C2-67966448469B";
paths = (
{
closed = 1;
nodes = (
"453 -8 OFFCURVE",
"538 92 OFFCURVE",
"538 209 CURVE SMOOTH",
"538 333 OFFCURVE",
"461 419 OFFCURVE",
"250 419 CURVE SMOOTH",
"113 419 LINE",
"161 373 LINE",
"190 663 LINE",
"142 619 LINE",
"499 619 LINE",
"499 700 LINE",
"105 700 LINE",
"68 338 LINE",
"226 338 LINE SMOOTH",
"389 338 OFFCURVE",
"439 289 OFFCURVE",
"439 207 CURVE SMOOTH",
"439 130 OFFCURVE",
"381 76 OFFCURVE",
"271 76 CURVE SMOOTH",
"185 76 OFFCURVE",
"107 107 OFFCURVE",
"60 153 CURVE",
"24 77 LINE",
"77 25 OFFCURVE",
"174 -8 OFFCURVE",
"274 -8 CURVE SMOOTH"
);
}
);
width = 573;
}
);
leftKerningGroup = five;
rightKerningGroup = five;
unicode = 0035;
},
{
glyphname = six;
lastChange = "2017-09-14 22:08:18 +0000";
layers = (
{
layerId = "16BDD2A6-1A19-40B6-80C2-67966448469B";
paths = (
{
closed = 1;
nodes = (
"482 -8 OFFCURVE",
"587 78 OFFCURVE",
"587 213 CURVE SMOOTH",
"587 342 OFFCURVE",
"489 424 OFFCURVE",
"354 424 CURVE SMOOTH",
"237 424 OFFCURVE",
"150 361 OFFCURVE",
"134 254 CURVE",
"159 248 LINE",
"148 287 OFFCURVE",
"147 329 OFFCURVE",
"147 358 CURVE SMOOTH",
"147 535 OFFCURVE",
"238 625 OFFCURVE",
"380 625 CURVE SMOOTH",
"430 625 OFFCURVE",
"477 617 OFFCURVE",
"514 592 CURVE",
"550 666 LINE",
"505 695 OFFCURVE",
"443 708 OFFCURVE",
"377 708 CURVE SMOOTH",
"181 708 OFFCURVE",
"48 580 OFFCURVE",
"48 341 CURVE SMOOTH",
"48 120 OFFCURVE",
"155 -8 OFFCURVE",
"343 -8 CURVE SMOOTH"
);
},
{
closed = 1;
nodes = (
"229 67 OFFCURVE",
"170 136 OFFCURVE",
"170 207 CURVE SMOOTH",
"170 288 OFFCURVE",
"236 349 OFFCURVE",
"332 349 CURVE SMOOTH",
"430 349 OFFCURVE",
"491 294 OFFCURVE",
"491 208 CURVE SMOOTH",
"491 123 OFFCURVE",
"428 67 OFFCURVE",
"337 67 CURVE SMOOTH"
);
}
);
width = 615;
}
);
leftKerningGroup = zero;
leftMetricsKey = zero;
rightKerningGroup = six;
unicode = 0036;
},
{
glyphname = seven;
lastChange = "2017-09-14 22:08:18 +0000";
layers = (
{
layerId = "16BDD2A6-1A19-40B6-80C2-67966448469B";
paths = (
{
closed = 1;
nodes = (
"275 0 LINE",
"558 634 LINE",
"558 700 LINE",
"30 700 LINE",
"30 491 LINE",
"115 491 LINE",
"115 664 LINE",
"75 617 LINE",
"492 617 LINE",
"461 660 LINE",
"165 0 LINE"
);
}
);
width = 598;
}
);
leftKerningGroup = seven;
rightKerningGroup = seven;
unicode = 0037;
},
{
glyphname = eight;
lastChange = "2017-09-14 22:08:18 +0000";
layers = (
{
layerId = "16BDD2A6-1A19-40B6-80C2-67966448469B";
paths = (
{
closed = 1;
nodes = (
"490 -8 OFFCURVE",
"597 71 OFFCURVE",
"597 196 CURVE SMOOTH",
"597 318 OFFCURVE",
"487 391 OFFCURVE",
"320 391 CURVE SMOOTH",
"153 391 OFFCURVE",
"44 318 OFFCURVE",
"44 196 CURVE SMOOTH",
"44 71 OFFCURVE",
"150 -8 OFFCURVE",
"320 -8 CURVE SMOOTH"
);
},
{
closed = 1;
nodes = (
"209 65 OFFCURVE",
"143 117 OFFCURVE",
"143 198 CURVE SMOOTH",
"143 279 OFFCURVE",
"209 330 OFFCURVE",
"320 330 CURVE SMOOTH",
"431 330 OFFCURVE",
"498 279 OFFCURVE",
"498 198 CURVE SMOOTH",
"498 117 OFFCURVE",
"431 65 OFFCURVE",
"320 65 CURVE SMOOTH"
);
},
{
closed = 1;
nodes = (
"473 339 OFFCURVE",
"572 407 OFFCURVE",
"572 520 CURVE SMOOTH",
"572 635 OFFCURVE",
"471 708 OFFCURVE",
"320 708 CURVE SMOOTH",
"169 708 OFFCURVE",
"69 635 OFFCURVE",
"69 520 CURVE SMOOTH",
"69 407 OFFCURVE",
"166 339 OFFCURVE",
"320 339 CURVE SMOOTH"
);
},
{
closed = 1;
nodes = (
"224 399 OFFCURVE",
"166 444 OFFCURVE",
"166 517 CURVE SMOOTH",
"166 589 OFFCURVE",
"226 635 OFFCURVE",
"320 635 CURVE SMOOTH",
"414 635 OFFCURVE",
"475 589 OFFCURVE",
"475 516 CURVE SMOOTH",
"475 444 OFFCURVE",
"416 399 OFFCURVE",
"320 399 CURVE SMOOTH"
);
}
);
width = 641;
}
);
leftKerningGroup = eight;
rightKerningGroup = eight;
rightMetricsKey = "=|";
unicode = 0038;
},
{
glyphname = zero.osf;
lastChange = "2017-09-14 22:08:27 +0000";
layers = (
{
layerId = "16BDD2A6-1A19-40B6-80C2-67966448469B";
paths = (
{
closed = 1;
nodes = (
"510 -8 OFFCURVE",
"631 117 OFFCURVE",
"631 300 CURVE SMOOTH",
"631 483 OFFCURVE",
"510 608 OFFCURVE",
"340 608 CURVE SMOOTH",
"170 608 OFFCURVE",
"50 483 OFFCURVE",
"50 300 CURVE SMOOTH",
"50 117 OFFCURVE",
"170 -8 OFFCURVE",
"340 -8 CURVE SMOOTH"
);
},
{
closed = 1;
nodes = (
"227 74 OFFCURVE",
"147 163 OFFCURVE",
"147 300 CURVE SMOOTH",
"147 437 OFFCURVE",
"227 526 OFFCURVE",
"340 526 CURVE SMOOTH",
"453 526 OFFCURVE",
"534 437 OFFCURVE",
"534 300 CURVE SMOOTH",
"534 163 OFFCURVE",
"453 74 OFFCURVE",
"340 74 CURVE SMOOTH"
);
}
);
width = 681;
}
);
leftKerningGroup = zero.osf;
rightKerningGroup = zero.osf;
rightMetricsKey = "=|";
},
{
glyphname = one.osf;
lastChange = "2017-09-14 22:08:18 +0000";
layers = (
{
layerId = "16BDD2A6-1A19-40B6-80C2-67966448469B";
paths = (
{
closed = 1;
nodes = (
"265 0 LINE",
"265 600 LINE",
"8 600 LINE",
"8 519 LINE",
"209 519 LINE",
"166 561 LINE",
"166 0 LINE"
);
}
);
width = 370;
}
);
leftKerningGroup = one.osf;
rightKerningGroup = one.osf;
},
{
glyphname = two.osf;
lastChange = "2017-09-14 22:08:18 +0000";
layers = (
{
layerId = "16BDD2A6-1A19-40B6-80C2-67966448469B";
paths = (
{
closed = 1;
nodes = (
"535 0 LINE",
"535 80 LINE",
"118 80 LINE",
"134 36 LINE",
"392 245 LINE SMOOTH",
"485 320 OFFCURVE",
"504 371 OFFCURVE",
"504 432 CURVE SMOOTH",
"504 533 OFFCURVE",
"410 608 OFFCURVE",
"265 608 CURVE SMOOTH",
"146 608 OFFCURVE",
"61 563 OFFCURVE",
"10 490 CURVE",
"81 448 LINE",
"121 499 OFFCURVE",
"178 526 OFFCURVE",
"258 526 CURVE SMOOTH",
"354 526 OFFCURVE",
"405 481 OFFCURVE",
"405 423 CURVE SMOOTH",
"405 382 OFFCURVE",
"390 347 OFFCURVE",
"319 289 CURVE SMOOTH",
"33 57 LINE",
"33 0 LINE"
);
}
);
width = 575;
}
);
leftKerningGroup = two.osf;
rightKerningGroup = two.osf;
},
{
glyphname = three.osf;
lastChange = "2017-09-14 22:08:18 +0000";
layers = (
{
layerId = "16BDD2A6-1A19-40B6-80C2-67966448469B";
paths = (
{
closed = 1;
nodes = (
"446 -108 OFFCURVE",
"532 -13 OFFCURVE",
"532 104 CURVE SMOOTH",
"532 224 OFFCURVE",
"447 306 OFFCURVE",
"279 306 CURVE SMOOTH",
"247 306 LINE",
"290 276 LINE",
"501 534 LINE",
"501 600 LINE",
"43 600 LINE",
"43 519 LINE",
"425 519 LINE",
"416 554 LINE",
"204 296 LINE",
"204 231 LINE",
"261 231 LINE SMOOTH",
"380 231 OFFCURVE",
"433 181 OFFCURVE",
"433 104 CURVE SMOOTH",
"433 25 OFFCURVE",
"374 -24 OFFCURVE",
"266 -24 CURVE SMOOTH",
"180 -24 OFFCURVE",
"101 7 OFFCURVE",
"54 53 CURVE",
"18 -23 LINE",
"71 -75 OFFCURVE",
"168 -108 OFFCURVE",
"269 -108 CURVE SMOOTH"
);
}
);
width = 571;
}
);
leftKerningGroup = three.osf;
rightKerningGroup = three.osf;
},
{
glyphname = four.osf;
lastChange = "2017-09-14 22:08:18 +0000";
layers = (
{
layerId = "16BDD2A6-1A19-40B6-80C2-67966448469B";
paths = (
{
closed = 1;
nodes = (
"657 74 LINE",
"657 157 LINE",
"97 157 LINE",
"146 141 LINE",
"500 600 LINE",
"396 600 LINE",
"38 141 LINE",
"38 74 LINE"
);
},
{
closed = 1;
nodes = (
"524 -100 LINE",
"524 310 LINE",
"430 310 LINE",
"430 157 LINE",
"427 74 LINE",
"427 -100 LINE"
);
}
);
width = 669;
}
);
leftKerningGroup = four.osf;
rightKerningGroup = four.osf;
},
{
color = 3;
glyphname = five.osf;
lastChange = "2017-09-14 22:08:18 +0000";
layers = (
{
layerId = "16BDD2A6-1A19-40B6-80C2-67966448469B";
paths = (
{
closed = 1;
nodes = (
"453 -108 OFFCURVE",
"538 -8 OFFCURVE",
"538 109 CURVE SMOOTH",
"538 233 OFFCURVE",
"461 319 OFFCURVE",
"250 319 CURVE SMOOTH",
"113 319 LINE",
"161 273 LINE",
"190 563 LINE",
"142 519 LINE",
"499 519 LINE",
"499 600 LINE",
"105 600 LINE",
"68 238 LINE",
"226 238 LINE SMOOTH",
"389 238 OFFCURVE",
"439 189 OFFCURVE",
"439 107 CURVE SMOOTH",
"439 30 OFFCURVE",
"382 -24 OFFCURVE",
"271 -24 CURVE SMOOTH",
"186 -24 OFFCURVE",
"107 7 OFFCURVE",
"60 53 CURVE",
"24 -23 LINE",
"77 -75 OFFCURVE",
"174 -108 OFFCURVE",
"274 -108 CURVE SMOOTH"
);
}
);
width = 573;
}
);
leftKerningGroup = five.osf;
rightKerningGroup = five.osf;
},
{
glyphname = six.osf;
lastChange = "2017-09-14 22:08:18 +0000";
layers = (
{
layerId = "16BDD2A6-1A19-40B6-80C2-67966448469B";
paths = (
{
closed = 1;
nodes = (
"482 -8 OFFCURVE",
"587 78 OFFCURVE",
"587 213 CURVE SMOOTH",
"587 342 OFFCURVE",
"489 424 OFFCURVE",
"354 424 CURVE SMOOTH",
"237 424 OFFCURVE",
"150 361 OFFCURVE",
"134 254 CURVE",
"159 248 LINE",
"148 287 OFFCURVE",
"147 329 OFFCURVE",
"147 358 CURVE SMOOTH",
"147 535 OFFCURVE",
"238 625 OFFCURVE",
"380 625 CURVE SMOOTH",
"430 625 OFFCURVE",
"477 617 OFFCURVE",
"514 592 CURVE",
"550 666 LINE",
"505 695 OFFCURVE",
"443 708 OFFCURVE",
"377 708 CURVE SMOOTH",
"181 708 OFFCURVE",
"48 580 OFFCURVE",
"48 341 CURVE SMOOTH",
"48 120 OFFCURVE",
"155 -8 OFFCURVE",
"343 -8 CURVE SMOOTH"
);
},
{
closed = 1;
nodes = (
"229 67 OFFCURVE",
"170 136 OFFCURVE",
"170 207 CURVE SMOOTH",
"170 288 OFFCURVE",
"236 349 OFFCURVE",
"332 349 CURVE SMOOTH",
"430 349 OFFCURVE",
"491 294 OFFCURVE",
"491 208 CURVE SMOOTH",
"491 123 OFFCURVE",
"428 67 OFFCURVE",
"337 67 CURVE SMOOTH"
);
}
);
width = 615;
}
);
leftKerningGroup = zero;
rightKerningGroup = six;
},
{
glyphname = seven.osf;
lastChange = "2017-09-14 22:08:18 +0000";
layers = (
{
layerId = "16BDD2A6-1A19-40B6-80C2-67966448469B";
paths = (
{
closed = 1;
nodes = (
"275 -100 LINE",
"558 534 LINE",
"558 600 LINE",
"30 600 LINE",
"30 391 LINE",
"115 391 LINE",
"115 564 LINE",
"75 517 LINE",
"492 517 LINE",
"461 560 LINE",
"165 -100 LINE"
);
}
);
width = 598;
}
);
leftKerningGroup = seven.osf;
rightKerningGroup = seven.osf;
},
{
glyphname = eight.osf;
lastChange = "2017-09-14 22:08:18 +0000";
layers = (
{
layerId = "16BDD2A6-1A19-40B6-80C2-67966448469B";
paths = (
{
closed = 1;
nodes = (
"490 -8 OFFCURVE",
"597 71 OFFCURVE",
"597 196 CURVE SMOOTH",
"597 318 OFFCURVE",
"487 391 OFFCURVE",
"320 391 CURVE SMOOTH",
"153 391 OFFCURVE",
"44 318 OFFCURVE",
"44 196 CURVE SMOOTH",
"44 71 OFFCURVE",
"150 -8 OFFCURVE",
"320 -8 CURVE SMOOTH"
);
},
{
closed = 1;
nodes = (
"209 65 OFFCURVE",
"143 117 OFFCURVE",
"143 198 CURVE SMOOTH",
"143 279 OFFCURVE",
"209 330 OFFCURVE",
"320 330 CURVE SMOOTH",
"431 330 OFFCURVE",
"498 279 OFFCURVE",
"498 198 CURVE SMOOTH",
"498 117 OFFCURVE",
"431 65 OFFCURVE",
"320 65 CURVE SMOOTH"
);
},
{
closed = 1;
nodes = (
"473 339 OFFCURVE",
"572 407 OFFCURVE",
"572 520 CURVE SMOOTH",
"572 635 OFFCURVE",
"471 708 OFFCURVE",
"320 708 CURVE SMOOTH",
"169 708 OFFCURVE",
"69 635 OFFCURVE",
"69 520 CURVE SMOOTH",
"69 407 OFFCURVE",
"166 339 OFFCURVE",
"320 339 CURVE SMOOTH"
);
},
{
closed = 1;
nodes = (
"224 399 OFFCURVE",
"166 444 OFFCURVE",
"166 517 CURVE SMOOTH",
"166 589 OFFCURVE",
"226 635 OFFCURVE",
"320 635 CURVE SMOOTH",
"414 635 OFFCURVE",
"475 589 OFFCURVE",
"475 516 CURVE SMOOTH",
"475 444 OFFCURVE",
"416 399 OFFCURVE",
"320 399 CURVE SMOOTH"
);
}
);
width = 641;
}
);
leftKerningGroup = eight;
rightKerningGroup = eight;
},
{
glyphname = nine.osf;
lastChange = "2017-09-14 22:08:18 +0000";
layers = (
{
layerId = "16BDD2A6-1A19-40B6-80C2-67966448469B";
paths = (
{
closed = 1;
nodes = (
"132 608 OFFCURVE",
"28 522 OFFCURVE",
"28 387 CURVE SMOOTH",
"28 258 OFFCURVE",
"125 176 OFFCURVE",
"260 176 CURVE SMOOTH",
"378 176 OFFCURVE",
"464 239 OFFCURVE",
"481 346 CURVE",
"456 352 LINE",
"466 313 OFFCURVE",
"468 271 OFFCURVE",
"468 242 CURVE SMOOTH",
"468 65 OFFCURVE",
"376 -25 OFFCURVE",
"235 -25 CURVE SMOOTH",
"185 -25 OFFCURVE",
"138 -17 OFFCURVE",
"100 8 CURVE",
"64 -66 LINE",
"109 -95 OFFCURVE",
"172 -108 OFFCURVE",
"237 -108 CURVE SMOOTH",
"434 -108 OFFCURVE",
"567 20 OFFCURVE",
"567 259 CURVE SMOOTH",
"567 480 OFFCURVE",
"459 608 OFFCURVE",
"271 608 CURVE SMOOTH"
);
},
{
closed = 1;
nodes = (
"386 533 OFFCURVE",
"444 464 OFFCURVE",
"444 393 CURVE SMOOTH",
"444 312 OFFCURVE",
"378 251 OFFCURVE",
"282 251 CURVE SMOOTH",
"185 251 OFFCURVE",
"123 306 OFFCURVE",
"123 392 CURVE SMOOTH",
"123 477 OFFCURVE",
"187 533 OFFCURVE",
"278 533 CURVE SMOOTH"
);
}
);
width = 615;
}
);
leftKerningGroup = nine.osf;
rightKerningGroup = nine.osf;
},
{
glyphname = zero.tf;
lastChange = "2017-09-14 22:08:18 +0000";
layers = (
{
layerId = "16BDD2A6-1A19-40B6-80C2-67966448469B";
paths = (
{
closed = 1;
nodes = (
"520 -8 OFFCURVE",
"638 129 OFFCURVE",
"638 350 CURVE SMOOTH",
"638 571 OFFCURVE",
"520 708 OFFCURVE",
"350 708 CURVE SMOOTH",
"180 708 OFFCURVE",
"62 571 OFFCURVE",
"62 350 CURVE SMOOTH",
"62 129 OFFCURVE",
"180 -8 OFFCURVE",
"350 -8 CURVE SMOOTH"
);
},
{
closed = 1;
nodes = (
"239 77 OFFCURVE",
"161 172 OFFCURVE",
"161 350 CURVE SMOOTH",
"161 528 OFFCURVE",
"239 623 OFFCURVE",
"350 623 CURVE SMOOTH",
"461 623 OFFCURVE",
"539 528 OFFCURVE",
"539 350 CURVE SMOOTH",
"539 172 OFFCURVE",
"461 77 OFFCURVE",
"350 77 CURVE SMOOTH"
);
}
);
width = 700;
}
);
userData = {
RMXScaler = {
source = zero;
};
};
},
{
glyphname = one.tf;
lastChange = "2017-09-14 22:08:18 +0000";
layers = (
{
layerId = "16BDD2A6-1A19-40B6-80C2-67966448469B";
paths = (
{
closed = 1;
nodes = (
"427 0 LINE",
"427 700 LINE",
"155 700 LINE",
"155 619 LINE",
"370 619 LINE",
"327 661 LINE",
"327 0 LINE"
);
},
{
closed = 1;
nodes = (
"143 0 LINE",
"591 0 LINE",
"591 81 LINE",
"143 81 LINE"
);
}
);
width = 700;
}
);
userData = {
RMXScaler = {
source = one;
};
};
},
{
glyphname = two.tf;
lastChange = "2017-09-14 22:08:18 +0000";
layers = (
{
layerId = "16BDD2A6-1A19-40B6-80C2-67966448469B";
paths = (
{
closed = 1;
nodes = (
"604 0 LINE",
"604 83 LINE",
"167 83 LINE",
"189 47 LINE",
"450 295 LINE SMOOTH",
"548 390 OFFCURVE",
"574 446 OFFCURVE",
"574 515 CURVE SMOOTH",
"574 625 OFFCURVE",
"485 708 OFFCURVE",
"319 708 CURVE SMOOTH",
"198 708 OFFCURVE",
"114 665 OFFCURVE",
"62 592 CURVE",
"133 548 LINE",
"175 599 OFFCURVE",
"235 624 OFFCURVE",
"312 624 CURVE SMOOTH",
"422 624 OFFCURVE",
"475 573 OFFCURVE",
"475 507 CURVE SMOOTH",
"475 460 OFFCURVE",
"457 418 OFFCURVE",
"379 344 CURVE SMOOTH",
"87 66 LINE",
"87 0 LINE"
);
}
);
width = 700;
}
);
userData = {
RMXScaler = {
source = two;
};
};
},
{
glyphname = three.tf;
lastChange = "2017-09-14 22:08:18 +0000";
layers = (
{
layerId = "16BDD2A6-1A19-40B6-80C2-67966448469B";
paths = (
{
closed = 1;
nodes = (
"516 -8 OFFCURVE",
"604 87 OFFCURVE",
"604 204 CURVE SMOOTH",
"604 324 OFFCURVE",
"517 406 OFFCURVE",
"351 406 CURVE SMOOTH",
"312 406 LINE",
"350 376 LINE",
"573 634 LINE",
"573 700 LINE",
"80 700 LINE",
"80 619 LINE",
"497 619 LINE",
"487 654 LINE",
"264 396 LINE",
"264 331 LINE",
"333 331 LINE SMOOTH",
"452 331 OFFCURVE",
"505 281 OFFCURVE",
"505 204 CURVE SMOOTH",
"505 125 OFFCURVE",
"448 76 OFFCURVE",
"330 76 CURVE SMOOTH",
"233 76 OFFCURVE",
"149 109 OFFCURVE",
"100 157 CURVE",
"63 81 LINE",
"116 28 OFFCURVE",
"218 -8 OFFCURVE",
"332 -8 CURVE SMOOTH"
);
}
);
width = 700;
}
);
userData = {
RMXScaler = {
source = three;
};
};
},
{
glyphname = four.tf;
lastChange = "2017-09-14 22:08:18 +0000";
layers = (
{
layerId = "16BDD2A6-1A19-40B6-80C2-67966448469B";
paths = (
{
closed = 1;
nodes = (
"641 174 LINE",
"641 257 LINE",
"113 257 LINE",
"159 241 LINE",
"476 700 LINE",
"370 700 LINE",
"53 241 LINE",
"53 174 LINE"
);
},
{
closed = 1;
nodes = (
"509 0 LINE",
"509 406 LINE",
"418 406 LINE",
"418 257 LINE",
"414 174 LINE",
"414 0 LINE"
);
}
);
width = 700;
}
);
userData = {
RMXScaler = {
source = four;
};
};
},
{
color = 3;
glyphname = five.tf;
lastChange = "2017-09-14 22:08:18 +0000";
layers = (
{
layerId = "16BDD2A6-1A19-40B6-80C2-67966448469B";
paths = (
{
closed = 1;
nodes = (
"524 -8 OFFCURVE",
"607 96 OFFCURVE",
"607 211 CURVE SMOOTH",
"607 331 OFFCURVE",
"533 419 OFFCURVE",
"311 419 CURVE SMOOTH",
"161 419 LINE",
"210 373 LINE",
"241 663 LINE",
"192 619 LINE",
"563 619 LINE",
"563 700 LINE",
"156 700 LINE",
"118 338 LINE",
"296 338 LINE SMOOTH",
"457 338 OFFCURVE",
"508 284 OFFCURVE",
"508 209 CURVE SMOOTH",
"508 135 OFFCURVE",
"452 76 OFFCURVE",
"334 76 CURVE SMOOTH",
"239 76 OFFCURVE",
"158 108 OFFCURVE",
"106 148 CURVE",
"69 73 LINE",
"124 26 OFFCURVE",
"225 -8 OFFCURVE",
"338 -8 CURVE SMOOTH"
);
}
);
width = 700;
}
);
userData = {
RMXScaler = {
source = five;
};
};
},
{
glyphname = six.tf;
lastChange = "2017-09-14 22:08:18 +0000";
layers = (
{
layerId = "16BDD2A6-1A19-40B6-80C2-67966448469B";
paths = (
{
closed = 1;
nodes = (
"525 -8 OFFCURVE",
"634 81 OFFCURVE",
"634 213 CURVE SMOOTH",
"634 339 OFFCURVE",
"531 424 OFFCURVE",
"391 424 CURVE SMOOTH",
"274 424 OFFCURVE",
"180 365 OFFCURVE",
"161 258 CURVE",
"184 246 LINE",
"175 283 OFFCURVE",
"173 327 OFFCURVE",
"173 356 CURVE SMOOTH",
"173 531 OFFCURVE",
"275 625 OFFCURVE",
"425 625 CURVE SMOOTH",
"475 625 OFFCURVE",
"523 615 OFFCURVE",
"561 591 CURVE",
"598 667 LINE",
"552 694 OFFCURVE",
"488 708 OFFCURVE",
"425 708 CURVE SMOOTH",
"212 708 OFFCURVE",
"75 565 OFFCURVE",
"75 340 CURVE SMOOTH",
"75 119 OFFCURVE",
"189 -8 OFFCURVE",
"378 -8 CURVE SMOOTH"
);
},
{
closed = 1;
nodes = (
"261 66 OFFCURVE",
"199 140 OFFCURVE",
"199 208 CURVE SMOOTH",
"199 293 OFFCURVE",
"273 350 OFFCURVE",
"369 350 CURVE SMOOTH",
"469 350 OFFCURVE",
"536 293 OFFCURVE",
"536 208 CURVE SMOOTH",
"536 124 OFFCURVE",
"468 66 OFFCURVE",
"374 66 CURVE SMOOTH"
);
}
);
width = 700;
}
);
userData = {
RMXScaler = {
source = six;
};
};
},
{
glyphname = seven.tf;
lastChange = "2017-09-14 22:08:18 +0000";
layers = (
{
layerId = "16BDD2A6-1A19-40B6-80C2-67966448469B";
paths = (
{
closed = 1;
nodes = (
"328 0 LINE",
"635 634 LINE",
"635 700 LINE",
"73 700 LINE",
"73 491 LINE",
"158 491 LINE",
"158 664 LINE",
"118 617 LINE",
"569 617 LINE",
"538 660 LINE",
"220 0 LINE"
);
}
);
width = 700;
}
);
userData = {
RMXScaler = {
source = seven;
};
};
},
{
glyphname = eight.tf;
lastChange = "2017-09-14 22:08:18 +0000";
layers = (
{
layerId = "16BDD2A6-1A19-40B6-80C2-67966448469B";
paths = (
{
closed = 1;
nodes = (
"529 -8 OFFCURVE",
"640 73 OFFCURVE",
"640 195 CURVE SMOOTH",
"640 317 OFFCURVE",
"528 392 OFFCURVE",
"349 392 CURVE SMOOTH",
"171 392 OFFCURVE",
"60 317 OFFCURVE",
"60 195 CURVE SMOOTH",
"60 73 OFFCURVE",
"170 -8 OFFCURVE",
"349 -8 CURVE SMOOTH"
);
},
{
closed = 1;
nodes = (
"228 65 OFFCURVE",
"159 119 OFFCURVE",
"159 198 CURVE SMOOTH",
"159 277 OFFCURVE",
"228 330 OFFCURVE",
"349 330 CURVE SMOOTH",
"471 330 OFFCURVE",
"541 277 OFFCURVE",
"541 198 CURVE SMOOTH",
"541 119 OFFCURVE",
"471 65 OFFCURVE",
"349 65 CURVE SMOOTH"
);
},
{
closed = 1;
nodes = (
"514 339 OFFCURVE",
"615 409 OFFCURVE",
"615 521 CURVE SMOOTH",
"615 633 OFFCURVE",
"510 708 OFFCURVE",
"349 708 CURVE SMOOTH",
"188 708 OFFCURVE",
"85 633 OFFCURVE",
"85 521 CURVE SMOOTH",
"85 409 OFFCURVE",
"185 339 OFFCURVE",
"349 339 CURVE SMOOTH"
);
},
{
closed = 1;
nodes = (
"243 399 OFFCURVE",
"182 447 OFFCURVE",
"182 517 CURVE SMOOTH",
"182 587 OFFCURVE",
"246 635 OFFCURVE",
"349 635 CURVE SMOOTH",
"453 635 OFFCURVE",
"518 587 OFFCURVE",
"518 517 CURVE SMOOTH",
"518 447 OFFCURVE",
"455 399 OFFCURVE",
"349 399 CURVE SMOOTH"
);
}
);
width = 700;
}
);
rightMetricsKey = "=|";
userData = {
RMXScaler = {
source = eight;
};
};
},
{
glyphname = zero.tosf;
lastChange = "2017-09-14 22:08:18 +0000";
layers = (
{
layerId = "16BDD2A6-1A19-40B6-80C2-67966448469B";
paths = (
{
closed = 1;
nodes = (
"519 -8 OFFCURVE",
"638 117 OFFCURVE",
"638 300 CURVE SMOOTH",
"638 483 OFFCURVE",
"519 608 OFFCURVE",
"350 608 CURVE SMOOTH",
"181 608 OFFCURVE",
"62 483 OFFCURVE",
"62 300 CURVE SMOOTH",
"62 117 OFFCURVE",
"181 -8 OFFCURVE",
"350 -8 CURVE SMOOTH"
);
},
{
closed = 1;
nodes = (
"238 75 OFFCURVE",
"158 163 OFFCURVE",
"158 300 CURVE SMOOTH",
"158 437 OFFCURVE",
"238 525 OFFCURVE",
"350 525 CURVE SMOOTH",
"462 525 OFFCURVE",
"542 437 OFFCURVE",
"542 300 CURVE SMOOTH",
"542 163 OFFCURVE",
"462 75 OFFCURVE",
"350 75 CURVE SMOOTH"
);
}
);
width = 700;
}
);
rightMetricsKey = "=|";
userData = {
RMXScaler = {
source = zero.osf;
};
};
},
{
glyphname = one.tosf;
lastChange = "2017-09-14 22:08:18 +0000";
layers = (
{
layerId = "16BDD2A6-1A19-40B6-80C2-67966448469B";
paths = (
{
closed = 1;
nodes = (
"425 0 LINE",
"425 600 LINE",
"157 600 LINE",
"157 519 LINE",
"370 519 LINE",
"327 561 LINE",
"327 0 LINE"
);
},
{
closed = 1;
nodes = (
"143 0 LINE",
"591 0 LINE",
"591 81 LINE",
"143 81 LINE"
);
}
);
width = 700;
}
);
userData = {
RMXScaler = {
source = one.osf;
};
};
},
{
glyphname = two.tosf;
lastChange = "2017-09-14 22:08:18 +0000";
layers = (
{
layerId = "16BDD2A6-1A19-40B6-80C2-67966448469B";
paths = (
{
closed = 1;
nodes = (
"617 0 LINE",
"617 80 LINE",
"182 80 LINE",
"198 36 LINE",
"470 245 LINE SMOOTH",
"565 318 OFFCURVE",
"582 371 OFFCURVE",
"582 432 CURVE SMOOTH",
"582 533 OFFCURVE",
"488 608 OFFCURVE",
"336 608 CURVE SMOOTH",
"208 608 OFFCURVE",
"124 563 OFFCURVE",
"72 490 CURVE",
"144 448 LINE",
"184 499 OFFCURVE",
"241 526 OFFCURVE",
"329 526 CURVE SMOOTH",
"432 526 OFFCURVE",
"484 481 OFFCURVE",
"484 423 CURVE SMOOTH",
"484 382 OFFCURVE",
"470 345 OFFCURVE",
"398 289 CURVE SMOOTH",
"97 57 LINE",
"97 0 LINE"
);
}
);
width = 700;
}
);
userData = {
RMXScaler = {
source = two.osf;
};
};
},
{
glyphname = zero.dnom;
lastChange = "2017-09-14 22:08:18 +0000";
layers = (
{
layerId = "16BDD2A6-1A19-40B6-80C2-67966448469B";
paths = (
{
closed = 1;
nodes = (
"326 -5 OFFCURVE",
"401 76 OFFCURVE",
"401 208 CURVE SMOOTH",
"401 339 OFFCURVE",
"326 420 OFFCURVE",
"215 420 CURVE SMOOTH",
"104 420 OFFCURVE",
"29 339 OFFCURVE",
"29 208 CURVE SMOOTH",
"29 76 OFFCURVE",
"104 -5 OFFCURVE",
"215 -5 CURVE SMOOTH"
);
},
{
closed = 1;
nodes = (
"147 51 OFFCURVE",
"98 106 OFFCURVE",
"98 208 CURVE SMOOTH",
"98 310 OFFCURVE",
"147 364 OFFCURVE",
"215 364 CURVE SMOOTH",
"283 364 OFFCURVE",
"332 310 OFFCURVE",
"332 208 CURVE SMOOTH",
"332 106 OFFCURVE",
"283 51 OFFCURVE",
"215 51 CURVE SMOOTH"
);
}
);
width = 430;
}
);
},
{
glyphname = one.dnom;
lastChange = "2017-09-14 22:08:18 +0000";
layers = (
{
layerId = "16BDD2A6-1A19-40B6-80C2-67966448469B";
paths = (
{
closed = 1;
nodes = (
"268 10 LINE",
"268 415 LINE",
"89 415 LINE",
"89 361 LINE",
"228 361 LINE",
"197 390 LINE",
"197 10 LINE"
);
},
{
closed = 1;
nodes = (
"371 0 LINE",
"371 54 LINE",
"80 54 LINE",
"80 0 LINE"
);
}
);
width = 430;
}
);
},
{
glyphname = two.dnom;
lastChange = "2017-09-14 22:08:18 +0000";
layers = (
{
layerId = "16BDD2A6-1A19-40B6-80C2-67966448469B";
paths = (
{
closed = 1;
nodes = (
"380 0 LINE",
"380 55 LINE",
"103 55 LINE",
"119 31 LINE",
"282 174 LINE SMOOTH",
"345 230 OFFCURVE",
"361 263 OFFCURVE",
"361 304 CURVE SMOOTH",
"361 371 OFFCURVE",
"304 420 OFFCURVE",
"196 420 CURVE SMOOTH",
"117 420 OFFCURVE",
"60 393 OFFCURVE",
"28 349 CURVE",
"79 320 LINE",
"104 349 OFFCURVE",
"143 364 OFFCURVE",
"191 364 CURVE SMOOTH",
"260 364 OFFCURVE",
"291 335 OFFCURVE",
"291 299 CURVE SMOOTH",
"291 272 OFFCURVE",
"279 248 OFFCURVE",
"231 206 CURVE SMOOTH",
"46 44 LINE",
"46 0 LINE"
);
}
);
width = 430;
}
);
},
{
glyphname = three.dnom;
lastChange = "2017-09-14 22:08:18 +0000";
layers = (
{
layerId = "16BDD2A6-1A19-40B6-80C2-67966448469B";
paths = (
{
closed = 1;
nodes = (
"324 -5 OFFCURVE",
"381 53 OFFCURVE",
"381 122 CURVE SMOOTH",
"381 193 OFFCURVE",
"325 242 OFFCURVE",
"217 242 CURVE SMOOTH",
"192 242 LINE",
"219 224 LINE",
"361 371 LINE",
"361 415 LINE",
"40 415 LINE",
"40 361 LINE",
"306 361 LINE",
"299 384 LINE",
"158 237 LINE",
"158 192 LINE",
"205 192 LINE SMOOTH",
"278 192 OFFCURVE",
"311 165 OFFCURVE",
"311 122 CURVE SMOOTH",
"311 78 OFFCURVE",
"275 51 OFFCURVE",
"202 51 CURVE SMOOTH",
"141 51 OFFCURVE",
"87 70 OFFCURVE",
"55 98 CURVE",
"29 46 LINE",
"63 15 OFFCURVE",
"130 -5 OFFCURVE",
"203 -5 CURVE SMOOTH"
);
}
);
width = 430;
}
);
},
{
glyphname = four.dnom;
lastChange = "2017-09-14 22:08:18 +0000";
layers = (
{
layerId = "16BDD2A6-1A19-40B6-80C2-67966448469B";
paths = (
{
closed = 1;
nodes = (
"404 100 LINE",
"404 155 LINE",
"65 155 LINE",
"98 145 LINE",
"299 415 LINE",
"223 415 LINE",
"22 145 LINE",
"22 100 LINE"
);
},
{
closed = 1;
nodes = (
"321 0 LINE",
"321 241 LINE",
"260 241 LINE",
"260 155 LINE",
"253 100 LINE",
"253 0 LINE"
);
}
);
width = 430;
}
);
},
{
glyphname = five.dnom;
lastChange = "2017-09-14 22:08:18 +0000";
layers = (
{
layerId = "16BDD2A6-1A19-40B6-80C2-67966448469B";
paths = (
{
closed = 1;
nodes = (
"325 -5 OFFCURVE",
"382 53 OFFCURVE",
"382 123 CURVE SMOOTH",
"382 194 OFFCURVE",
"334 244 OFFCURVE",
"191 244 CURVE SMOOTH",
"94 244 LINE",
"130 213 LINE",
"149 391 LINE",
"113 361 LINE",
"354 361 LINE",
"354 415 LINE",
"88 415 LINE",
"64 189 LINE",
"181 189 LINE SMOOTH",
"281 189 OFFCURVE",
"311 163 OFFCURVE",
"311 122 CURVE SMOOTH",
"311 78 OFFCURVE",
"276 51 OFFCURVE",
"202 51 CURVE SMOOTH",
"143 51 OFFCURVE",
"91 69 OFFCURVE",
"58 95 CURVE",
"33 44 LINE",
"67 14 OFFCURVE",
"132 -5 OFFCURVE",
"204 -5 CURVE SMOOTH"
);
}
);
width = 430;
}
);
},
{
glyphname = six.dnom;
lastChange = "2017-09-14 22:08:18 +0000";
layers = (
{
layerId = "16BDD2A6-1A19-40B6-80C2-67966448469B";
paths = (
{
closed = 1;
nodes = (
"329 -5 OFFCURVE",
"398 48 OFFCURVE",
"398 127 CURVE SMOOTH",
"398 202 OFFCURVE",
"333 254 OFFCURVE",
"244 254 CURVE SMOOTH",
"168 254 OFFCURVE",
"110 220 OFFCURVE",
"97 159 CURVE",
"114 149 LINE",
"108 170 OFFCURVE",
"107 195 OFFCURVE",
"107 212 CURVE SMOOTH",
"107 308 OFFCURVE",
"168 365 OFFCURVE",
"264 365 CURVE SMOOTH",
"296 365 OFFCURVE",
"326 359 OFFCURVE",
"352 346 CURVE",
"377 396 LINE",
"348 412 OFFCURVE",
"305 420 OFFCURVE",
"265 420 CURVE SMOOTH",
"128 420 OFFCURVE",
"36 337 OFFCURVE",
"36 201 CURVE SMOOTH",
"36 70 OFFCURVE",
"109 -5 OFFCURVE",
"233 -5 CURVE SMOOTH"
);
},
{
closed = 1;
nodes = (
"159 45 OFFCURVE",
"123 86 OFFCURVE",
"123 124 CURVE SMOOTH",
"123 171 OFFCURVE",
"169 204 OFFCURVE",
"228 204 CURVE SMOOTH",
"293 204 OFFCURVE",
"332 171 OFFCURVE",
"332 124 CURVE SMOOTH",
"332 76 OFFCURVE",
"291 45 OFFCURVE",
"231 45 CURVE SMOOTH"
);
}
);
width = 430;
}
);
},
{
glyphname = seven.dnom;
lastChange = "2017-09-14 22:08:18 +0000";
layers = (
{
layerId = "16BDD2A6-1A19-40B6-80C2-67966448469B";
paths = (
{
closed = 1;
nodes = (
"205 0 LINE",
"399 371 LINE",
"399 415 LINE",
"36 415 LINE",
"36 287 LINE",
"96 287 LINE",
"96 391 LINE",
"68 360 LINE",
"352 360 LINE",
"330 389 LINE",
"127 0 LINE"
);
}
);
width = 430;
}
);
},
{
glyphname = eight.dnom;
lastChange = "2017-09-14 22:08:18 +0000";
layers = (
{
layerId = "16BDD2A6-1A19-40B6-80C2-67966448469B";
paths = (
{
closed = 1;
nodes = (
"331 -5 OFFCURVE",
"403 44 OFFCURVE",
"403 116 CURVE SMOOTH",
"403 190 OFFCURVE",
"329 233 OFFCURVE",
"214 233 CURVE SMOOTH",
"100 233 OFFCURVE",
"27 190 OFFCURVE",
"27 116 CURVE SMOOTH",
"27 44 OFFCURVE",
"99 -5 OFFCURVE",
"214 -5 CURVE SMOOTH"
);
},
{
closed = 1;
nodes = (
"139 44 OFFCURVE",
"97 74 OFFCURVE",
"97 119 CURVE SMOOTH",
"97 163 OFFCURVE",
"140 193 OFFCURVE",
"214 193 CURVE SMOOTH",
"289 193 OFFCURVE",
"333 163 OFFCURVE",
"333 119 CURVE SMOOTH",
"333 74 OFFCURVE",
"289 44 OFFCURVE",
"214 44 CURVE SMOOTH"
);
},
{
closed = 1;
nodes = (
"322 200 OFFCURVE",
"388 241 OFFCURVE",
"388 308 CURVE SMOOTH",
"388 375 OFFCURVE",
"320 420 OFFCURVE",
"214 420 CURVE SMOOTH",
"110 420 OFFCURVE",
"42 375 OFFCURVE",
"42 308 CURVE SMOOTH",
"42 241 OFFCURVE",
"108 200 OFFCURVE",
"214 200 CURVE SMOOTH"
);
},
{
closed = 1;
nodes = (
"148 239 OFFCURVE",
"110 266 OFFCURVE",
"110 306 CURVE SMOOTH",
"110 345 OFFCURVE",
"148 371 OFFCURVE",
"214 371 CURVE SMOOTH",
"280 371 OFFCURVE",
"320 345 OFFCURVE",
"320 305 CURVE SMOOTH",
"320 266 OFFCURVE",
"281 239 OFFCURVE",
"214 239 CURVE SMOOTH"
);
}
);
width = 430;
}
);
},
{
glyphname = nine.dnom;
lastChange = "2017-09-14 22:08:18 +0000";
layers = (
{
layerId = "16BDD2A6-1A19-40B6-80C2-67966448469B";
paths = (
{
closed = 1;
nodes = (
"302 -5 OFFCURVE",
"394 78 OFFCURVE",
"394 214 CURVE SMOOTH",
"394 345 OFFCURVE",
"321 420 OFFCURVE",
"197 420 CURVE SMOOTH",
"101 420 OFFCURVE",
"32 367 OFFCURVE",
"32 288 CURVE SMOOTH",
"32 213 OFFCURVE",
"97 161 OFFCURVE",
"186 161 CURVE SMOOTH",
"262 161 OFFCURVE",
"320 195 OFFCURVE",
"333 256 CURVE",
"316 266 LINE",
"322 245 OFFCURVE",
"323 220 OFFCURVE",
"323 203 CURVE SMOOTH",
"323 107 OFFCURVE",
"262 50 OFFCURVE",
"166 50 CURVE SMOOTH",
"134 50 OFFCURVE",
"104 56 OFFCURVE",
"78 69 CURVE",
"53 19 LINE",
"82 3 OFFCURVE",
"125 -5 OFFCURVE",
"165 -5 CURVE SMOOTH"
);
},
{
closed = 1;
nodes = (
"137 211 OFFCURVE",
"98 244 OFFCURVE",
"98 291 CURVE SMOOTH",
"98 339 OFFCURVE",
"139 370 OFFCURVE",
"199 370 CURVE SMOOTH",
"271 370 OFFCURVE",
"307 329 OFFCURVE",
"307 291 CURVE SMOOTH",
"307 244 OFFCURVE",
"261 211 OFFCURVE",
"202 211 CURVE SMOOTH"
);
}
);
width = 430;
}
);
},
{
glyphname = fraction;
lastChange = "2017-09-14 22:08:18 +0000";
layers = (
{
layerId = "16BDD2A6-1A19-40B6-80C2-67966448469B";
paths = (
{
closed = 1;
nodes = (
"-114 0 LINE",
"364 700 LINE",
"288 700 LINE",
"-190 0 LINE"
);
}
);
width = 174;
}
);
leftKerningGroup = fraction;
rightKerningGroup = fraction;
unicode = 2044;
},
{
glyphname = asterisk;
lastChange = "2017-09-14 22:08:18 +0000";
layers = (
{
layerId = "16BDD2A6-1A19-40B6-80C2-67966448469B";
paths = (
{
closed = 1;
nodes = (
"350 677 LINE",
"218 599 LINE",
"229 593 LINE",
"230 742 LINE",
"170 742 LINE",
"171 593 LINE",
"182 599 LINE",
"50 677 LINE",
"19 623 LINE",
"157 547 LINE",
"157 566 LINE",
"19 490 LINE",
"50 436 LINE",
"183 514 LINE",
"171 520 LINE",
"170 371 LINE",
"230 371 LINE",
"229 520 LINE",
"218 514 LINE",
"350 436 LINE",
"381 490 LINE",
"244 566 LINE",
"244 547 LINE",
"381 623 LINE"
);
}
);
width = 400;
}
);
leftKerningGroup = asterisk;
rightKerningGroup = asterisk;
rightMetricsKey = "=|";
unicode = 002A;
},
{
glyphname = backslash;
lastChange = "2017-09-14 22:08:18 +0000";
layers = (
{
layerId = "16BDD2A6-1A19-40B6-80C2-67966448469B";
paths = (
{
closed = 1;
nodes = (
"49 842 LINE",
"-37 842 LINE",
"293 -100 LINE",
"379 -100 LINE"
);
}
);
width = 352;
}
);
leftKerningGroup = backslash;
rightKerningGroup = backslash;
unicode = 005C;
},
{
glyphname = periodcentered;
lastChange = "2017-09-14 22:08:18 +0000";
layers = (
{
layerId = "16BDD2A6-1A19-40B6-80C2-67966448469B";
paths = (
{
closed = 1;
nodes = (
"171 207 OFFCURVE",
"199 235 OFFCURVE",
"199 274 CURVE SMOOTH",
"199 313 OFFCURVE",
"171 340 OFFCURVE",
"134 340 CURVE SMOOTH",
"96 340 OFFCURVE",
"68 313 OFFCURVE",
"68 274 CURVE SMOOTH",
"68 235 OFFCURVE",
"96 207 OFFCURVE",
"134 207 CURVE SMOOTH"
);
}
);
width = 267;
}
);
leftKerningGroup = hyphen;
leftMetricsKey = "=period+20";
rightKerningGroup = hyphen;
rightMetricsKey = "=|";
unicode = 00B7;
},
{
glyphname = bullet;
lastChange = "2017-09-14 22:08:18 +0000";
layers = (
{
layerId = "16BDD2A6-1A19-40B6-80C2-67966448469B";
paths = (
{
closed = 1;
nodes = (
"206 184 OFFCURVE",
"246 224 OFFCURVE",
"246 275 CURVE SMOOTH",
"246 327 OFFCURVE",
"206 366 OFFCURVE",
"157 366 CURVE SMOOTH",
"108 366 OFFCURVE",
"68 327 OFFCURVE",
"68 275 CURVE SMOOTH",
"68 224 OFFCURVE",
"108 184 OFFCURVE",
"157 184 CURVE SMOOTH"
);
}
);
width = 314;
}
);
leftKerningGroup = hyphen;
leftMetricsKey = "=period+20";
rightKerningGroup = hyphen;
rightMetricsKey = "=period+20";
unicode = 2022;
},
{
glyphname = comma;
lastChange = "2017-09-14 22:08:18 +0000";
layers = (
{
layerId = "16BDD2A6-1A19-40B6-80C2-67966448469B";
paths = (
{
closed = 1;
nodes = (
"115 -148 LINE",
"162 -8 LINE",
"176 28 OFFCURVE",
"179 42 OFFCURVE",
"179 61 CURVE SMOOTH",
"179 99 OFFCURVE",
"152 127 OFFCURVE",
"114 127 CURVE SMOOTH",
"76 127 OFFCURVE",
"48 100 OFFCURVE",
"48 61 CURVE SMOOTH",
"48 22 OFFCURVE",
"76 -4 OFFCURVE",
"115 -4 CURVE",
"103 52 LINE",
"52 -148 LINE"
);
}
);
width = 227;
}
);
leftKerningGroup = period;
widthMetricsKey = period;
rightKerningGroup = period;
rightMetricsKey = period;
unicode = 002C;
},
{
glyphname = exclam;
lastChange = "2017-09-14 22:08:27 +0000";
layers = (
{
layerId = "16BDD2A6-1A19-40B6-80C2-67966448469B";
paths = (
{
closed = 1;
nodes = (
"172 219 LINE",
"191 700 LINE",
"78 700 LINE",
"97 219 LINE"
);
},
{
closed = 1;
nodes = (
"172 -6 OFFCURVE",
"199 23 OFFCURVE",
"199 57 CURVE SMOOTH",
"199 92 OFFCURVE",
"172 119 OFFCURVE",
"134 119 CURVE SMOOTH",
"97 119 OFFCURVE",
"69 92 OFFCURVE",
"69 57 CURVE SMOOTH",
"69 23 OFFCURVE",
"97 -6 OFFCURVE",
"134 -6 CURVE SMOOTH"
);
}
);
width = 268;
}
);
leftKerningGroup = exclam;
rightKerningGroup = exclam;
rightMetricsKey = "=|";
unicode = 0021;
},
{
glyphname = exclamdown;
lastChange = "2017-09-14 22:08:27 +0000";
layers = (
{
layerId = "16BDD2A6-1A19-40B6-80C2-67966448469B";
paths = (
{
closed = 1;
nodes = (
"80 141 LINE",
"177 -154 LINE",
"174 15 LINE",
"105 310 LINE"
);
},
{
closed = 1;
nodes = (
"97 534 OFFCURVE",
"69 506 OFFCURVE",
"69 472 CURVE SMOOTH",
"69 437 OFFCURVE",
"97 410 OFFCURVE",
"134 410 CURVE SMOOTH",
"172 410 OFFCURVE",
"199 437 OFFCURVE",
"199 472 CURVE SMOOTH",
"199 506 OFFCURVE",
"172 534 OFFCURVE",
"134 534 CURVE SMOOTH"
);
}
);
width = 268;
}
);
leftKerningGroup = exclamdown;
leftMetricsKey = exclam;
rightKerningGroup = exclamdown;
rightMetricsKey = "=|";
unicode = 00A1;
},
{
glyphname = numbersign;
lastChange = "2017-09-14 22:08:27 +0000";
layers = (
{
layerId = "16BDD2A6-1A19-40B6-80C2-67966448469B";
paths = (
{
closed = 1;
nodes = (
"474 0 LINE",
"561 700 LINE",
"489 700 LINE",
"402 0 LINE"
);
},
{
closed = 1;
nodes = (
"644 182 LINE",
"644 252 LINE",
"27 252 LINE",
"28 182 LINE"
);
},
{
closed = 1;
nodes = (
"215 0 LINE",
"301 700 LINE",
"229 700 LINE",
"143 0 LINE"
);
},
{
closed = 1;
nodes = (
"677 448 LINE",
"676 518 LINE",
"59 518 LINE",
"60 448 LINE"
);
}
);
width = 704;
}
);
leftKerningGroup = numbersign;
rightKerningGroup = numbersign;
rightMetricsKey = "=|";
unicode = 0023;
},
{
glyphname = period;
lastChange = "2017-09-14 22:08:18 +0000";
layers = (
{
layerId = "16BDD2A6-1A19-40B6-80C2-67966448469B";
paths = (
{
closed = 1;
nodes = (
"150 -6 OFFCURVE",
"179 23 OFFCURVE",
"179 61 CURVE SMOOTH",
"179 99 OFFCURVE",
"150 127 OFFCURVE",
"114 127 CURVE SMOOTH",
"77 127 OFFCURVE",
"48 99 OFFCURVE",
"48 61 CURVE SMOOTH",
"48 23 OFFCURVE",
"77 -6 OFFCURVE",
"114 -6 CURVE SMOOTH"
);
}
);
width = 227;
}
);
leftKerningGroup = period;
rightKerningGroup = period;
rightMetricsKey = "=|";
unicode = 002E;
},
{
glyphname = question;
lastChange = "2017-09-14 22:08:18 +0000";
layers = (
{
layerId = "16BDD2A6-1A19-40B6-80C2-67966448469B";
paths = (
{
closed = 1;
nodes = (
"323 219 LINE",
"323 352 OFFCURVE",
"503 363 OFFCURVE",
"503 532 CURVE SMOOTH",
"503 641 OFFCURVE",
"409 708 OFFCURVE",
"268 708 CURVE SMOOTH",
"145 708 OFFCURVE",
"61 663 OFFCURVE",
"9 590 CURVE",
"82 547 LINE",
"122 598 OFFCURVE",
"181 625 OFFCURVE",
"257 625 CURVE SMOOTH",
"351 625 OFFCURVE",
"405 580 OFFCURVE",
"405 516 CURVE SMOOTH",
"405 390 OFFCURVE",
"234 377 OFFCURVE",
"234 219 CURVE"
);
},
{
closed = 1;
nodes = (
"316 -6 OFFCURVE",
"344 23 OFFCURVE",
"344 57 CURVE SMOOTH",
"344 92 OFFCURVE",
"316 119 OFFCURVE",
"278 119 CURVE SMOOTH",
"241 119 OFFCURVE",
"213 92 OFFCURVE",
"213 57 CURVE SMOOTH",
"213 23 OFFCURVE",
"241 -6 OFFCURVE",
"278 -6 CURVE SMOOTH"
);
}
);
width = 573;
}
);
leftKerningGroup = question;
rightKerningGroup = question;
unicode = 003F;
},
{
glyphname = questiondown;
lastChange = "2017-09-14 22:08:18 +0000";
layers = (
{
layerId = "16BDD2A6-1A19-40B6-80C2-67966448469B";
paths = (
{
closed = 1;
nodes = (
"250 310 LINE",
"250 182 OFFCURVE",
"70 172 OFFCURVE",
"70 9 CURVE SMOOTH",
"70 -95 OFFCURVE",
"165 -162 OFFCURVE",
"305 -162 CURVE SMOOTH",
"428 -162 OFFCURVE",
"513 -117 OFFCURVE",
"564 -44 CURVE",
"491 -1 LINE",
"451 -52 OFFCURVE",
"393 -79 OFFCURVE",
"316 -79 CURVE SMOOTH",
"222 -79 OFFCURVE",
"168 -34 OFFCURVE",
"168 25 CURVE SMOOTH",
"168 145 OFFCURVE",
"339 158 OFFCURVE",
"339 310 CURVE"
);
},
{
closed = 1;
nodes = (
"257 534 OFFCURVE",
"230 506 OFFCURVE",
"230 472 CURVE SMOOTH",
"230 437 OFFCURVE",
"257 410 OFFCURVE",
"295 410 CURVE SMOOTH",
"332 410 OFFCURVE",
"360 437 OFFCURVE",
"360 472 CURVE SMOOTH",
"360 506 OFFCURVE",
"332 534 OFFCURVE",
"295 534 CURVE SMOOTH"
);
}
);
width = 573;
}
);
leftKerningGroup = questiondown;
leftMetricsKey = "=|question";
rightKerningGroup = questiondown;
rightMetricsKey = "=|question";
unicode = 00BF;
},
